<?xml version="1.0" encoding="UTF-8" standalone="no"?>
<!-- Created with Inkscape (http://www.inkscape.org/) -->

<svg
   width="396.371"
   height="1024.0001"
   viewBox="0 0 396.371 1024.0001"
   version="1.1"
   id="svg1"
   xmlns="http://www.w3.org/2000/svg"
   xmlns:svg="http://www.w3.org/2000/svg"
   xmlns:rdf="http://www.w3.org/1999/02/22-rdf-syntax-ns#"
   xmlns:cc="http://creativecommons.org/ns#"
   xmlns:dc="http://purl.org/dc/elements/1.1/">
  <defs
     id="defs1" />
  <metadata
     id="metadata1">
    <rdf:RDF>
      <cc:Work
         rdf:about="">
        <dc:format>image/svg+xml</dc:format>
        <dc:type
           rdf:resource="http://purl.org/dc/dcmitype/StillImage" />
      </cc:Work>
    </rdf:RDF>
  </metadata>
  <path
     style="display:inline;fill:none;fill-opacity:1;fill-rule:evenodd;stroke:#ff0000;stroke-width:1;stroke-linecap:butt;stroke-linejoin:round;stroke-dasharray:none;stroke-opacity:1;paint-order:markers stroke fill"
     d="m 94.956955,951.18819 -0.599134,6.50613 -23.168557,36.27252 -7.878729,9.07136 -2.151693,12.2206 47.928178,8.4009 12.17995,0.2682 15.24267,-6.9301 2.26677,-18.00862 -4.64989,-30.76134 0.0134,-17.03965 z"
     id="right_foot" />
  <path
     style="display:inline;fill:none;fill-opacity:1;fill-rule:evenodd;stroke:#ff0000;stroke-width:1;stroke-linecap:butt;stroke-linejoin:round;stroke-dasharray:none;stroke-opacity:1;paint-order:markers stroke fill"
     d="m 109.43611,430.33041 -5.83042,12.95601 -9.841813,68.78585 16.973033,156.32871 -16.379522,66.08649 5.179378,91.25015 0.338717,97.06846 -5.518095,20.0894 0.287239,3.96683 h 40.165813 l 1.76972,-10.41672 v -13.63951 l 16.35702,-140.02014 3.32833,-44.0591 6.40015,-26.58254 7.05291,-43.74332 2.00851,-19.2372 8.52415,-68.91562 4.77145,-38.96321 1.89906,-16.22639 9.10165,-10.98341 v -83.74474 z"
     id="right_leg" />
  <path
     style="display:inline;fill:none;fill-opacity:1;fill-rule:evenodd;stroke:#ff0000;stroke-width:1;stroke-linecap:butt;stroke-linejoin:round;stroke-dasharray:none;stroke-opacity:1;paint-order:markers stroke fill"
     d="m 33.478822,490.39527 -13.944479,8.90699 -9.093869,12.20764 -10.12429325,27.91924 2.69848505,6.87383 6.6570993,-5.25595 2.0007199,-7.37563 7.059407,-10.68492 3.071808,-2.17592 -0.225811,3.8284 -3.471952,19.13338 -9.4581081,39.47799 2.3874541,6.22062 5.602017,-3.15789 12.147508,-39.97115 2.329488,-1.20259 1.367843,2.27974 -4.971303,45.07568 4.066329,5.31651 5.152558,-4.23936 5.890553,-44.36624 1.526603,-1.78659 1.620908,1.36697 1.271809,43.74332 5.278009,3.88032 3.178658,-4.17881 0.644123,-43.02521 1.200432,-1.78659 1.555588,1.36697 6.413552,36.36769 4.672385,3.20981 3.038066,-5.1132 -4.437489,-36.04324 -0.482769,-40.10093 -5.268058,-13.67843 z"
     id="right_hand" />
  <path
     style="display:inline;fill:none;fill-opacity:1;fill-rule:evenodd;stroke:#ff0000;stroke-width:1;stroke-linecap:butt;stroke-linejoin:round;stroke-dasharray:none;stroke-opacity:1;paint-order:markers stroke fill"
     d="m 64.126829,287.91113 -5.782839,80.14388 -8.409946,35.416 -15.057962,82.92282 28.336256,3.25307 24.891556,-83.83559 3.396249,-24.94304 15.461137,-74.6128 2.31607,-9.29935 z"
     id="right_arm" />
  <path
     style="display:inline;fill:none;fill-opacity:1;fill-rule:evenodd;stroke:#ff0000;stroke-width:1;stroke-linecap:butt;stroke-linejoin:round;stroke-dasharray:none;stroke-opacity:1;paint-order:markers stroke fill"
     d="m 129.18636,186.02148 -19.96654,4.99769 -18.378941,7.52574 -12.086946,16.00533 -11.083342,46.46559 -3.016437,22.12991 46.000996,9.40447 5.0509,-9.40447 10.41975,-46.03257 31.44829,-37.95572 z"
     id="right_shoulder" />
  <path
     id="Waist"
     style="display:inline;fill:none;fill-opacity:1;fill-rule:evenodd;stroke:#ff0000;stroke-width:1;stroke-linecap:butt;stroke-linejoin:round;stroke-dasharray:none;stroke-opacity:1;paint-order:markers stroke fill"
     d="m 120.73229,397.70893 -6.05667,13.16799 -3.99971,15.1276 H 285.6946 l -4.00144,-15.1276 -6.05624,-13.16799 z" />
  <path
     id="Torso"
     style="display:inline;fill:none;fill-opacity:1;fill-rule:evenodd;stroke:#ff0000;stroke-width:1;stroke-linecap:butt;stroke-linejoin:round;stroke-dasharray:none;stroke-opacity:1;paint-order:markers stroke fill"
     d="m 162.45888,200.52746 -32.5661,38.70496 -9.34002,44.07814 2.9455,20.12011 6.39452,21.46502 2.69502,34.05767 -10.59754,34.42969 h 152.39216 l -10.59841,-34.42969 2.69502,-34.05767 6.39365,-21.46502 2.94593,-20.12011 -9.33958,-44.07814 -32.56524,-38.70496 -35.58903,4.84758 z" />
  <path
     id="Jaw"
     style="display:inline;fill:none;fill-opacity:1;fill-rule:evenodd;stroke:#ff0000;stroke-width:1;stroke-dasharray:none;stroke-opacity:1"
     d="m 148.15622,93.771619 14.68766,34.982111 35.34246,19.43359 35.34245,-19.43359 14.68637,-34.982111 z" />
  <path
     id="Eye"
     style="display:inline;fill:none;fill-opacity:1;fill-rule:evenodd;stroke:#ff0000;stroke-width:1;stroke-dasharray:none;stroke-opacity:1"
     d="m 146.20914,63.070404 0.17779,13.535251 0.98241,12.362937 h 101.63313 l 0.98197,-12.362937 0.17736,-13.535251 z" />
  <path
     style="display:inline;fill:none;fill-opacity:1;fill-rule:evenodd;stroke:#ff0000;stroke-width:1;stroke-dasharray:none;stroke-opacity:1"
     d="m 142.84966,52.691316 -11.246,11.734386 2.43547,20.129193 9.54506,10.351402 -0.73453,-4.633019 -0.90065,-14.627969 z"
     id="right_ear" />
  <path
     id="Head"
     style="display:inline;fill:none;fill-opacity:1;fill-rule:evenodd;stroke:#ff0000;stroke-width:1;stroke-dasharray:none;stroke-opacity:1"
     d="m 149.68152,31.327949 -3.29459,26.939428 H 249.98444 L 246.68812,31.327949 228.99094,7.8098605 198.18634,-0.02950229 167.38,7.8098605 Z" />
  <path
     style="display:inline;fill:none;fill-opacity:1;fill-rule:evenodd;stroke:#ff0000;stroke-width:1;stroke-linecap:butt;stroke-linejoin:round;stroke-dasharray:none;stroke-opacity:1;paint-order:markers stroke fill"
     d="m 301.41485,951.18819 0.59697,6.50613 23.16942,36.27252 7.87744,9.07136 2.15428,12.2206 -47.93076,8.4009 -12.17736,0.2682 -15.24441,-6.9301 -2.26676,-18.00862 4.65032,-30.76134 -0.013,-17.03965 z"
     id="left_foot" />
  <path
     style="display:inline;fill:none;fill-opacity:1;fill-rule:evenodd;stroke:#ff0000;stroke-width:1;stroke-linecap:butt;stroke-linejoin:round;stroke-dasharray:none;stroke-opacity:1;paint-order:markers stroke fill"
     d="m 362.89428,490.39527 13.94232,8.90699 9.093,12.20764 10.12689,27.91924 -2.69935,6.87383 -6.65753,-5.25595 -2.00288,-7.37563 -7.05552,-10.68492 -3.0757,-2.17592 0.22927,3.8284 3.46936,19.13338 9.4607,39.47799 -2.38788,6.22062 -5.60202,-3.15789 -12.14708,-39.97115 -2.33165,-1.20259 -1.36698,2.27974 4.97044,45.07568 -4.06633,5.31651 -5.15212,-4.23936 -5.89185,-44.36624 -1.52704,-1.78659 -1.61788,1.36697 -1.27181,43.74332 -5.27757,3.88032 -3.17953,-4.17881 -0.64455,-43.02521 -1.2026,-1.78659 -1.55299,1.36697 -6.41528,36.36769 -4.67195,3.20981 -3.03677,-5.1132 4.43835,-36.04324 0.48017,-40.10093 5.26893,-13.67843 z"
     id="left_hand" />
  <path
     style="display:inline;fill:none;fill-opacity:1;fill-rule:evenodd;stroke:#ff0000;stroke-width:1;stroke-linecap:butt;stroke-linejoin:round;stroke-dasharray:none;stroke-opacity:1;paint-order:markers stroke fill"
     d="m 332.24541,287.91113 5.7837,80.14388 8.40952,35.416 15.05839,82.92282 -28.33885,3.25307 -24.89112,-83.83559 -3.39582,-24.94304 -15.4607,-74.6128 -2.31867,-9.29935 z"
     id="left_arm" />
  <path
     id="Neck"
     style="display:inline;opacity:1;fill:none;fill-opacity:1;fill-rule:evenodd;stroke:#ff0000;stroke-width:1;stroke-linecap:butt;stroke-linejoin:round;stroke-dasharray:none;stroke-opacity:1;paint-order:markers stroke fill"
     d="m 168.78115,139.41616 1.00015,27.84354 -34.91592,17.15644 63.32528,16.61139 63.31361,-16.61139 -34.9142,-17.15644 0.99928,-27.84354 -3.85868,2.69719 -7.35833,4.60922 -18.186,5.78717 -18.19034,-5.78717 -7.35746,-4.60922 z" />
  <path
     style="display:inline;fill:none;fill-opacity:1;fill-rule:evenodd;stroke:#ff0000;stroke-width:1;stroke-dasharray:none;stroke-opacity:1"
     d="m 253.52301,52.691316 11.24297,11.734386 -2.43547,20.129193 -9.5429,10.351402 0.7354,-4.633019 0.89979,-14.627969 z"
     id="left_ear" />
  <path
     style="display:inline;fill:none;fill-opacity:1;fill-rule:evenodd;stroke:#ff0000;stroke-width:1;stroke-linecap:butt;stroke-linejoin:round;stroke-dasharray:none;stroke-opacity:1;paint-order:markers stroke fill"
     d="m 286.93612,430.33041 5.82697,12.95601 9.8457,68.78585 -16.97476,156.32871 16.37779,66.08649 -5.17808,91.25015 -0.33742,97.06846 5.5155,20.0894 -0.28551,3.96683 H 261.5605 l -1.76928,-10.41672 v -13.63951 l -16.35616,-140.02014 -3.33093,-44.0591 -6.39798,-26.58254 -7.05551,-43.74332 -2.00721,-19.2372 -8.52199,-68.91562 -4.77145,-38.96321 -1.90338,-16.22639 -9.09733,-10.98341 v -83.74474 z"
     id="left_leg" />
  <path
     style="display:inline;fill:none;fill-opacity:1;fill-rule:evenodd;stroke:#ff0000;stroke-width:1;stroke-linecap:butt;stroke-linejoin:round;stroke-dasharray:none;stroke-opacity:1;paint-order:markers stroke fill"
     d="m 267.18415,186.02148 19.96827,4.99769 18.37634,7.52574 12.08652,16.00533 11.08723,46.46559 3.01514,22.12991 -46.00142,9.40447 -5.05263,-9.40447 -10.41673,-46.03257 -31.44916,-37.95572 z"
     id="left_shoulder" />
</svg>
