<?xml version="1.0" encoding="UTF-8" standalone="no"?>
<!-- Created with Inkscape (http://www.inkscape.org/) -->

<svg
   width="396.371"
   height="1024.0001"
   viewBox="0 0 396.371 1024.0001"
   version="1.1"
   id="svg1"
   xmlns="http://www.w3.org/2000/svg"
   xmlns:svg="http://www.w3.org/2000/svg"
   xmlns:rdf="http://www.w3.org/1999/02/22-rdf-syntax-ns#"
   xmlns:cc="http://creativecommons.org/ns#"
   xmlns:dc="http://purl.org/dc/elements/1.1/">
  <defs
     id="defs1" />
  <metadata
     id="metadata1">
    <rdf:RDF>
      <cc:Work
         rdf:about="">
        <dc:format>image/svg+xml</dc:format>
        <dc:type
           rdf:resource="http://purl.org/dc/dcmitype/StillImage" />
      </cc:Work>
    </rdf:RDF>
  </metadata>
  <path
     style="display:inline;fill:none;fill-opacity:1;fill-rule:evenodd;stroke:#ff0000;stroke-width:1;stroke-linecap:butt;stroke-linejoin:round;stroke-dasharray:none;stroke-opacity:1;paint-order:markers stroke fill"
     d="m 301.41485,951.18819 0.6013,6.50613 23.16509,36.27252 7.88176,9.07136 2.14996,12.2206 -47.92644,8.4009 -12.18168,0.2682 -15.24441,-6.9301 -2.26676,-18.00862 4.65032,-30.76134 -0.013,-17.03965 z"
     id="left_foot" />
  <path
     style="display:inline;fill:none;fill-opacity:1;fill-rule:evenodd;stroke:#ff0000;stroke-width:1;stroke-linecap:butt;stroke-linejoin:round;stroke-dasharray:none;stroke-opacity:1;paint-order:markers stroke fill"
     d="m 94.956955,951.18819 -0.599134,6.50613 -23.168557,36.27252 -7.879161,9.07136 -2.151261,12.2206 47.928178,8.4009 12.17995,0.2682 15.24267,-6.9301 2.26677,-18.00862 -4.64989,-30.76134 0.0134,-17.03965 z"
     id="right_foot" />
  <path
     style="display:inline;fill:none;fill-opacity:1;fill-rule:evenodd;stroke:#ff0000;stroke-width:1;stroke-linecap:butt;stroke-linejoin:round;stroke-dasharray:none;stroke-opacity:1;paint-order:markers stroke fill"
     d="m 200.34928,430.33041 v 83.74474 l 6.37635,13.43186 19.92501,142.89685 5.07858,41.30785 6.53641,31.34534 1.54867,39.10597 13.92068,64.49024 7.01658,76.15282 -0.96034,13.63951 1.76928,10.41672 h 40.16581 l 0.28551,-3.96683 -3.60778,-20.0894 6.20331,-196.56806 -14.6085,-59.77071 6.42826,-152.60845 -9.14059,-74.46141 -3.66835,-9.06704 z"
     id="left_leg" />
  <path
     style="display:inline;fill:none;fill-opacity:1;fill-rule:evenodd;stroke:#ff0000;stroke-width:1;stroke-linecap:butt;stroke-linejoin:round;stroke-dasharray:none;stroke-opacity:1;paint-order:markers stroke fill"
     d="m 112.75407,430.33041 -3.66792,9.06704 -9.14102,74.46141 6.42783,152.60845 -14.60937,59.77071 6.203314,196.56806 -3.609516,20.0894 0.287239,3.96683 h 40.165813 l 1.76972,-10.41672 -0.96121,-13.63951 7.01614,-76.15282 13.92372,-64.49024 1.5465,-39.10597 6.53511,-31.34534 5.07815,-41.30785 19.92848,-142.89685 6.37634,-13.43186 v -83.74474 z"
     id="right_leg" />
  <path
     style="display:inline;fill:none;fill-opacity:1;fill-rule:evenodd;stroke:#ff0000;stroke-width:1;stroke-linecap:butt;stroke-linejoin:round;stroke-dasharray:none;stroke-opacity:1;paint-order:markers stroke fill"
     d="m 364.83228,490.58129 12.00432,8.72097 9.093,12.20764 10.12689,27.91924 -2.69935,6.87383 -6.65753,-5.25595 -1.99856,-7.37563 -7.05984,-10.68492 -3.07137,-2.17592 0.22494,3.8284 3.46936,19.13338 9.4607,39.47799 -2.38788,6.22062 -5.60202,-3.15789 -12.14708,-39.97115 -2.33165,-1.20259 -1.36698,2.27974 4.97044,45.07568 -4.06633,5.31651 -5.15212,-4.23936 -5.88753,-44.36624 -1.52703,-1.78659 -1.62221,1.36697 -1.27181,43.74332 -5.27757,3.88032 -3.17953,-4.17881 -0.64455,-43.02521 -1.19827,-1.78659 -1.55732,1.36697 -6.41528,36.36769 -4.67195,3.20981 -3.03677,-5.1132 4.43835,-36.04324 0.48017,-40.10093 2.89402,-12.42825 -0.14708,-0.61428 z"
     id="left_hand" />
  <path
     style="display:inline;fill:none;fill-opacity:1;fill-rule:evenodd;stroke:#ff0000;stroke-width:1;stroke-linecap:butt;stroke-linejoin:round;stroke-dasharray:none;stroke-opacity:1;paint-order:markers stroke fill"
     d="m 31.54126,490.58129 -12.006917,8.72097 -9.093869,12.20764 -10.12429325,27.91924 2.69848505,6.87383 6.6570993,-5.25595 2.0007199,-7.37563 7.059407,-10.68492 3.071808,-2.17592 -0.225811,3.8284 -3.471952,19.13338 -9.4581081,39.47799 2.3874541,6.22062 5.602017,-3.15789 12.147508,-39.97115 2.329488,-1.20259 1.367843,2.27974 -4.971303,45.07568 4.066329,5.31651 5.152558,-4.23936 5.890553,-44.36624 1.526603,-1.78659 1.620908,1.36697 1.271809,43.74332 5.278009,3.88032 3.178658,-4.17881 0.644123,-43.02521 1.200432,-1.78659 1.555588,1.36697 6.413552,36.36769 4.672385,3.20981 3.038066,-5.1132 -4.437489,-36.04324 -0.482769,-40.10093 -2.892717,-12.42825 0.149676,-0.61428 z"
     id="right_hand" />
  <path
     style="display:inline;fill:none;fill-opacity:1;fill-rule:evenodd;stroke:#ff0000;stroke-width:1;stroke-linecap:butt;stroke-linejoin:round;stroke-dasharray:none;stroke-opacity:1;paint-order:markers stroke fill"
     d="m 341.6196,285.87321 2.95025,74.22651 8.23215,41.602 10.45998,84.69211 -33.28333,3.43043 -23.83128,-86.84208 -1.21558,-26.70799 L 295.908,296.543 Z"
     id="left_arm" />
  <path
     style="display:inline;fill:none;fill-opacity:1;fill-rule:evenodd;stroke:#ff0000;stroke-width:1;stroke-linecap:butt;stroke-linejoin:round;stroke-dasharray:none;stroke-opacity:1;paint-order:markers stroke fill"
     d="m 54.752211,285.87321 -2.948954,74.22651 -8.233018,41.602 -10.462145,84.69211 33.286362,3.43043 23.83085,-86.84208 1.213842,-26.70799 9.025952,-79.73119 z"
     id="right_arm" />
  <path
     style="display:inline;fill:none;fill-opacity:1;fill-rule:evenodd;stroke:#ff0000;stroke-width:1;stroke-linecap:butt;stroke-linejoin:round;stroke-dasharray:none;stroke-opacity:1;paint-order:markers stroke fill"
     d="m 267.18415,186.02148 23.96971,5.74736 37.21556,24.03158 12.41961,45.96552 0.67916,19.70309 -47.50251,11.08118 -5.22999,-6.72631 -18.48882,-48.71073 -31.44916,-37.95572 z"
     id="left_shoulder" />
  <path
     style="display:inline;fill:none;fill-opacity:1;fill-rule:evenodd;stroke:#ff0000;stroke-width:1;stroke-linecap:butt;stroke-linejoin:round;stroke-dasharray:none;stroke-opacity:1;paint-order:markers stroke fill"
     d="m 129.18636,186.02148 -23.96668,5.74736 -37.215996,24.03158 -12.420039,45.96552 -0.679596,19.70309 47.501211,11.08118 5.23085,-6.72631 18.48969,-48.71073 31.44829,-37.95572 z"
     id="right_shoulder" />
  <path
     id="Waist"
     style="display:inline;fill:none;fill-opacity:1;fill-rule:evenodd;stroke:#ff0000;stroke-width:1;stroke-linecap:butt;stroke-linejoin:round;stroke-dasharray:none;stroke-opacity:1;paint-order:markers stroke fill"
     d="m 120.38492,397.70893 -1.48637,15.00216 -4.22293,13.29343 h 167.01754 l -4.22206,-13.29343 -1.48378,-15.00216 z" />
  <path
     id="Torso"
     style="display:inline;fill:none;fill-opacity:1;fill-rule:evenodd;stroke:#ff0000;stroke-width:1;stroke-linecap:butt;stroke-linejoin:round;stroke-dasharray:none;stroke-opacity:1;paint-order:markers stroke fill"
     d="m 162.45888,200.52746 -32.5661,38.70496 -18.70901,50.08809 9.55847,59.13393 -0.002,44.92861 H 275.6326 l -0.004,-44.92861 9.5602,-59.13393 -18.70944,-50.08809 -32.56524,-38.70496 -35.62363,4.85537 z" />
  <path
     id="Neck"
     style="display:inline;opacity:1;fill:none;fill-opacity:1;fill-rule:evenodd;stroke:#ff0000;stroke-width:1;stroke-linecap:butt;stroke-linejoin:round;stroke-dasharray:none;stroke-opacity:1;paint-order:markers stroke fill"
     d="m 166.28512,138.2287 -0.004,27.53121 -31.41585,18.65623 26.45147,11.37491 36.86949,5.27541 36.86949,-5.27541 26.45276,-11.37491 -31.41888,-18.65623 -0.004,-27.53121 -6.15573,4.9977 -25.55731,10.42018 -0.18601,0.0156 -0.18602,-0.0156 -25.55687,-10.42018 z" />
  <path
     id="Jaw"
     style="display:inline;fill:none;fill-opacity:1;fill-rule:evenodd;stroke:#ff0000;stroke-width:1;stroke-dasharray:none;stroke-opacity:1"
     d="m 146.33545,90.08467 16.50886,39.02248 13.41154,11.52199 22.1165,8.70194 22.11391,-8.70194 13.41023,-11.52199 16.51189,-39.02248 z" />
  <path
     id="Eye"
     style="display:inline;fill:none;fill-opacity:1;fill-rule:evenodd;stroke:#ff0000;stroke-width:1;stroke-dasharray:none;stroke-opacity:1"
     d="m 146.38693,61.403641 -0.98371,13.180529 0.49402,11.302232 h 104.57603 l 0.49315,-11.302232 -0.98198,-13.180529 z" />
  <path
     style="display:inline;fill:none;fill-opacity:1;fill-rule:evenodd;stroke:#ff0000;stroke-width:1;stroke-dasharray:none;stroke-opacity:1"
     d="m 253.51869,50.691461 1.3367,23.388744 -0.85653,14.127032 v 0.03331 l -0.004,0.03331 -0.67484,4.726458 9.01081,-10.445274 2.43547,-20.129193 -11.24297,-11.734386 z"
     id="left_ear" />
  <path
     style="display:inline;fill:none;fill-opacity:1;fill-rule:evenodd;stroke:#ff0000;stroke-width:1;stroke-dasharray:none;stroke-opacity:1"
     d="m 142.84966,50.691461 -11.246,11.734386 2.43547,20.12876 9.01341,10.445274 -0.67743,-4.726458 -0.006,-0.03331 v -0.03331 l -0.85739,-14.127032 1.33756,-23.388745 z"
     id="right_ear" />
  <path
     id="Head"
     style="display:inline;fill:none;fill-opacity:1;fill-rule:evenodd;stroke:#ff0000;stroke-width:1;stroke-dasharray:none;stroke-opacity:1"
     d="M 198.37235,-0.00657512 167.42456,8.0724415 149.43192,31.202498 146.59803,57.206671 H 250.1445 L 247.31105,31.202498 229.31971,8.0724415 Z" />
</svg>
