<?xml version="1.0" encoding="UTF-8" standalone="no"?>
<!-- Created with Inkscape (http://www.inkscape.org/) -->

<svg
   width="396.371"
   height="1024.0001"
   viewBox="0 0 396.371 1024.0001"
   version="1.1"
   id="svg1"
   xmlns="http://www.w3.org/2000/svg"
   xmlns:svg="http://www.w3.org/2000/svg"
   xmlns:rdf="http://www.w3.org/1999/02/22-rdf-syntax-ns#"
   xmlns:cc="http://creativecommons.org/ns#"
   xmlns:dc="http://purl.org/dc/elements/1.1/">
  <defs
     id="defs1" />
  <metadata
     id="metadata1">
    <rdf:RDF>
      <cc:Work
         rdf:about="">
        <dc:format>image/svg+xml</dc:format>
        <dc:type
           rdf:resource="http://purl.org/dc/dcmitype/StillImage" />
      </cc:Work>
    </rdf:RDF>
  </metadata>
  <path
     id="left_foot"
     style="display:inline;fill:none;fill-opacity:1;fill-rule:evenodd;stroke:#ff0000;stroke-width:1;stroke-linecap:butt;stroke-linejoin:miter;stroke-miterlimit:0;stroke-dasharray:none;stroke-opacity:1"
     d="m 262.23242,951.1875 0.34374,2.56836 0.3125,3.89061 -0.0586,5.53908 -0.41014,3.91406 -3.48437,24.27343 -1.10742,6.48436 -0.59961,3.0234 -0.60156,4.9005 0.0606,4.0234 0.60156,3.0254 1.2207,2.6035 1.93164,2.0684 3.58789,2.6875 4.17383,2.1699 3.47852,1.0742 3.03711,0.4609 2.86914,0.1056 8.83007,-0.3867 5.26368,0.1639 7.88086,-0.2794 18.2871,-1.9434 10.83399,-2.3926 4.45703,-1.8632 2.07227,-2.0391 0.90429,-2.8457 0.23438,-3.6387 -0.92188,-2.83 -1.88086,-2.4356 -4.27929,-3.72657 -2.50781,-2.67188 -1.3086,-2.35744 -1.30664,-3.3359 -2.73242,-4.51367 -10.46484,-13.55666 -6.63282,-9.67579 -2.30273,-5.9785 -0.59766,-6.50586 z" />
  <path
     id="right_foot"
     style="display:inline;fill:none;fill-opacity:1;fill-rule:evenodd;stroke:#ff0000;stroke-width:1;stroke-linecap:butt;stroke-linejoin:miter;stroke-miterlimit:0;stroke-dasharray:none;stroke-opacity:1"
     d="m 134.14062,951.18555 -39.18359,0.002 -0.599606,6.50587 -2.302736,5.97849 -6.630859,9.67384 -10.464844,13.55862 -2.734377,4.51172 -1.304686,3.33785 -1.308592,2.35548 -2.507813,2.67383 -4.279296,3.72655 -1.882814,2.4355 -0.919921,2.8301 0.234377,3.6387 0.902344,2.8457 2.072266,2.0371 4.458985,1.8652 10.833984,2.3926 18.285156,1.9433 7.882812,0.2773 5.26367,-0.1622 8.82813,0.3867 2.87109,-0.1055 3.03711,-0.461 3.47852,-1.0742 4.17382,-2.1699 3.58594,-2.6875 1.93164,-2.0684 1.22071,-2.6035 0.60156,-3.0254 0.0625,-4.0234 -0.60157,-4.9004 -0.59961,-3.02341 -1.10742,-6.48631 -3.48437,-24.27148 -0.41213,-3.91406 -0.0586,-5.53908 0.31445,-3.89061 z" />
  <path
     id="right_leg"
     style="display:inline;fill:none;fill-opacity:1;fill-rule:evenodd;stroke:#ff0000;stroke-width:1;stroke-linecap:butt;stroke-linejoin:miter;stroke-miterlimit:0;stroke-dasharray:none;stroke-opacity:1"
     d="m 112.75586,430.33203 -6.64258,20.74024 -4.60351,31.66213 -1.652346,39.17968 2.097656,55.41208 4.57031,80.4922 -0.15236,8.65232 -10.138666,36.10939 -3.718753,16.43554 -1.285155,24.71095 0.339841,40.45703 6.396487,138.625 -0.222653,5.09178 -1.550781,6.61916 -1.60742,5.15234 -0.228536,3.2246 0.287109,3.95706 40.166017,0.009 1.50585,-7.22656 0.26367,-3.18748 -1.53125,-23.18751 0.0937,-16.13476 3.66211,-31.76758 15.67969,-69.42772 2.07422,-13.76565 0.91406,-17.30859 0.63281,-21.79881 1.72461,-12.92188 6.11914,-23.94921 2.07227,-15.43557 1.69726,-20.34765 4.87696,-29.46678 11.875,-87.08986 4.47851,-33.07227 1.94727,-5.22658 3.127,-1.47352 V 430.3324 Z" />
  <path
     id="left_leg"
     style="display:inline;fill:none;fill-opacity:1;fill-rule:evenodd;stroke:#ff0000;stroke-width:1;stroke-linecap:butt;stroke-linejoin:miter;stroke-miterlimit:0;stroke-dasharray:none;stroke-opacity:1"
     d="m 200.34962,514.0742 3.12494,1.47352 1.94727,5.22658 4.47851,33.07227 11.875,87.08986 4.87696,29.46678 1.69726,20.34765 2.07227,15.43557 6.11914,23.94921 1.72461,12.92188 0.63281,21.79881 0.91406,17.30859 2.07422,13.76565 15.67969,69.42772 3.66211,31.76758 0.0937,16.13476 -1.53125,23.18751 0.26366,3.18748 1.50586,7.22656 40.16602,-0.009 0.28711,-3.95706 -0.2285,-3.2246 -1.60742,-5.15234 -1.55078,-6.61916 -0.22265,-5.09178 6.39648,-138.625 0.33984,-40.45703 -1.28516,-24.71095 -3.71875,-16.43554 -10.13867,-36.10939 -0.15236,-8.65232 4.57032,-80.4922 2.09765,-55.41208 -1.65234,-39.17968 -4.60352,-31.66213 -6.64258,-20.74024 -83.26555,2e-5 z" />
  <path
     id="Waist"
     style="display:inline;fill:none;fill-opacity:1;fill-rule:evenodd;stroke:#ff0000;stroke-width:1;stroke-linecap:butt;stroke-linejoin:miter;stroke-miterlimit:0;stroke-dasharray:none;stroke-opacity:1"
     d="m 281.69603,426.00516 -1.87079,-4.50991 -1.52591,-4.58924 -0.82609,-4.19514 -1.48658,-14.99996 H 120.38514 l -1.48658,14.99996 -0.82609,4.19514 -1.52591,4.58924 -1.87079,4.50991 z" />
  <path
     id="Torso"
     style="display:inline;fill:none;fill-opacity:1;fill-rule:evenodd;stroke:#ff0000;stroke-width:1;stroke-linecap:butt;stroke-linejoin:miter;stroke-miterlimit:0;stroke-dasharray:none;stroke-opacity:1"
     d="m 187.03323,204.92165 -10.70874,-1.3329 -7.64045,-1.49713 -6.22529,-1.56404 -8.29317,8.05244 -8.81196,9.51387 -8.47192,10.4861 -5.79259,8.60076 -4.80131,9.0606 -7.87346,19.53787 -7.23037,23.54088 7.95864,48.95917 2.42979,17.56167 0.3943,13.02041 -1.22612,24.52394 h 154.98174 l -1.22612,-24.52394 0.3943,-13.02041 2.42979,-17.56167 7.95864,-48.95917 -7.23037,-23.54088 -7.87346,-19.53787 -4.80131,-9.0606 -5.79258,-8.60076 -8.47193,-10.4861 -8.81196,-9.51387 -8.29317,-8.05244 -6.22528,1.56404 -7.64046,1.49713 -10.70874,1.3329 -11.19822,0.4703 z" />
  <path
     style="display:inline;fill:none;fill-opacity:1;fill-rule:evenodd;stroke:#ff0000;stroke-width:1;stroke-linecap:butt;stroke-linejoin:miter;stroke-miterlimit:0;stroke-dasharray:none;stroke-opacity:1"
     d="m 364.83059,490.58094 2.08944,2.41994 3.20403,2.47575 4.61832,2.72967 3.81291,2.16424 2.21771,2.02205 1.86272,2.40523 2.55847,4.8321 3.68984,10.02298 4.60249,12.69071 2.56971,7.08549 0.31579,1.14225 v 0.9051 l -0.11853,1.39545 -0.33526,1.27656 -0.61472,1.17478 v 0 0 l -0.94856,0.81288 -0.99705,0.16871 -1.40905,-0.31017 -1.67022,-0.81954 -1.69729,-1.37277 -1.70024,-2.33693 -1.14538,-3.27426 -0.89652,-4.04522 -0.87666,-1.94396 -6.85632,-10.02 -0.98308,-1.13381 -1.20872,-0.3132 -0.62506,0.49402 0.12848,1.55018 3.84826,20.9951 9.52324,39.73219 0.14448,2.96881 -1.13137,2.25339 -1.46538,0.74159 -3.22198,-0.4508 -1.96049,-1.74532 -1.40789,-4.20995 -11.1755,-36.77864 -0.87683,-1.03138 -1.43666,-0.1142 -1.15589,0.81715 -0.2124,1.46302 4.97175,45.0746 -0.15573,1.71457 -1.11822,2.0063 -1.65434,1.24356 -2.00275,0.40793 -1.68107,-0.4434 -1.79299,-1.67814 -0.81428,-2.17134 -5.89058,-44.36814 -0.43468,-1.34583 -1.09218,-0.44029 -1.62072,1.36586 -1.27201,43.74448 -1.48982,2.47298 -2.83408,1.3059 -2.54016,-0.25956 -1.42524,-2.16761 -0.18645,-2.89735 -0.62961,-42.15506 -0.39625,-1.18685 -0.79976,-0.22279 -1.34972,0.54917 -0.49856,2.5229 -6.12131,34.66104 -1.24211,2.0137 -2.48258,1.19126 -2.17289,-0.49795 -1.39675,-1.84291 -0.41593,-2.76428 4.43748,-36.04533 -0.37519,-19.63781 0.39098,-16.60031 0.46709,-3.86241 1.70861,-6.11589 0.93064,-4.00598 0.10373,-2.92231 z"
     id="left_hand" />
  <path
     style="display:inline;fill:none;fill-opacity:1;fill-rule:evenodd;stroke:#ff0000;stroke-width:1;stroke-linecap:butt;stroke-linejoin:miter;stroke-miterlimit:0;stroke-dasharray:none;stroke-opacity:1"
     d="m 31.541205,490.58094 -2.08941,2.41994 -3.204059,2.47575 -4.618303,2.72963 -3.812897,2.16424 -2.217672,2.02209 -1.862729,2.40519 -2.558443,4.83209 -3.6898168,10.0229 -4.6024918,12.69071 -2.56968183,7.08545 -0.31583262,1.14225 v 0.90514 l 0.1184859,1.3954 0.33534235,1.27661 0.6147078,1.17474 v 0 0 l 0.9485274,0.81283 0.9970424,0.16914 1.4090824,-0.31016 1.670197,-0.8195 1.6972986,-1.37281 1.7002316,-2.33693 1.1453896,-3.27422 0.896513,-4.04517 0.876636,-1.94397 6.85628,-10.01995 0.983095,-1.13386 1.208704,-0.31319 0.625059,0.49401 -0.128392,1.55018 -3.848222,20.99498 -9.5232036,39.73205 -0.1443979,2.96881 1.1313305,2.2534 1.465405,0.74158 3.221947,-0.4508 1.96049,-1.74532 1.407875,-4.2099 11.175462,-36.77856 0.87683,-1.03129 1.436655,-0.11421 1.15588,0.81721 0.212271,1.46301 -4.971757,45.07439 0.155559,1.71461 1.118236,2.0063 1.654342,1.24351 2.002724,0.40794 1.681054,-0.44341 1.793009,-1.67814 0.814283,-2.17133 5.890544,-44.36793 0.434673,-1.34587 1.092169,-0.44029 1.620739,1.36586 1.271999,43.74431 1.489821,2.47302 2.834058,1.30585 2.540179,-0.25955 1.425214,-2.16761 0.186273,-2.89731 0.629606,-42.15489 0.39625,-1.18685 0.799757,-0.22278 1.349718,0.54917 0.498553,2.5229 6.121287,34.66091 1.242108,2.01365 2.482576,1.19126 2.172882,-0.49791 1.39674,-1.84295 0.415934,-2.76424 -4.437464,-36.04519 0.375184,-19.63773 -0.390973,-16.60027 -0.467096,-3.86241 -1.708593,-6.11584 -0.93064,-4.00599 -0.103735,-2.9223 z"
     id="right_hand" />
  <path
     style="display:inline;fill:none;fill-opacity:1;fill-rule:evenodd;stroke:#ff0000;stroke-width:1;stroke-linecap:butt;stroke-linejoin:miter;stroke-miterlimit:0;stroke-dasharray:none;stroke-opacity:1"
     d="m 341.9727,285.87305 -45.7129,10.66992 0.38868,7.48047 1.51368,16.56055 6.33203,49.7246 1.04687,8.94727 0.11131,7.29687 0.14842,8.90625 0.69922,7.52344 1.91797,10.16797 4.54101,17.41016 17.37305,59.26561 33.28516,-3.43164 -1.40626,-6.21875 -2.06249,-12.41407 -3.37305,-32.06249 -2.66016,-26.34569 -2.81445,-18.70704 -2.85156,-11.94726 -3.06836,-13.53125 -0.45899,-5.06836 z"
     id="left_arm" />
  <path
     style="display:inline;fill:none;fill-opacity:1;fill-rule:evenodd;stroke:#ff0000;stroke-width:1;stroke-linecap:butt;stroke-linejoin:miter;stroke-miterlimit:0;stroke-dasharray:none;stroke-opacity:1"
     d="m 55.105507,285.87305 -2.949218,74.22656 -0.458984,5.06836 -3.068361,13.53125 -2.851561,11.94726 -2.814455,18.70704 -2.660156,26.34569 -3.373047,32.06249 -2.060547,12.41407 -1.408202,6.21875 33.287109,3.43164 17.371093,-59.26561 4.541017,-17.41016 1.91797,-10.16797 0.701169,-7.52344 0.146475,-8.90625 0.113294,-7.29687 1.044926,-8.94727 6.332031,-49.7246 1.51367,-16.56055 0.38868,-7.48047 z"
     id="right_arm" />
  <path
     style="display:inline;fill:none;fill-opacity:1;fill-rule:evenodd;stroke:#ff0000;stroke-width:1;stroke-linecap:butt;stroke-linejoin:miter;stroke-miterlimit:0;stroke-dasharray:none;stroke-opacity:1"
     d="m 267.18555,186.02148 -12.80665,7.02149 -15.58203,6.11523 8.29102,8.19532 6.56641,7.13281 9.71679,12.04687 8.26758,13.13672 4.4961,9.44922 7.06054,18.55664 5.54102,18.14844 3.0918,3.26367 2.13867,3.46289 47.50195,-11.08203 -0.67969,-19.70312 -2.30078,-17.17188 -2.77539,-12.54688 -3.63477,-9.82031 -6.12304,-9.75781 -7.40821,-7.59375 -7.86523,-5.54297 -7.07617,-3.58984 -10.89258,-3.6211 z"
     id="left_shoulder" />
  <path
     style="display:inline;fill:none;fill-opacity:1;fill-rule:evenodd;stroke:#ff0000;stroke-width:1;stroke-linecap:butt;stroke-linejoin:miter;stroke-miterlimit:0;stroke-dasharray:none;stroke-opacity:1"
     d="m 129.18555,186.02148 -25.5254,6.09961 -10.894525,3.6211 -7.074218,3.58984 -7.867187,5.54297 -7.406251,7.59375 -6.124999,9.75781 -3.632815,9.82031 -2.777341,12.54688 -2.29883,17.17188 -0.679687,19.70312 47.501953,11.08203 2.13672,-3.46289 3.09375,-3.26367 5.53906,-18.14844 7.06055,-18.55664 4.49805,-9.44922 L 133,226.5332 l 9.7168,-12.04687 6.56836,-7.13281 8.28906,-8.19532 -15.58008,-6.11523 z"
     id="right_shoulder" />
  <path
     id="Neck"
     style="display:inline;fill:none;fill-opacity:1;fill-rule:evenodd;stroke:#ff0000;stroke-width:1;stroke-linecap:butt;stroke-linejoin:miter;stroke-miterlimit:0;stroke-dasharray:none;stroke-opacity:1"
     d="m 203.07646,152.96917 7.07294,-2.05726 8.13045,-3.94115 5.64962,-3.74468 6.15656,-4.99856 -1.02069,9.68857 -0.20388,6.89661 0.44313,6.78868 0.78579,4.15808 1.27868,2.84353 2.47966,2.90406 3.83277,2.96009 5.92135,3.28973 6.51832,2.79947 11.38639,3.86028 -11.68474,5.95862 -7.3551,2.96591 -12.63115,3.8729 -15.14237,2.82177 -9.14618,0.82294 -7.36205,0.20756 -7.36206,-0.20756 -9.14618,-0.82294 -15.14237,-2.82177 -12.63115,-3.8729 -7.3551,-2.96591 -11.68475,-5.95862 11.3864,-3.86028 6.51831,-2.79947 5.92136,-3.28973 3.83277,-2.96009 2.47966,-2.90406 1.27868,-2.84353 0.78579,-4.15808 0.44313,-6.78868 -0.20388,-6.89661 -1.0207,-9.68857 6.15657,4.99856 5.64962,3.74468 8.13045,3.94115 7.07293,2.05726 4.89046,0.69197 z" />
  <path
     style="display:inline;fill:none;fill-opacity:1;fill-rule:evenodd;stroke:#ff0000;stroke-width:1;stroke-linecap:butt;stroke-linejoin:miter;stroke-miterlimit:0;stroke-dasharray:none;stroke-opacity:1"
     d="m 188.44392,147.11773 -9.1009,-4.44893 -9.54859,-7.12097 -6.89012,-6.37861 -4.87589,-6.04513 -3.46595,-6.11738 -2.85011,-6.46831 -2.11417,-6.08132 -1.56301,-5.694281 -1.69913,-8.672562 h 104.07091 l -1.69914,8.672562 -1.56301,5.694281 -2.11416,6.08132 -2.85012,6.46831 -3.46595,6.11738 -4.87588,6.04513 -6.89013,6.37861 -9.54858,7.12097 -9.10091,4.44893 -9.9276,2.22002 z"
     id="Jaw" />
  <path
     id="Eye"
     style="display:inline;fill:none;fill-opacity:1;fill-rule:evenodd;stroke:#ff0000;stroke-width:1;stroke-linecap:butt;stroke-linejoin:miter;stroke-miterlimit:0;stroke-dasharray:none;stroke-opacity:1"
     d="m 146.38672,61.404299 -0.98438,13.187498 0.49414,11.300782 h 104.57813 l 0.49414,-11.300782 -0.98437,-13.187498 z" />
  <path
     id="left_ear"
     style="display:inline;fill:none;fill-opacity:1;fill-rule:evenodd;stroke:#ff0000;stroke-width:1;stroke-linecap:butt;stroke-linejoin:miter;stroke-miterlimit:0;stroke-dasharray:none;stroke-opacity:1"
     d="m 253.52148,50.691404 0.63282,5.794925 0.82226,5.701171 0.1367,3.554689 0.0976,4.476561 0.006,5.714844 -0.4004,7.255858 -0.36913,4.220702 -0.75781,5.597657 4.33008,-3.812499 3.67187,-4.814452 2.14453,-4.380859 1.64258,-6.140628 0.334,-6.75781 -0.67383,-4.669924 -0.5664,-2.164061 -1.45313,-3.601564 -2.38476,-3.046875 -3.53125,-2.083985 z" />
  <path
     id="right_ear"
     style="display:inline;fill:none;fill-opacity:1;fill-rule:evenodd;stroke:#ff0000;stroke-width:1;stroke-linecap:butt;stroke-linejoin:miter;stroke-miterlimit:0;stroke-dasharray:none;stroke-opacity:1"
     d="m 142.84961,50.691404 -3.68164,0.84375 -3.53125,2.083985 -2.38477,3.046875 -1.45312,3.601564 -0.56641,2.164061 -0.67382,4.669924 0.334,6.75781 1.64257,6.140628 2.14453,4.380859 3.67188,4.814452 4.33008,3.812499 -0.75781,-5.597657 -0.36913,-4.220702 -0.40041,-7.255858 0.006,-5.714844 0.0976,-4.476561 0.13669,-3.554689 0.82227,-5.701171 z" />
  <path
     style="display:inline;fill:none;fill-opacity:1;fill-rule:evenodd;stroke:#ff0000;stroke-width:1;stroke-linecap:butt;stroke-linejoin:miter;stroke-miterlimit:0;stroke-dasharray:none;stroke-opacity:1"
     d="m 198.35156,0 -2.50781,0.04492186 -8.50586,0.8339844 -9.03711,2.19531254 -8.28516,3.519531 -6.02734,3.8242192 -6.62109,6.177734 -4.81445,7.009766 -3.1211,7.603515 -1.15625,5.228516 -1.1582,8.720704 -0.20704,5.679688 -0.23048,6.369138 h 103.38281 l 0.002,-6.384764 -0.43943,-5.664062 -1.1582,-8.720704 -1.15625,-5.228516 -3.1211,-7.603515 -4.81445,-7.009766 -6.62109,-6.177734 -6.02735,-3.8242192 -8.28515,-3.519531 L 209.4043,0.87890626 200.89844,0.04492186 198.39063,0 Z"
     id="Head" />
</svg>
