<?xml version="1.0" encoding="UTF-8" standalone="no"?>
<!-- Created with Inkscape (http://www.inkscape.org/) -->

<svg
   width="396.3678"
   height="1024.8469"
   viewBox="0 0 396.3678 1024.8469"
   version="1.1"
   id="svg1"
   xmlns="http://www.w3.org/2000/svg"
   xmlns:svg="http://www.w3.org/2000/svg"
   xmlns:rdf="http://www.w3.org/1999/02/22-rdf-syntax-ns#"
   xmlns:cc="http://creativecommons.org/ns#"
   xmlns:dc="http://purl.org/dc/elements/1.1/">
  <defs
     id="defs1" />
  <metadata
     id="metadata1">
    <rdf:RDF>
      <cc:Work
         rdf:about="">
        <dc:format>image/svg+xml</dc:format>
        <dc:type
           rdf:resource="http://purl.org/dc/dcmitype/StillImage" />
      </cc:Work>
    </rdf:RDF>
  </metadata>
  <path
     style="display:inline;fill:none;fill-opacity:1;fill-rule:evenodd;stroke:#ff0000;stroke-width:1;stroke-linecap:butt;stroke-linejoin:round;stroke-dasharray:none;stroke-opacity:1;paint-order:markers stroke fill"
     d="m 110.99513,430.74724 -5.20533,13.20692 -7.012257,32.10237 -2.079884,36.68347 6.826241,90.69211 4.92199,65.29919 -8.51896,28.33885 -6.885506,38.20618 2.915644,90.52773 3.130208,97.5097 -4.546069,19.99855 0.287239,3.96683 h 40.165814 l 1.76972,-10.41672 -0.53036,-13.68276 2.5579,-40.16581 5.30915,-35.74476 10.78832,-64.15716 2.62321,-43.96826 6.14968,-26.45709 4.30641,-23.59336 1.9341,-20.27541 2.80361,-19.28045 8.85378,-68.50034 5.1478,-39.46069 1.89906,-16.49026 2.83345,-7.41456 4.76712,-3.17953 v -83.74474 z"
     id="right_leg" />
  <path
     style="display:inline;fill:none;fill-opacity:1;fill-rule:evenodd;stroke:#ff0000;stroke-width:1;stroke-linecap:butt;stroke-linejoin:round;stroke-dasharray:none;stroke-opacity:1;paint-order:markers stroke fill"
     d="m 32.439715,490.82076 -12.596535,8.56957 -9.218887,12.53641 -10.12429308,27.91924 0.0393655,4.4297 2.65911948,2.44412 6.6570994,-5.25594 2.0007207,-7.37563 7.059406,-10.68493 3.071809,-2.17592 -0.225812,3.82841 -3.471952,19.13337 -9.4581079,39.478 -0.083922,3.78082 2.4713759,2.4398 5.602017,-3.1579 12.147508,-39.97114 2.329488,-1.2026 1.367843,2.27974 -4.971303,45.07569 4.066329,5.31651 5.152558,-4.23937 5.890553,-44.36624 1.526603,-1.78659 1.620908,1.36698 1.27181,43.74331 5.278008,3.88032 3.178658,-4.1788 0.644123,-43.02522 1.200433,-1.78659 1.555587,1.36698 6.413552,36.36769 4.672385,3.2098 3.038066,-5.11319 -4.437489,-36.04325 -0.482768,-40.10092 -3.368997,-9.59048 -0.828406,-3.91925 z"
     id="right_hand" />
  <path
     style="display:inline;fill:none;fill-opacity:1;fill-rule:evenodd;stroke:#ff0000;stroke-width:1;stroke-linecap:butt;stroke-linejoin:round;stroke-dasharray:none;stroke-opacity:1;paint-order:markers stroke fill"
     d="m 59.623123,287.29668 -5.720113,82.67625 -7.535254,34.28694 -6.601295,44.77287 -5.738715,37.73467 30.87079,3.45205 24.232724,-84.05621 2.376207,-25.93798 11.837343,-73.81685 1.71002,-9.19163 z"
     id="right_arm" />
  <path
     style="display:inline;fill:none;fill-opacity:1;fill-rule:evenodd;stroke:#ff0000;stroke-width:1;stroke-linecap:butt;stroke-linejoin:round;stroke-dasharray:none;stroke-opacity:1;paint-order:markers stroke fill"
     d="m 129.37018,186.43831 -19.96654,4.99769 -20.862431,7.95573 -8.846428,6.85999 -6.757027,9.0904 -6.355153,14.23864 -5.799277,31.49848 -1.22682,21.68781 46.782676,10.70007 5.80058,-8.40433 3.86907,-21.56452 10.30079,-25.96827 16.80042,-22.86401 14.64787,-15.0917 z"
     id="right_shoulder" />
  <path
     id="Waist"
     style="display:inline;fill:none;fill-opacity:1;fill-rule:evenodd;stroke:#ff0000;stroke-width:1;stroke-linecap:butt;stroke-linejoin:round;stroke-dasharray:none;stroke-opacity:1;paint-order:markers stroke fill"
     d="m 120.91611,398.12577 -4.81817,16.52919 -3.47065,11.7664 h 171.11414 l -3.47368,-11.7664 -4.81471,-16.52919 z" />
  <path
     id="Torso"
     style="display:inline;fill:none;fill-opacity:1;fill-rule:evenodd;stroke:#ff0000;stroke-width:1;stroke-linecap:butt;stroke-linejoin:round;stroke-dasharray:none;stroke-opacity:1;paint-order:markers stroke fill"
     d="m 162.6427,200.94429 -13.98082,14.06561 -18.58528,24.63935 -10.67844,27.56668 -3.3491,19.57375 3.00778,20.43201 4.51969,24.34173 2.94506,28.80605 -4.97261,33.43041 h 153.26816 l -4.97044,-33.43041 2.94592,-28.80605 4.51622,-24.34173 3.01082,-20.43201 -3.34823,-19.57375 -10.68061,-27.56668 -18.58398,-24.63935 -13.98125,-14.06561 -35.42898,4.82725 z" />
  <path
     id="Jaw"
     style="display:inline;fill:none;fill-opacity:1;fill-rule:evenodd;stroke:#ff0000;stroke-width:1;stroke-dasharray:none;stroke-opacity:1"
     d="m 147.40262,92.063147 7.17188,24.583553 8.4532,13.08666 14.65609,11.25248 20.50035,8.1478 20.50036,-8.1478 14.65608,-11.25248 8.45278,-13.08666 7.17231,-24.583553 z" />
  <path
     id="Eye"
     style="display:inline;fill:none;fill-opacity:1;fill-rule:evenodd;stroke:#ff0000;stroke-width:1;stroke-dasharray:none;stroke-opacity:1"
     d="m 146.41415,62.713771 -0.41788,14.263729 0.74795,10.96265 H 249.6232 l 0.74838,-10.96265 -0.41961,-14.263729 z" />
  <path
     style="display:inline;fill:none;fill-opacity:1;fill-rule:evenodd;stroke:#ff0000;stroke-width:1;stroke-dasharray:none;stroke-opacity:1"
     d="m 142.76782,52.080534 -4.77,1.4913 -3.188,2.5884 -2.02,3.4822 -1.268,4.1725 -0.701,5.198 0.217,5.2231 1.068,5.0448 1.852,4.663 4.401,5.9877 5.144,4.3638 -0.735,-4.6328 -0.9,-14.6279 z"
     id="right_ear" />
  <path
     id="Head"
     style="display:inline;fill:none;fill-opacity:1;fill-rule:evenodd;stroke:#ff0000;stroke-width:1;stroke-dasharray:none;stroke-opacity:1"
     d="m 149.58416,31.994819 -2.99221,26.224793 H 249.77461 L 246.78542,31.994819 240.23604,18.217319 228.88492,8.3763705 214.33698,2.4719746 198.18414,0.50369838 182.0313,2.4719746 167.48206,8.3763705 156.13225,18.217319 Z" />
  <path
     id="Neck"
     style="display:inline;opacity:1;fill:none;fill-opacity:1;fill-rule:evenodd;stroke:#ff0000;stroke-width:1;stroke-linecap:butt;stroke-linejoin:round;stroke-dasharray:none;stroke-opacity:1;paint-order:markers stroke fill"
     d="m 167.9047,139.56738 -0.59178,28.10915 -3.69517,5.32732 -7.32847,4.42668 -21.24008,7.40245 30.37158,12.42826 32.76336,4.14333 32.7599,-4.1429 30.37635,-12.42869 -21.24008,-7.40245 -7.33237,-4.42668 -3.69431,-5.32732 -0.59264,-28.10915 -4.9142,3.7752 -7.36265,4.48421 -18,5.63489 -18.00432,-5.63489 -7.35746,-4.48421 z" />
  <path
     style="display:inline;fill:none;fill-opacity:1;fill-rule:evenodd;stroke:#ff0000;stroke-width:1;stroke-linecap:butt;stroke-linejoin:round;stroke-dasharray:none;stroke-opacity:1;paint-order:markers stroke fill"
     d="m 95.140775,951.60503 -0.599135,6.50612 -11.213118,18.55371 -11.955439,17.71881 -7.878729,9.07133 -3.093438,4.7153 0.941745,7.5054 7.218166,4.1139 14.1067,2.7642 26.603303,1.5227 12.17996,0.2682 7.18529,-1.6827 8.05738,-5.2473 3.18645,-7.3064 -0.91968,-10.70228 -4.64989,-30.76135 0.0134,-17.03964 z"
     id="right_foot" />
  <path
     style="display:inline;fill:none;fill-opacity:1;fill-rule:evenodd;stroke:#ff0000;stroke-width:1;stroke-linecap:butt;stroke-linejoin:round;stroke-dasharray:none;stroke-opacity:1;paint-order:markers stroke fill"
     d="m 285.37282,430.74883 5.205,13.204 4.195,16.257 2.817,15.847 1.584,16.992 0.496,19.692 -0.609,19.572 -1.583,22.683 -4.634,48.437 -4.157,42.088 -0.989,14.748 0.224,8.462 3.527,12.65 4.992,15.691 4.584,18.158 1.553,9.824 0.749,10.224 0.095,21.004 -0.607,22.274 -2.404,47.249 -2.458,48.994 -0.672,48.513 0.882,6.755 1.716,5.334 1.553,4.289 0.395,3.622 -0.287,3.966 h -40.167 l -1.253,-5.833 -0.516,-4.583 0.53,-13.683 -0.808,-20.729 -1.75,-19.437 -5.309,-35.743 -6.039,-32.805 -4.749,-31.351 -1.487,-23.767 -1.136,-20.202 -1.999,-12.643 -4.151,-13.817 -2.919,-12.089 -1.387,-11.505 -0.795,-10.674 -1.14,-9.598 -2.803,-19.282 -3.202,-29.682 -5.65,-38.817 -5.148,-39.463 -0.495,-7.602 -1.407,-8.888 -2.831,-7.413 -2.11,-2.292 -2.658,-0.889 v -83.742 z"
     id="left_leg" />
  <path
     style="display:inline;fill:none;fill-opacity:1;fill-rule:evenodd;stroke:#ff0000;stroke-width:1;stroke-linecap:butt;stroke-linejoin:round;stroke-dasharray:none;stroke-opacity:1;paint-order:markers stroke fill"
     d="m 363.92782,490.82083 2.267,2.475 3.166,2.241 7.164,3.853 2.823,2.011 2.496,2.872 3.899,7.656 10.125,27.916 -0.04,4.431 -1.009,1.81 -1.649,0.635 -4.097,-1.877 -2.561,-3.378 -2,-7.38 -4.108,-6.678 -2.952,-4.005 -1.367,-1.816 -1.704,-0.361 -0.246,1.395 0.471,2.436 3.472,19.134 9.458,39.478 0.084,3.778 -0.846,1.541 -1.625,0.898 -3.259,-0.469 -1.434,-1.072 -0.909,-1.613 -12.148,-39.975 -0.851,-1.066 -1.478,-0.134 -1.159,0.823 -0.209,1.457 4.971,45.073 -1.042,3.443 -3.024,1.873 -1.884,-0.118 -1.547,-0.874 -1.722,-3.244 -5.89,-44.367 -0.445,-1.36 -1.082,-0.426 -1.292,0.721 -0.329,0.645 -1.272,43.743 -1.624,2.579 -3.654,1.3 -1.61,-0.374 -0.973,-1.014 -0.595,-2.79 -0.644,-43.024 -0.134,-1.264 -1.067,-0.522 -1.179,0.264 -0.377,1.102 -6.413,36.366 -1.703,2.379 -2.969,0.831 -1.409,-0.645 -1.013,-1.284 -0.616,-3.181 4.437,-36.045 -0.358,-17.033 0.091,-13.407 0.75,-9.659 3.369,-9.592 0.828,-3.921 z"
     id="left_hand" />
  <path
     style="display:inline;fill:none;fill-opacity:1;fill-rule:evenodd;stroke:#ff0000;stroke-width:1;stroke-linecap:butt;stroke-linejoin:round;stroke-dasharray:none;stroke-opacity:1;paint-order:markers stroke fill"
     d="m 336.74482,287.29683 5.72,82.674 0.888,7.446 1.507,6.595 5.14,20.249 4.071,23.026 2.53,21.745 2.315,19.986 3.424,17.748 -30.871,3.454 -18.615,-61.622 -3.725,-13.095 -1.893,-9.338 -1.372,-14.208 -1.003,-11.731 -11.838,-73.819 -1.71,-9.19 z"
     id="left_arm" />
  <path
     style="display:inline;fill:none;fill-opacity:1;fill-rule:evenodd;stroke:#ff0000;stroke-width:1;stroke-linecap:butt;stroke-linejoin:round;stroke-dasharray:none;stroke-opacity:1;paint-order:markers stroke fill"
     d="m 266.99782,186.43883 19.966,4.997 10.701,3.094 10.161,4.862 8.847,6.86 3.688,4.252 3.069,4.838 3.093,5.964 3.262,8.275 3.124,12.59 2.676,18.908 1.226,21.688 -46.782,10.7 -2.864,-4.901 -2.937,-3.503 -1.124,-9.433 -2.745,-12.132 -4.353,-13.232 -5.948,-12.736 -7.898,-11.966 -8.902,-10.898 -14.648,-15.092 15.85,-6.243 z"
     id="left_shoulder" />
  <path
     style="display:inline;fill:none;fill-opacity:1;fill-rule:evenodd;stroke:#ff0000;stroke-width:1;stroke-dasharray:none;stroke-opacity:1"
     d="m 253.59982,52.080534 4.77,1.4913 3.188,2.5884 2.021,3.4822 1.267,4.1724 0.701,5.1981 -0.217,5.2231 -1.068,5.0448 -1.852,4.663 -4.401,5.9877 -5.144,4.3638 0.735,-4.6328 0.9,-14.6279 z"
     id="left_ear" />
  <path
     style="display:inline;fill:none;fill-opacity:1;fill-rule:evenodd;stroke:#ff0000;stroke-width:1;stroke-linecap:butt;stroke-linejoin:round;stroke-dasharray:none;stroke-opacity:1;paint-order:markers stroke fill"
     d="m 301.22682,951.60383 0.599,6.507 1.4,4.201 2.59,4.59 7.223,9.761 7.41,9.554 2.821,4.33 1.725,3.837 1.367,2.846 1.986,2.294 4.526,3.93297 1.888,2.13 1.205,2.58 0.196,3.28 -1.138,4.23 -2.4,2.23 -4.818,1.88 -14.107,2.77 -15.426,1.42 -11.177,0.1 -12.18,0.27 -7.185,-1.69 -3.913,-2.06 -4.144,-3.18 -2.194,-3.14 -0.993,-4.17 0.034,-5.02 0.886,-5.67997 4.65,-30.763 0.684,-9.29 -0.698,-7.75 z"
     id="left_foot" />
</svg>
