<?xml version="1.0" encoding="UTF-8" standalone="no"?>
<!-- Created with Inkscape (http://www.inkscape.org/) -->

<svg
   width="396.371"
   height="1024.0001"
   viewBox="0 0 396.371 1024.0001"
   version="1.1"
   id="svg1"
   inkscape:version="1.3.2 (091e20e, 2023-11-25, custom)"
   sodipodi:docname="collidersmale.svg"
   inkscape:export-filename="..\..\ButtonColliders\Male.svg"
   inkscape:export-xdpi="96"
   inkscape:export-ydpi="96"
   xmlns:inkscape="http://www.inkscape.org/namespaces/inkscape"
   xmlns:sodipodi="http://sodipodi.sourceforge.net/DTD/sodipodi-0.dtd"
   xmlns="http://www.w3.org/2000/svg"
   xmlns:svg="http://www.w3.org/2000/svg"
   xmlns:rdf="http://www.w3.org/1999/02/22-rdf-syntax-ns#"
   xmlns:cc="http://creativecommons.org/ns#"
   xmlns:dc="http://purl.org/dc/elements/1.1/">
  <defs
     id="defs1">
    <inkscape:path-effect
       effect="fillet_chamfer"
       id="path-effect5"
       is_visible="true"
       lpeversion="1"
       nodesatellites_param="F,0,0,1,0,0,0,1 @ F,0,0,1,0,0,0,1 @ F,0,0,1,0,0,0,1 @ F,0,0,1,0,0,0,1"
       radius="0"
       unit="px"
       method="auto"
       mode="F"
       chamfer_steps="1"
       flexible="false"
       use_knot_distance="true"
       apply_no_radius="true"
       apply_with_radius="true"
       only_selected="false"
       hide_knots="false" />
  </defs>
  <sodipodi:namedview
     id="base"
     pagecolor="#000000"
     bordercolor="#000000"
     borderopacity="0.3"
     inkscape:pageopacity="0.0"
     inkscape:pageshadow="2"
     inkscape:zoom="0.70710682"
     inkscape:cx="68.589354"
     inkscape:cy="457.49806"
     inkscape:document-units="px"
     inkscape:showpageshadow="2"
     inkscape:pagecheckerboard="0"
     inkscape:deskcolor="#d1d1d1"
     inkscape:window-width="1920"
     inkscape:window-height="1027"
     inkscape:window-x="1912"
     inkscape:window-y="-8"
     inkscape:window-maximized="1"
     inkscape:current-layer="svg1"
     inkscape:export-bgcolor="#00000000"
     inkscape:clip-to-page="false" />
  <metadata
     id="metadata1">
    <rdf:RDF>
      <cc:Work
         rdf:about="">
        <dc:format>image/svg+xml</dc:format>
        <dc:type
           rdf:resource="http://purl.org/dc/dcmitype/StillImage" />
      </cc:Work>
    </rdf:RDF>
  </metadata>
  <g
     inkscape:groupmode="layer"
     id="layer3"
     inkscape:label="Selected"
     transform="matrix(4.3258817,0,0,4.3258817,-255.84523,-129.80206)"
     style="display:none"
     sodipodi:insensitive="true">
    <path
       style="fill:#ffffff;fill-opacity:1;fill-rule:evenodd;stroke:none;stroke-width:0.1;stroke-linecap:butt;stroke-linejoin:round;stroke-dasharray:none;stroke-opacity:1;paint-order:markers stroke fill"
       d="m 128.82004,249.88862 c 0.008,0.56103 0.0619,1.05741 0.1385,1.5043 0.41794,2.43909 4.70902,6.20244 5.35574,8.38502 0.58568,1.97652 3.4984,1.97405 2.31872,4.92218 -0.59125,1.47762 -8.86116,2.11356 -11.07942,1.942 -1.68487,-0.1303 -3.71031,0.80769 -6.33915,-1.54047 -0.87901,-0.78515 -0.91056,-2.33013 -0.524,-4.16254 0.41036,-1.94529 0.5778,-4.10357 1.07487,-7.11119 0.25999,-1.57316 0.16281,-2.84096 -0.003,-3.9393 z"
       id="path9"
       inkscape:label="leftFoot"
       inkscape:export-filename="..\..\Textures\ChooseYourOutfit\Body\Male\Selected\Feet.png"
       inkscape:export-xdpi="96"
       inkscape:export-ydpi="96" />
    <path
       style="fill:#ffffff;fill-opacity:1;fill-rule:evenodd;stroke:none;stroke-width:0.1;stroke-linecap:butt;stroke-linejoin:round;stroke-dasharray:none;stroke-opacity:1;paint-order:markers stroke fill"
       d="m 81.093758,249.88862 c -0.0082,0.56103 -0.06192,1.05741 -0.138493,1.5043 -0.41794,2.43909 -4.709023,6.20244 -5.355745,8.38502 -0.585674,1.97652 -3.498399,1.97405 -2.318722,4.92218 0.591253,1.47762 8.861159,2.11356 11.079427,1.942 1.684863,-0.1303 3.71031,0.80769 6.339148,-1.54047 0.879004,-0.78515 0.910555,-2.33013 0.523999,-4.16254 -0.410361,-1.94529 -0.577798,-4.10357 -1.074869,-7.11119 -0.259994,-1.57316 -0.162809,-2.84096 0.0031,-3.9393 z"
       id="path29"
       inkscape:label="rightFoot"
       inkscape:export-filename="..\..\Textures\ChooseYourOutfit\Body\Male\Filled\right_big_toe.png"
       inkscape:export-xdpi="96"
       inkscape:export-ydpi="96" />
    <path
       style="fill:#ffffff;fill-opacity:1;fill-rule:evenodd;stroke:none;stroke-width:0.1;stroke-linecap:butt;stroke-linejoin:round;stroke-dasharray:none;stroke-opacity:1;paint-order:markers stroke fill"
       d="m 105.45708,129.48438 v 19.3584 c 1.07967,0.2308 1.25301,1.28991 1.47368,3.1054 0,0 2.41821,20.94884 4.60663,33.03247 0.50113,2.76708 0.0742,5.39377 1.1739,9.54917 0.84401,3.1893 1.30683,4.35327 1.51071,7.24609 0.0932,1.32211 0.11595,6.84897 0.35759,9.04033 1.02892,9.33108 5.94065,19.5863 4.8405,32.51189 -0.0951,1.11684 -0.18694,2.14038 -0.22214,3.15281 -0.021,0.60431 0.20283,1.41802 0.40906,2.40783 h 9.28505 c 0.0224,-0.30634 0.0144,-0.57394 0.0664,-0.91699 0.15939,-1.05176 -0.92877,-2.30559 -0.83437,-4.64365 0.56277,-13.93534 2.03762,-32.95243 1.43396,-45.44052 -0.22333,-4.62036 -2.96822,-10.61819 -3.37721,-13.81628 -0.38244,-2.99065 1.73729,-25.65 1.48588,-35.27821 -0.17348,-6.64353 -0.59296,-11.97927 -2.11301,-17.21334 -0.17776,-0.61208 -0.504,-1.33951 -0.84791,-2.0954 z"
       id="path32"
       inkscape:export-filename="..\..\Textures\ChooseYourOutfit\Body\Male\Filled\left_femur.png"
       inkscape:export-xdpi="96"
       inkscape:export-ydpi="96"
       inkscape:label="left femur" />
    <path
       style="fill:#ffffff;fill-opacity:1;fill-rule:evenodd;stroke:none;stroke-width:0.1;stroke-linecap:butt;stroke-linejoin:round;stroke-dasharray:none;stroke-opacity:1;paint-order:markers stroke fill"
       d="m 85.207863,129.48438 c -0.343908,0.75589 -0.670152,1.48332 -0.847912,2.0954 -1.520048,5.23407 -1.939529,10.56981 -2.113009,17.21334 -0.251408,9.62821 1.868337,32.28756 1.485879,35.27821 -0.40899,3.19809 -3.153872,9.19592 -3.377202,13.81628 -0.603658,12.48809 0.871188,31.50518 1.433956,45.44052 0.0944,2.33806 -0.993757,3.59189 -0.834367,4.64365 0.052,0.34305 0.04397,0.61065 0.06637,0.91699 h 9.285047 c 0.20623,-0.98981 0.430087,-1.80352 0.409057,-2.40783 -0.0352,-1.01243 -0.127077,-2.03597 -0.222137,-3.15281 -1.100148,-12.92559 3.811567,-23.18081 4.840505,-32.51189 0.24164,-2.19136 0.264416,-7.71822 0.357586,-9.04033 0.20388,-2.89282 0.666703,-4.05679 1.510711,-7.24609 1.099678,-4.1554 0.672764,-6.78209 1.173894,-9.54917 2.188439,-12.08363 4.606629,-33.03247 4.606629,-33.03247 0.22071,-1.81571 0.39411,-2.87478 1.47414,-3.1054 v -19.3584 z"
       id="path12"
       inkscape:export-filename="..\..\Textures\ChooseYourOutfit\Body\Male\Filled\right_femur.png"
       inkscape:export-xdpi="96"
       inkscape:export-ydpi="96"
       inkscape:label="right femur" />
    <path
       style="fill:#ffffff;fill-opacity:1;fill-rule:evenodd;stroke:none;stroke-width:0.1;stroke-linecap:butt;stroke-linejoin:round;stroke-dasharray:none;stroke-opacity:1;paint-order:markers stroke fill"
       d="m 143.47961,143.41192 c 0.5125,0.80083 1.72953,1.48071 2.77554,2.0159 0.91772,0.46954 1.62193,1.49823 2.1022,2.82256 l 2.34043,6.45336 c 0.20214,0.55733 -0.0185,1.64416 -0.62374,1.58956 -0.67537,-0.0609 -1.33664,-0.69155 -1.53892,-1.21491 -0.37946,-0.98169 -0.38681,-1.53057 -0.46251,-1.70584 -0.35592,-0.82411 -1.63194,-2.46962 -1.63194,-2.46962 -0.23237,-0.35171 -0.37348,-0.60002 -0.71003,-0.50332 -0.15239,0.0438 -0.0163,0.52081 0.0522,0.88573 l 0.80253,4.42299 2.18643,9.12605 c 0.15214,0.55811 0.0836,1.2916 -0.5519,1.43712 -0.45103,0.10328 -1.12625,-0.1494 -1.29501,-0.72915 l -2.8081,-9.24078 c -0.0641,-0.23417 -0.281,-0.3307 -0.53847,-0.2775 -0.25835,0.0535 -0.35085,0.27838 -0.31626,0.5271 l 1.14929,10.41952 c 0.063,0.57136 -0.39251,1.14136 -0.94,1.22886 -0.62372,0.0998 -1.09412,-0.38538 -1.19114,-0.97927 l -1.36167,-10.25622 c -0.0437,-0.2689 -0.11304,-0.43199 -0.35295,-0.41289 -0.29677,0.0236 -0.37466,0.31574 -0.37466,0.31574 l -0.29404,10.11205 c -0.0119,0.40854 -0.58288,0.88258 -1.22008,0.89658 -0.60931,0.0134 -0.73814,-0.54713 -0.73484,-0.96583 l -0.14882,-9.94565 c -0.004,-0.25838 0.0142,-0.38329 -0.27751,-0.41289 -0.29167,-0.0296 -0.31538,0.0875 -0.35966,0.31574 0,0 -0.99363,5.81386 -1.4826,8.40672 -0.0778,0.41275 -0.61163,0.80648 -1.08004,0.74208 -0.48912,-0.0672 -0.76986,-0.72823 -0.70228,-1.18133 0.37597,-2.52057 1.02578,-8.3323 1.02578,-8.3323 0,0 -0.25813,-7.41001 0.11162,-9.26972 0.13784,-0.69332 0.62845,-1.89177 0.66869,-2.87373 3.1e-4,-0.008 -0.0337,-0.12904 -0.0346,-0.14159 z"
       id="path13"
       inkscape:label="leftHand"
       inkscape:export-filename="..\..\Textures\ChooseYourOutfit\Body\Male\Selected\left_thumb.png"
       inkscape:export-xdpi="96"
       inkscape:export-ydpi="96" />
    <path
       style="fill:#ffffff;fill-opacity:1;fill-rule:evenodd;stroke:none;stroke-width:0.1;stroke-linecap:butt;stroke-linejoin:round;stroke-dasharray:none;stroke-opacity:1;paint-order:markers stroke fill"
       d="m 66.434188,143.41192 c -0.512496,0.80083 -1.729525,1.48071 -2.775541,2.01591 -0.917719,0.46953 -1.621921,1.49822 -2.102198,2.82255 l -2.340425,6.45336 c -0.202145,0.55733 0.01854,1.64416 0.623734,1.58956 0.675378,-0.0609 1.336641,-0.69155 1.538924,-1.21491 0.379456,-0.98169 0.386805,-1.53057 0.462505,-1.70584 0.355921,-0.82411 1.631941,-2.46962 1.631941,-2.46962 0.232378,-0.35171 0.37348,-0.60002 0.710034,-0.50332 0.15239,0.0438 0.01633,0.52081 -0.05219,0.88573 l -0.802535,4.42299 -2.18643,9.12605 c -0.15214,0.55811 -0.08359,1.2916 0.551905,1.43712 0.451025,0.10328 1.126252,-0.1494 1.295011,-0.72915 l 2.808097,-9.24078 c 0.06405,-0.23417 0.281001,-0.3307 0.538469,-0.2775 0.258352,0.0535 0.35085,0.27838 0.31626,0.5271 l -1.149284,10.41952 c -0.063,0.57136 0.392511,1.14136 0.939994,1.22886 0.62372,0.0998 1.094122,-0.38538 1.191142,-0.97927 l 1.361674,-10.25622 c 0.04369,-0.2689 0.113037,-0.43199 0.35295,-0.41289 0.296769,0.0236 0.374654,0.31574 0.374654,0.31574 l 0.294039,10.11205 c 0.01188,0.40854 0.582888,0.88258 1.22008,0.89658 0.609318,0.0135 0.738139,-0.54713 0.734839,-0.96583 l 0.148828,-9.94565 c 0.0039,-0.25838 -0.01417,-0.38329 0.277503,-0.41289 0.29167,-0.0296 0.315388,0.0874 0.359668,0.31574 0,0 0.993627,5.81386 1.482597,8.40672 0.07784,0.41275 0.611633,0.80648 1.080037,0.74208 0.489126,-0.0672 0.769863,-0.72823 0.702284,-1.18133 -0.375977,-2.52057 -1.025777,-8.3323 -1.025777,-8.3323 0,0 0.258126,-7.41001 -0.111621,-9.26972 -0.137842,-0.69332 -0.628451,-1.89177 -0.668694,-2.87373 -3.06e-4,-0.008 0.03369,-0.12904 0.03462,-0.14159 z"
       id="path28"
       inkscape:label="rightHand"
       inkscape:export-filename="..\..\Textures\ChooseYourOutfit\Body\Male\Selected\right_thumb.png"
       inkscape:export-xdpi="96"
       inkscape:export-ydpi="96" />
    <path
       style="fill:#ffffff;fill-opacity:1;fill-rule:evenodd;stroke:none;stroke-width:0.1;stroke-linecap:butt;stroke-linejoin:round;stroke-dasharray:none;stroke-opacity:1;paint-order:markers stroke fill"
       d="m 138.11405,96.090259 c 0.22721,5.719551 0.56802,14.298871 0.68162,17.158651 0.11361,2.85978 1.24942,4.72988 1.90326,9.61709 0.97652,7.29923 1.13737,14.54277 2.41843,19.57802 l -7.69462,0.79323 c -4.45298,-14.99943 -5.06211,-17.15517 -5.50892,-20.07525 -0.33876,-2.21391 -0.0877,-4.71892 -0.28063,-6.17414 -1.33932,-10.10296 -1.94184,-14.45511 -2.08645,-18.431085 z"
       id="path14"
       inkscape:label="leftArm"
       sodipodi:nodetypes="cssccsscc"
       inkscape:export-filename="..\..\Textures\ChooseYourOutfit\Body\Male\Selected\left_humerus.png"
       inkscape:export-xdpi="96"
       inkscape:export-ydpi="96" />
    <path
       style="fill:#ffffff;fill-opacity:1;fill-rule:evenodd;stroke:none;stroke-width:0.1;stroke-linecap:butt;stroke-linejoin:round;stroke-dasharray:none;stroke-opacity:1;paint-order:markers stroke fill"
       d="m 71.799752,96.090259 c -0.227207,5.719551 -0.568018,14.298871 -0.681622,17.158651 -0.113604,2.85978 -1.249422,4.72988 -1.903254,9.61709 -0.976523,7.29923 -1.137373,14.54277 -2.418436,19.57802 l 7.69462,0.79323 c 4.45298,-14.99943 5.062109,-17.15517 5.508922,-20.07525 0.338758,-2.21391 0.08772,-4.71892 0.280633,-6.17414 1.33932,-10.10296 1.941839,-14.45511 2.086451,-18.431085 z"
       id="path25"
       inkscape:label="rightArm"
       sodipodi:nodetypes="cssccsscc"
       inkscape:export-filename="..\..\Textures\ChooseYourOutfit\Body\Male\Selected\left_humerus.png"
       inkscape:export-xdpi="96"
       inkscape:export-ydpi="96" />
    <path
       style="fill:#ffffff;fill-opacity:1;fill-rule:evenodd;stroke:none;stroke-width:0.1;stroke-linecap:butt;stroke-linejoin:round;stroke-dasharray:none;stroke-opacity:1;paint-order:markers stroke fill"
       d="m 120.90735,73.007947 c 1.90479,0.521417 3.85127,0.96792 5.54023,1.328601 3.30185,0.705108 6.62417,2.56283 8.60309,5.555216 1.0397,1.572164 2.14722,3.618064 2.87114,10.625708 l 0.1571,4.554761 -10.98073,2.561601 c -0.38826,-0.707639 -0.79841,-1.278514 -1.20922,-1.554944 -0.61511,-2.24077 -2.19669,-7.575459 -4.27416,-11.260295 -2.12156,-3.763018 -5.81171,-7.406535 -7.26984,-8.774141 2.6908,-0.857047 4.89275,-1.979153 6.56239,-3.036507 z"
       id="path15"
       inkscape:label="leftShoulder"
       inkscape:export-filename="..\..\Textures\ChooseYourOutfit\Body\Male\Selected\left_shoulder.png"
       inkscape:export-xdpi="96"
       inkscape:export-ydpi="96" />
    <path
       style="fill:#ffffff;fill-opacity:1;fill-rule:evenodd;stroke:none;stroke-width:0.1;stroke-linecap:butt;stroke-linejoin:round;stroke-dasharray:none;stroke-opacity:1;paint-order:markers stroke fill"
       d="m 89.006453,73.007947 c -1.904791,0.521417 -3.851269,0.96792 -5.54023,1.328601 -3.301851,0.705108 -6.62417,2.56283 -8.603092,5.555216 -1.0397,1.572164 -2.14722,3.618064 -2.871143,10.625708 l -0.157096,4.554761 10.980725,2.561601 c 0.388262,-0.707639 0.798411,-1.278514 1.209228,-1.554944 0.615111,-2.24077 2.196684,-7.575459 4.274158,-11.260295 2.121556,-3.763018 5.811704,-7.406535 7.269841,-8.774141 -2.690803,-0.857047 -4.892751,-1.979153 -6.562391,-3.036507 z"
       id="path23"
       inkscape:label="rightShoulder"
       inkscape:export-filename="..\..\Textures\ChooseYourOutfit\Body\Male\Selected\right_shoulder.png"
       inkscape:export-xdpi="96"
       inkscape:export-ydpi="96" />
    <path
       id="path36"
       style="fill:#ffffff;fill-opacity:1;fill-rule:evenodd;stroke:none;stroke-width:0.1;stroke-linecap:butt;stroke-linejoin:round;stroke-dasharray:none;stroke-opacity:1;paint-order:markers stroke fill"
       inkscape:label="utility"
       d="m 86.971864,121.94346 c -0.1052,1.16773 -0.22049,2.33559 -0.343589,3.4675 -0.105956,0.97427 -0.522339,2.04048 -0.976138,3.07335 H 124.2615 c -0.4538,-1.03287 -0.87019,-2.09908 -0.97614,-3.07335 -0.1231,-1.13191 -0.23839,-2.29977 -0.34359,-3.4675 z"
       sodipodi:nodetypes="csccscc"
       inkscape:export-filename="..\..\Textures\ChooseYourOutfit\Body\Male\Selected\Waist.png"
       inkscape:export-xdpi="96"
       inkscape:export-ydpi="96" />
    <path
       id="path37"
       style="fill:#ffffff;fill-opacity:1;fill-rule:evenodd;stroke:none;stroke-width:0.1;stroke-linecap:butt;stroke-linejoin:round;stroke-dasharray:none;stroke-opacity:1;paint-order:markers stroke fill"
       inkscape:label="torso"
       d="m 96.698024,76.361174 c -0.863985,0.790545 -5.245157,4.897753 -7.52827,8.947327 -2.258893,4.006617 -3.954782,10.180069 -4.324895,11.578654 0.204559,1.241396 1.503976,9.118405 2.209629,13.669995 0.442408,2.85358 0.309469,6.60918 -4.51e-4,10.38625 H 122.8596 c -0.30992,-3.77707 -0.44286,-7.53267 -4.5e-4,-10.38625 0.70565,-4.55159 2.00507,-12.428599 2.20963,-13.669995 -0.37011,-1.398585 -2.066,-7.572037 -4.3249,-11.578654 -2.28312,-4.049574 -6.66429,-8.156782 -7.52827,-8.947327 -5.38509,1.487946 -11.07003,1.50521 -16.517586,0 z"
       sodipodi:nodetypes="cscsccscscc"
       inkscape:export-filename="..\..\Textures\ChooseYourOutfit\Body\Male\Selected\Torso.png"
       inkscape:export-xdpi="96"
       inkscape:export-ydpi="96" />
    <path
       id="path30"
       style="opacity:1;fill:#ffffff;fill-opacity:1;fill-rule:evenodd;stroke:none;stroke-width:0.100095;stroke-linecap:butt;stroke-linejoin:round;stroke-dasharray:none;stroke-opacity:1;paint-order:markers stroke fill"
       inkscape:label="neck"
       d="m 97.582508,61.959756 c 0.253622,1.785551 0.487052,4.474249 -9.03e-4,6.36431 -0.468102,1.813017 -3.645267,3.224608 -7.262338,4.312704 3.234448,1.888594 8.192192,3.840319 14.637553,3.849017 6.44536,-0.0087 11.40355,-1.960423 14.638,-3.849017 -3.61708,-1.088096 -6.79469,-2.499687 -7.26279,-4.312704 -0.48795,-1.890061 -0.25453,-4.578759 -9e-4,-6.36431 -0.41931,0.370796 -0.89431,0.766554 -1.42312,1.155382 -1.52505,1.12136 -3.51636,2.203694 -5.9083,2.40874 l -0.0429,0.0036 -0.0429,-0.0036 c -2.39194,-0.205046 -4.38281,-1.28738 -5.90785,-2.40874 -0.52881,-0.388828 -1.00427,-0.784586 -1.423572,-1.155382 z"
       inkscape:export-filename="..\..\Textures\ChooseYourOutfit\Body\Male\Selected\Neck.png"
       inkscape:export-xdpi="96"
       inkscape:export-ydpi="96" />
    <path
       id="path3"
       style="display:inline;fill:#ffffff;fill-opacity:1;fill-rule:evenodd;stroke-width:0.270643;stroke-dasharray:none"
       inkscape:label="jaws"
       d="m 92.970824,50.830517 c 0.715348,4.718583 2.628678,7.923851 3.816307,9.020637 1.31189,1.211545 4.217829,4.332736 8.212409,4.675168 3.99461,-0.342432 6.90053,-3.463623 8.21242,-4.675168 1.18764,-1.096786 3.10148,-4.302054 3.81682,-9.020637 z"
       sodipodi:nodetypes="cscscc"
       inkscape:export-filename="..\..\Textures\ChooseYourOutfit\Body\Male\Selected\Jaw.png"
       inkscape:export-xdpi="96"
       inkscape:export-ydpi="96" />
    <path
       id="path19"
       style="display:inline;fill:#ffffff;fill-opacity:1;fill-rule:evenodd;stroke-width:0.270643;stroke-dasharray:none"
       inkscape:label="eyes"
       d="m 92.982711,44.20043 c -0.213806,1.815199 -0.227376,1.103243 -0.227376,3.046843 0,0.930684 0.0427,1.796401 0.114206,2.61276 H 117.0443 c 0.0715,-0.816359 0.11419,-1.682076 0.11419,-2.61276 0,-1.9436 -0.0136,-1.231644 -0.22738,-3.046843 z"
       sodipodi:nodetypes="csccscc"
       inkscape:export-filename="..\..\Textures\ChooseYourOutfit\Body\Male\Selected\Eye.png"
       inkscape:export-xdpi="96"
       inkscape:export-ydpi="96" />
    <path
       style="display:inline;fill:#ffffff;fill-opacity:1;fill-rule:evenodd;stroke-width:0.242182"
       d="m 117.74819,41.724087 c 0.20373,1.893562 0.29318,2.257282 0.30928,5.406684 0.005,0.947443 -0.075,1.953643 -0.19821,3.265681 v 0.0077 l -9e-4,0.0077 c -0.0464,0.378353 -0.10007,0.739382 -0.15667,1.092624 0.75092,-0.53506 1.56137,-1.379008 2.08366,-2.414609 0.68463,-1.357476 0.9277,-3.075755 0.56302,-4.653133 -0.3171,-1.371548 -0.8429,-2.442907 -2.59972,-2.712598 z"
       id="path33"
       inkscape:label="left ear"
       inkscape:export-filename="..\..\Textures\ChooseYourOutfit\Body\Male\Filled\left_ear.png"
       inkscape:export-xdpi="96"
       inkscape:export-ydpi="96" />
    <path
       style="display:inline;fill:#ffffff;fill-opacity:1;fill-rule:evenodd;stroke-width:0.242182"
       d="m 92.164989,41.724087 c -1.756833,0.269691 -2.282629,1.34105 -2.599723,2.712598 -0.364684,1.577378 -0.121615,3.295657 0.563018,4.653133 0.522292,1.035601 1.332752,1.879549 2.083661,2.414609 -0.05655,-0.353242 -0.11025,-0.714271 -0.15667,-1.092624 l -0.0014,-0.0077 v -0.0077 c -0.123203,-1.312038 -0.20306,-2.318238 -0.198208,-3.265681 0.01614,-3.149402 0.105542,-3.513122 0.309276,-5.406684 z"
       id="path18"
       inkscape:export-filename="..\..\Textures\ChooseYourOutfit\Body\Male\Filled\right_ear.png"
       inkscape:export-xdpi="96"
       inkscape:export-ydpi="96"
       inkscape:label="right ear" />
    <path
       id="path7"
       style="display:inline;fill:#ffffff;fill-opacity:1;fill-rule:evenodd;stroke-width:0.245959;stroke-dasharray:none"
       inkscape:label="head"
       d="m 104.9997,30.004397 c -5.365637,0 -9.940219,2.575292 -11.313093,7.214546 -0.409545,1.383948 -0.732068,4.557206 -0.655129,6.011292 h 23.936452 c 0.0769,-1.454086 -0.24558,-4.627344 -0.65514,-6.011292 -1.37286,-4.639254 -5.94744,-7.214546 -11.31309,-7.214546 z"
       sodipodi:nodetypes="ssccss"
       inkscape:export-filename="..\..\Textures\ChooseYourOutfit\Body\Male\Selected\Head.png"
       inkscape:export-xdpi="96"
       inkscape:export-ydpi="96" />
  </g>
  <g
     inkscape:groupmode="layer"
     id="layer1"
     inkscape:label="UnSelected"
     style="display:none"
     sodipodi:insensitive="true">
    <path
       id="path27"
       style="display:inline;fill:#cccccc;fill-opacity:1;fill-rule:evenodd;stroke-width:1.06399;stroke-dasharray:none"
       inkscape:label="head"
       d="m 197.53516,6.0039062 c -1.79199,0.011328 -3.59108,0.1016565 -5.29297,0.2597657 -0.45147,0.054301 -1.08341,0.1061393 -1.61115,0.178661 -9.59687,1.182026 -19.12341,4.8229071 -26.26581,11.4814951 -4.61495,4.343816 -8.02211,10.009547 -9.43846,16.205577 -1.41779,5.582022 -1.86956,11.34618 -2.23927,17.075673 30.43815,0 60.8763,0 91.31445,0 -0.13581,-2.779483 -0.31774,-5.5579 -0.625,-8.324219 -0.0811,-0.688186 -0.20073,-1.666592 -0.31928,-2.468646 -0.92663,-6.522146 -2.82783,-13.130817 -6.9792,-18.370441 C 230.29461,14.515119 221.51721,9.7611659 212.40039,7.5566406 207.53769,6.4201675 202.52447,5.9549601 197.53516,6.0039062 Z" />
    <path
       id="path1"
       style="fill:#cccccc;fill-opacity:1;fill-rule:evenodd;stroke:none;stroke-width:0.432588;stroke-linecap:butt;stroke-linejoin:round;stroke-dasharray:none;stroke-opacity:1;paint-order:markers stroke fill"
       inkscape:label="leftFoot"
       d="m 268.87109,957.27539 c 0.40129,10.07769 -2.25941,19.90676 -3.30108,29.86419 -0.31303,3.37505 -0.85231,6.7218 -1.56466,10.03473 -0.83456,4.34189 -1.82727,8.80659 -1.11753,13.23649 0.38122,2.009 2.17966,3.3254 3.79719,4.3639 2.22116,1.2769 4.52826,2.5735 7.10532,2.9294 5.33834,0.7816 10.52694,-0.4329 15.92061,-0.034 2.58091,0.1537 5.15872,-0.042 7.69071,-0.1163 6.91183,-0.2919 13.82062,-0.9087 20.63351,-2.1342 0.40289,-0.083 1.17884,-0.2279 1.72453,-0.3346 1.54576,-0.3004 3.35699,-0.7058 5.00599,-1.1206 1.68427,-0.5303 3.55317,-0.6977 5.03705,-1.7186 0.70008,-0.4934 0.41696,-1.4655 0.64258,-2.1856 -0.0795,-1.5694 -1.49973,-2.5814 -2.5332,-3.5917 -2.65408,-2.2407 -5.53369,-4.4445 -7.06925,-7.65682 -1.66265,-3.05011 -2.52167,-6.57039 -4.87839,-9.21151 -0.83271,-1.18763 -1.70296,-2.38334 -2.52788,-3.45568 -5.4174,-7.05456 -11.62363,-13.66877 -15.40958,-21.81631 -1.0796,-2.25031 -1.88773,-4.64841 -2.15396,-7.13903 -9.00196,0 -18.00391,0 -27.00586,0 z" />
    <path
       id="path5"
       style="display:inline;fill:#d4d4d4;fill-opacity:1;fill-rule:evenodd;stroke:none;stroke-width:0.432999;stroke-linecap:butt;stroke-linejoin:round;stroke-dasharray:none;stroke-opacity:1;paint-order:markers stroke fill"
       inkscape:label="leftHand"
       d="m 355.97852,496.02148 c -6.92443,0.71954 -13.85091,1.41957 -20.7754,2.13868 -0.9295,5.36033 -3.27529,10.49734 -3.11529,16.02249 -0.41926,11.26215 0.14634,22.53044 -0.0106,33.79427 -0.21019,4.81489 -1.00181,9.57745 -1.5265,14.36292 0.94506,-5.42958 1.83685,-10.88015 3.14453,-16.23437 1.06396,-2.77473 4.59863,-3.84364 7.2441,-2.82527 2.60509,0.8688 4.24448,3.73153 3.86138,6.42204 -0.11142,4.7296 0.14759,9.45815 0.14978,14.18809 0.0823,5.44736 0.14032,10.89512 0.2467,16.34209 0.31607,-10.3991 0.47369,-20.80734 1.08108,-31.19436 -0.0102,-1.47671 0.30922,-3.03664 1.40465,-4.10719 2.32391,-2.49882 6.81043,-2.63542 9.07896,0.0123 1.68247,1.87163 1.4961,4.55441 1.85195,6.88431 1.19171,8.16157 2.16155,16.3562 3.27198,24.52995 0.71898,5.37705 1.46294,10.73764 2.2977,16.09956 0.10183,-3.78664 -0.92648,-7.5654 -1.12442,-11.28076 -1.13828,-11.74774 -2.80542,-23.4721 -3.62167,-35.26221 0.42384,-3.92451 5.15351,-6.38794 8.70271,-4.89307 2.61586,0.91539 4.09382,3.62957 4.44351,6.24853 2.99733,9.83091 5.9338,19.69409 8.97683,29.50196 -1.79694,-7.45252 -3.66703,-14.88741 -5.38817,-22.35812 -2.16563,-9.20954 -4.08313,-18.48143 -5.56496,-27.82649 -0.72312,-2.61406 -1.32578,-5.63484 0.16211,-8.1064 1.82017,-2.747 6.10923,-2.82657 8.4128,-0.66227 2.19871,1.90404 3.34495,4.66935 5.25382,6.82295 1.29482,1.73687 2.47243,3.56848 3.43494,5.51119 -2.68679,-7.48718 -5.11882,-15.08059 -8.57993,-22.2499 -1.95948,-3.42365 -5.59855,-5.31218 -8.96474,-7.08552 -2.71118,-1.49808 -5.32072,-3.25815 -7.4397,-5.53762 -2.30274,0.24739 -4.60547,0.49479 -6.9082,0.74218 z m 33.89453,39.65625 c 0.26797,1.6087 0.54512,3.30359 1.62432,4.5996 0.31897,0.40869 -0.15148,-0.7089 -0.1938,-0.90033 -0.50532,-1.26685 -0.99588,-2.53951 -1.45982,-3.82231 l 0.0232,0.0973 z" />
    <path
       id="path6"
       style="display:inline;fill:#d4d4d4;fill-opacity:1;fill-rule:evenodd;stroke:none;stroke-width:0.432999;stroke-linecap:butt;stroke-linejoin:round;stroke-dasharray:none;stroke-opacity:1;paint-order:markers stroke fill"
       inkscape:label="rightHand"
       d="m 33.388672,495.45898 c -3.887416,4.16252 -9.493114,6.03259 -13.895792,9.44474 -2.801896,2.49503 -3.878733,6.22539 -5.32303,9.558 -1.873706,4.81309 -3.534089,9.70426 -5.2303969,14.58125 1.0248754,-1.80628 2.4415259,-3.34743 3.5358489,-5.11138 1.780642,-2.59235 3.568637,-5.32198 6.189455,-7.14365 3.022717,-1.75024 7.344237,0.44667 7.819653,3.88355 0.427787,2.61493 -0.704218,5.12828 -0.998935,7.69498 -2.264544,13.27281 -5.22626,26.439 -8.512549,39.50194 -0.701817,2.9021 -1.409948,5.80282 -2.107692,8.70581 3.518141,-11.03528 6.49302,-22.24767 10.392578,-33.1582 1.80032,-3.07509 6.330463,-3.62859 9.120763,-1.61952 2.295654,1.53371 3.112682,4.57418 2.502284,7.17616 -1.66761,14.54555 -3.316525,29.08835 -4.73951,43.66038 0.03445,0.0949 0.22145,-0.9901 0.296549,-1.34452 0.985086,-6.28031 1.653833,-12.60623 2.553921,-18.89938 1.237142,-8.6169 2.087407,-17.29361 3.705447,-25.85203 1.223046,-3.54945 6.268374,-4.68893 9.079051,-2.33482 2.095149,1.54461 2.969704,4.30796 2.593145,6.82595 0.0904,5.6572 0.315862,11.32161 0.458237,16.98158 0.112421,4.02371 0.242598,8.04687 0.36566,12.07026 0.166783,-11.01308 0.177543,-22.03423 0.705079,-33.03711 0.713615,-3.22263 4.627956,-4.88975 7.606287,-3.82101 2.443098,0.77235 3.939086,3.29236 4.059737,5.76663 0.657343,4.50163 1.516683,9.00999 2.275382,13.52703 -1.094702,-8.09726 -2.001654,-16.26938 -1.568193,-24.45228 0.174969,-10.18486 0.628507,-20.41815 -0.75833,-30.52031 -0.654451,-3.16682 -1.868757,-6.19418 -2.401993,-9.38873 -9.196614,-0.94727 -18.393229,-1.89453 -27.589844,-2.8418 l -0.06717,0.0741 z M 6.53125,535.63477 c -0.6539697,1.54282 -1.4062306,3.06774 -1.7363281,4.72265 1.16917,-1.52237 1.4884195,-3.4696 1.9667969,-5.2793 -0.076823,0.18555 -0.1536459,0.3711 -0.2304688,0.55665 z" />
    <path
       id="path2"
       style="fill:#cccccc;fill-opacity:1;fill-rule:evenodd;stroke:none;stroke-width:0.432588;stroke-linecap:butt;stroke-linejoin:round;stroke-dasharray:none;stroke-opacity:1;paint-order:markers stroke fill"
       inkscape:label="rightFoot"
       d="m 100.51953,957.24023 c -1.013761,6.62603 -4.68765,12.45393 -8.751427,17.63946 -3.37838,4.40648 -6.885752,8.71367 -10.232345,13.14464 -2.408128,3.26091 -4.528574,6.77791 -5.846305,10.62801 -1.680656,3.69206 -5.212618,5.92656 -8.101562,8.57816 -1.07047,0.9617 -1.987006,2.4113 -1.521794,3.8989 0.128855,0.7345 0.558515,1.5783 1.404606,1.6011 11.430719,3.7214 23.533304,4.5134 35.466347,4.9794 4.27689,0 8.5562,-0.1191 12.83053,0.1046 2.59503,0.089 5.23685,0.3916 7.78007,-0.3082 3.65867,-0.8665 7.0754,-2.8734 9.48165,-5.7797 1.42756,-3.7993 0.56364,-7.9265 -0.17947,-11.7748 -0.82607,-3.7083 -1.32975,-7.4743 -1.79168,-11.24151 -1.2171,-9.04823 -2.93035,-18.06564 -3.58398,-27.20184 -0.0553,-1.43914 -0.0347,-2.88066 0.0336,-4.319 -8.99414,0 -17.98828,0 -26.98242,0 z" />
    <path
       id="path4"
       style="display:inline;fill:#cccccc;fill-opacity:1;fill-rule:evenodd;stroke:none;stroke-width:0.432588;stroke-linecap:butt;stroke-linejoin:round;stroke-dasharray:none;stroke-opacity:1;paint-order:markers stroke fill"
       inkscape:label="left femur"
       d="m 279.39648,436.3418 c -20.8086,-0.0318 -41.62621,-0.003 -62.43828,-0.012 -3.53685,1e-4 -7.07369,2e-4 -10.61054,3e-4 0,24.70508 0,49.41015 0,74.11523 3.53871,2.70916 5.14565,7.19284 5.5993,11.49281 1.49268,9.92382 2.45785,19.91679 3.78929,29.86226 4.92941,40.1295 10.40169,80.19787 17.15242,120.05704 1.35611,10.94922 1.13786,22.09341 3.35973,32.9226 1.1911,6.01754 3.24226,11.81509 4.63528,17.78335 2.20594,8.90296 3.70267,18.03389 3.6517,27.22788 0.41046,16.3042 0.37643,32.75219 3.98509,48.74611 5.70767,26.77859 13.73106,53.17329 17.18394,80.42362 1.89148,14.93377 2.1861,30.06178 0.95587,45.06315 -0.30893,4.69056 -0.75338,9.36408 -0.73199,14.06871 0.10659,0.93956 0.30731,1.86434 0.49554,2.78997 9.80012,-0.0156 19.60025,-0.0274 29.40039,-0.0351 -0.72657,-3.5575 -2.49055,-6.84521 -2.82897,-10.4935 -1.22192,-7.89877 -0.0668,-15.88107 0.15036,-23.80809 1.18522,-25.5924 2.61569,-51.17251 3.86967,-76.76147 1.57617,-32.9285 2.71507,-65.90928 1.82369,-98.8759 -0.36555,-9.09212 -1.88673,-18.13842 -4.50174,-26.8773 -3.42797,-12.22096 -8.18271,-24.13247 -10.16961,-36.72796 -0.49082,-4.52645 -0.18238,-9.08683 -0.14582,-13.62746 0.42579,-15.16663 1.73513,-30.28149 2.47815,-45.42784 1.90503,-32.19016 4.36387,-64.40088 3.82356,-96.67132 -0.62246,-18.43327 -1.48443,-36.95074 -5.08423,-55.06351 -1.37655,-6.85009 -3.05818,-13.64482 -5.52053,-20.19886 -0.10742,0.009 -0.21484,0.0182 -0.32227,0.0273 z" />
    <path
       id="path26"
       style="display:inline;fill:#cccccc;fill-opacity:1;fill-rule:evenodd;stroke:none;stroke-width:0.432588;stroke-linecap:butt;stroke-linejoin:round;stroke-dasharray:none;stroke-opacity:1;paint-order:markers stroke fill"
       inkscape:label="right femur"
       d="m 179.67188,436.33008 c -20.99805,0 -41.9961,0 -62.99415,0 -1.99335,4.90608 -3.25914,10.0679 -4.49943,15.20438 -2.82433,12.34152 -4.15806,24.97841 -5.10062,37.61262 -1.84113,25.68551 -1.16628,51.49307 0.29062,77.18732 1.626,31.00274 4.09284,61.96265 5.12821,92.99507 0.12929,4.34464 -0.15388,8.71365 -1.13865,12.95618 -1.86442,8.91623 -5.20721,17.42206 -7.65965,26.17725 -3.17265,10.52148 -5.920033,21.27136 -6.151174,32.30407 -0.203662,6.88954 -0.230034,13.78332 -0.305911,20.67521 -0.229978,42.39374 2.533945,84.71915 4.601045,127.04175 0.64578,13.58449 1.46263,27.16235 1.89074,40.75616 0.0649,3.41375 0.21669,6.84543 -0.0965,10.24876 -0.58201,3.90778 -2.32206,7.52251 -3.02699,11.40177 5.07448,-0.0494 10.16045,-0.007 15.23945,-0.0235 4.72161,-10e-4 9.44323,-0.003 14.16484,-0.004 0.83351,-4.40938 0.47381,-8.9326 -0.0643,-13.37608 -1.2332,-12.71225 -1.23883,-25.53416 -0.27379,-38.26508 0.98496,-13.03598 3.09483,-25.96804 5.97744,-38.71412 4.60447,-21.14378 10.81445,-41.97133 14.17118,-63.36347 2.40953,-16.00418 1.14281,-32.37452 2.74757,-48.50306 1.22998,-14.11757 6.9157,-27.33307 8.82824,-41.32885 0.89682,-8.01425 0.9143,-16.24346 1.94141,-24.31156 0.78154,-6.8599 2.27368,-13.6095 3.29778,-20.43341 7.09815,-43.75713 12.28745,-87.78925 17.939,-131.75314 0.62763,-3.91867 2.21272,-7.9477 5.45498,-10.42389 -0.0456,-21.7516 9.9e-4,-43.50339 -0.009,-65.25507 5.2e-4,-2.93972 10e-4,-5.87943 0.002,-8.81914 -3.45117,0.005 -6.90234,0.009 -10.35351,0.0137 z" />
    <path
       id="path8"
       style="fill:#cccccc;fill-opacity:1;fill-rule:evenodd;stroke:none;stroke-width:0.432588;stroke-linecap:butt;stroke-linejoin:round;stroke-dasharray:none;stroke-opacity:1;paint-order:markers stroke fill"
       inkscape:label="leftArm"
       d="m 302.17578,301.24219 c 1.55889,24.87879 5.74325,49.44524 8.60566,74.20232 0.34196,2.4042 0.48514,4.82809 0.4404,7.25542 0.0479,4.58326 0.0739,9.30643 0.35433,13.79812 0.10415,1.59666 0.22736,3.1291 0.41212,4.76863 0.40372,3.98917 1.26655,7.90862 2.2661,11.78566 5.51226,22.28846 12.4104,44.16378 18.87759,66.19683 0.40302,1.3636 0.7975,2.7297 1.19614,4.09458 7.21941,-0.74284 14.43881,-1.48568 21.65821,-2.22852 -4.07125,-20.75115 -4.98189,-41.96673 -7.27057,-62.91089 -0.83228,-8.05933 -1.72482,-16.12244 -3.25691,-24.08432 -0.33516,-1.81892 -0.70573,-3.64292 -1.08037,-5.3724 -0.66217,-3.08383 -1.4207,-6.24602 -2.20811,-9.20519 -1.01743,-3.78702 -2.17677,-7.54901 -2.72301,-11.44341 -1.48395,-9.356 -1.14549,-18.89579 -1.66116,-28.27836 -0.61038,-13.27543 -1.06881,-26.5575 -1.62064,-39.83552 -0.0877,-2.20534 -0.17548,-4.41067 -0.26322,-6.616 -11.24218,2.62435 -22.48437,5.2487 -33.72656,7.87305 z" />
    <path
       id="path10"
       style="fill:#cccccc;fill-opacity:1;fill-rule:evenodd;stroke:none;stroke-width:0.432588;stroke-linecap:butt;stroke-linejoin:round;stroke-dasharray:none;stroke-opacity:1;paint-order:markers stroke fill"
       inkscape:label="rightArm"
       d="m 57.796875,360.33203 c -0.535522,10.56931 -4.154701,20.6089 -6.400758,30.868 -0.970077,4.41199 -1.522999,9.02094 -2.167373,13.53921 -3.24253,24.41742 -4.029437,49.15758 -8.277572,73.48146 -0.15676,0.95274 -0.383697,1.98141 -0.501953,2.88868 7.192351,0.77682 14.394167,1.48309 21.589843,2.23632 4.941224,-16.98222 10.190744,-33.87452 14.955079,-50.9082 2.222268,-7.99653 4.38101,-16.119 6.289351,-24.23713 0.414765,-1.94861 0.718418,-3.91856 0.97432,-5.89373 0.03842,-0.39145 0.1342,-1.1932 0.194576,-1.74171 0.278298,-2.66599 0.440178,-5.37984 0.53576,-7.98144 0.182782,-4.42748 0.08225,-8.86117 0.230602,-13.28857 1.651903,-16.61671 4.343116,-33.10884 6.245971,-49.69662 0.600306,-4.99027 1.172776,-9.98408 1.677857,-14.98502 0.150491,-1.60436 0.334594,-3.41693 0.464059,-5.01996 0.236859,-2.80615 0.454927,-5.51724 0.612113,-8.34527 -11.251953,-2.62631 -22.503906,-5.25261 -33.755859,-7.87891 -0.888672,22.32096 -1.777344,44.64193 -2.666016,66.96289 z" />
    <path
       id="path11"
       style="fill:#cccccc;fill-opacity:1;fill-rule:evenodd;stroke:none;stroke-width:0.432588;stroke-linecap:butt;stroke-linejoin:round;stroke-dasharray:none;stroke-opacity:1;paint-order:markers stroke fill"
       inkscape:label="leftShoulder"
       d="m 267.48633,192.86914 c -5.64559,3.3452 -11.62841,6.24809 -17.66016,8.70898 11.2722,11.4723 21.59702,24.11763 28.83317,38.55946 2.79046,5.62401 5.05237,11.49128 7.28446,17.35343 3.06186,8.23904 5.64141,16.64555 8.18511,25.05587 0.98667,0.97132 1.86603,2.04859 2.66015,3.18164 12.84245,-2.9974 25.6849,-5.9948 38.52735,-8.99219 -0.10743,-4.17296 -0.25554,-8.41261 -0.51172,-12.57617 -0.25264,-3.94244 -0.61967,-8.04675 -1.16602,-12.02539 -0.22849,-1.60385 -0.48381,-3.26302 -0.75632,-4.75586 -1.00705,-6.16995 -2.23085,-12.3425 -4.44245,-18.20901 -2.18112,-5.91516 -5.40574,-11.49562 -9.82833,-16.02037 -6.20812,-6.57417 -14.30372,-11.12468 -22.84861,-13.91847 -4.29295,-1.4659 -8.75582,-2.30619 -13.19247,-3.19882 -4.82764,-1.12474 -9.64662,-2.28973 -14.43963,-3.55568 -0.21484,0.13086 -0.42969,0.26172 -0.64453,0.39258 z" />
    <path
       id="path16"
       style="fill:#cccccc;fill-opacity:1;fill-rule:evenodd;stroke:none;stroke-width:0.432588;stroke-linecap:butt;stroke-linejoin:round;stroke-dasharray:none;stroke-opacity:1;paint-order:markers stroke fill"
       inkscape:label="rightShoulder"
       d="m 124.51367,193.45312 c -8.77509,2.39333 -17.85491,3.63966 -26.459228,6.65328 -3.907402,1.35768 -7.623936,3.22169 -11.090605,5.47392 -11.034741,6.87575 -18.779237,18.55525 -21.342075,31.25252 -0.552531,2.28534 -1.069416,4.75095 -1.492856,6.95427 -0.337907,1.83139 -0.63235,3.48351 -0.916605,5.3331 -1.010131,6.46559 -1.623501,13.1327 -1.925192,19.57706 -0.117048,2.57648 -0.168423,5.09668 -0.214843,7.71289 -0.291855,0.73537 0.715878,0.4124 1.144531,0.59179 12.436932,2.92075 24.887674,5.80911 37.330078,8.7168 0.947595,-1.29173 2.261425,-2.34362 2.969265,-3.79127 4.78121,-16.18434 9.90085,-32.44394 18.16025,-47.24621 6.05034,-10.88548 14.0425,-20.54982 22.52629,-29.61245 1.10608,-1.18314 2.23893,-2.34098 3.36568,-3.50437 -6.33618,-2.53643 -12.47367,-5.57143 -18.32227,-9.08984 -1.24414,0.32617 -2.48828,0.65234 -3.73242,0.97851 z" />
    <path
       id="path17"
       style="fill:#cccccc;fill-opacity:1;fill-rule:evenodd;stroke:none;stroke-width:0.432588;stroke-linecap:butt;stroke-linejoin:round;stroke-dasharray:none;stroke-opacity:1;paint-order:markers stroke fill"
       inkscape:label="utility"
       d="m 125.64844,405.79492 c -0.3836,4.78022 -0.89772,9.58483 -2.22461,14.20899 49.83789,0 99.67578,0 149.51367,0 -1.50519,-5.30306 -1.90953,-10.82518 -2.4043,-16.29102 -48.22851,0 -96.45703,0 -144.68554,0 -0.0664,0.69401 -0.13282,1.38802 -0.19922,2.08203 z" />
    <path
       id="path20"
       style="fill:#cccccc;fill-opacity:1;fill-rule:evenodd;stroke:none;stroke-width:0.432588;stroke-linecap:butt;stroke-linejoin:round;stroke-dasharray:none;stroke-opacity:1;paint-order:markers stroke fill"
       inkscape:label="torso"
       d="m 162.42383,208.84961 c -7.04193,6.90349 -13.80949,14.12473 -19.73633,22.01953 -4.66183,6.23977 -8.92436,13.04015 -12.09497,20.24354 -5.31135,12.27963 -9.56462,24.99821 -13.09091,37.89808 -0.36567,1.03811 0.15856,2.11119 0.22801,3.16641 3.25063,20.32582 6.86312,40.59866 9.62657,60.99872 1.00797,11.37937 0.61181,22.82706 -0.17065,34.20692 47.32747,0 94.65494,0 141.98242,0 -1.14904,-16.09515 -1.27566,-32.41996 1.85601,-48.31464 2.60791,-16.31639 5.28191,-32.62249 7.93262,-48.93158 0.19246,-0.95061 -0.39541,-1.84373 -0.5597,-2.76786 -2.19451,-7.74115 -4.55116,-15.44107 -7.29924,-23.00545 -0.45389,-1.1926 -0.96733,-2.62589 -1.47508,-3.89923 -1.2786,-3.31244 -2.66504,-6.58279 -4.14602,-9.80975 -0.59165,-1.27185 -1.29703,-2.74651 -1.96507,-4.08142 -1.39014,-2.74107 -2.81058,-5.47378 -4.49977,-8.04554 -0.80991,-1.26711 -1.76786,-2.70609 -2.68135,-4.00955 -6.98367,-9.99704 -15.37946,-18.91081 -24.14287,-27.35568 -22.20982,5.6085 -45.80929,5.59558 -68.01953,-0.004 -0.58138,0.56381 -1.16276,1.12761 -1.74414,1.69141 z" />
    <path
       id="path21"
       style="opacity:1;fill:#cccccc;fill-opacity:1;fill-rule:evenodd;stroke:none;stroke-width:0.432999;stroke-linecap:butt;stroke-linejoin:round;stroke-dasharray:none;stroke-opacity:1;paint-order:markers stroke fill"
       inkscape:label="neck"
       d="m 221.77734,151.84961 c -7.24548,4.36298 -15.46046,7.46015 -23.98437,7.71289 -3.47203,-0.0978 -6.88842,-0.90149 -10.21211,-1.86268 -4.993,-1.51068 -9.7328,-3.78986 -14.14727,-6.55724 0.2571,6.31671 0.007,12.84417 -2.38443,18.77826 -1.32501,2.76903 -3.47335,5.0585 -5.74512,7.08263 -4.41167,3.79491 -9.77471,6.22422 -15.12435,8.3852 0.7338,0.3125 1.59104,0.66998 2.37155,0.97713 6.64594,2.6734 13.54118,4.71671 20.55618,6.16154 0.59276,0.11898 1.39839,0.2836 2.02677,0.39589 4.01509,0.75987 8.06956,1.30428 12.13925,1.66857 1.07087,0.088 2.45461,0.19486 3.54587,0.25645 9.68062,0.5648 19.42734,0.0177 28.97952,-1.65684 0.57211,-0.10403 1.37887,-0.24409 1.9569,-0.3625 3.7869,-0.7258 7.71581,-1.67224 11.53814,-2.8046 1.76618,-0.52274 3.75345,-1.16007 5.58143,-1.80244 2.08463,-0.7237 4.24388,-1.56456 6.14618,-2.34492 0.35162,-0.21932 1.63572,-0.44972 0.6437,-0.65291 -6.60581,-2.62836 -13.09391,-6.10593 -17.88979,-11.46623 -3.26974,-3.89308 -4.43846,-9.05883 -4.71484,-14.02387 -0.17583,-2.86217 -0.1191,-5.7314 -0.13282,-8.59722 -0.38346,0.23763 -0.76692,0.47526 -1.15039,0.71289 z" />
    <path
       id="path22"
       style="display:inline;fill:#cccccc;fill-opacity:1;fill-rule:evenodd;stroke-width:1.17077;stroke-dasharray:none"
       inkscape:label="jaws"
       d="m 153.72852,96.589844 c 0.35821,1.475093 0.73659,2.990743 1.12904,4.354006 2.28195,8.14643 5.63816,16.18062 11.12545,22.71086 2.44872,2.69032 5.1812,5.1094 7.91482,7.50428 6.11292,5.22919 13.0865,9.85724 21.05184,11.59302 0.84581,0.17794 1.47075,0.29484 2.35306,0.41401 1.92651,0.29885 3.83229,-0.33457 5.70266,-0.71534 7.973,-2.05609 14.90415,-6.87932 20.98233,-12.28623 2.71282,-2.46155 5.41253,-4.96459 7.82231,-7.7249 5.79047,-7.742 9.19499,-16.99461 11.32474,-26.353612 -29.8405,0 -59.68099,-10e-7 -89.52149,0 0.0384,0.167968 0.0768,0.335937 0.11524,0.503906 z" />
    <path
       id="path38"
       style="display:inline;fill:#cccccc;fill-opacity:1;fill-rule:evenodd;stroke-width:1.04765"
       inkscape:label="left ear"
       d="m 258.39453,59.591797 c 0.48993,7.111121 0.61848,14.254618 0.19727,21.373047 3.00696,-5.848071 3.75037,-12.874434 1.86462,-19.105099 -0.54888,-1.649051 -1.12263,-3.368205 -2.25134,-4.71912 0.0632,0.817057 0.1263,1.634115 0.18945,2.451172 z" />
    <path
       id="path39"
       style="display:inline;fill:#cccccc;fill-opacity:1;fill-rule:evenodd;stroke-width:1.04765"
       inkscape:label="right ear"
       d="m 138.03516,57.376953 c -2.1734,2.631132 -2.73514,6.14871 -3.06447,9.441759 -0.1747,2.253622 -0.0672,4.470127 0.29926,6.618333 0.43997,2.627097 1.29939,5.179205 2.51325,7.549283 -0.46937,-7.916557 -0.2909,-15.86552 0.38672,-23.763672 -0.0449,0.05143 -0.0898,0.102865 -0.13476,0.154297 z" />
    <path
       id="path24"
       style="display:inline;fill:#cccccc;fill-opacity:1;fill-rule:evenodd;stroke-width:1.17077;stroke-dasharray:none"
       inkscape:label="eyes"
       d="m 151.59766,68.253906 c -0.32618,3.867489 -0.22809,7.755066 -0.0391,11.626953 31.08789,0 62.17578,0 93.26368,0 0.14703,-3.086413 0.21931,-6.178835 0.10156,-9.267578 -0.0458,-0.946631 -0.11333,-2.156709 -0.21875,-3.203125 -31.00912,0 -62.01823,0 -93.02735,0 -0.0267,0.28125 -0.0534,0.5625 -0.0801,0.84375 z" />
  </g>
  <g
     inkscape:groupmode="layer"
     id="layer24"
     inkscape:label="Colliders"
     style="display:inline;stroke-width:0;stroke-dasharray:none"
     transform="matrix(4.3258817,0,0,4.3258817,4.358568e-4,0)" />
  <path
     id="left_foot"
     style="display:inline;stroke-width:0.231167;stroke-dasharray:none;fill:none;fill-opacity:1;fill-rule:evenodd;stroke:#ff0000;stroke-linecap:butt;stroke-linejoin:miter;stroke-miterlimit:0;stroke-opacity:1"
     inkscape:label="left foot"
     d="m 60.619315,219.88292 0.07946,0.59372 0.07224,0.89938 -0.01355,1.28045 -0.09481,0.9048 -0.805472,5.61121 -0.255999,1.49897 -0.13861,0.69892 -0.139061,1.13281 0.014,0.93008 0.139061,0.69937 0.282186,0.60185 0.446531,0.47814 0.829401,0.62126 0.96485,0.50161 0.804117,0.24832 0.702079,0.10656 0.66325,0.0244 2.04122,-0.0894 1.216786,0.0379 1.821793,-0.0646 4.227371,-0.44924 2.504457,-0.55308 1.030318,-0.43073 0.479039,-0.47136 0.209043,-0.65783 0.05418,-0.84114 -0.213107,-0.65422 -0.434792,-0.56302 -0.989231,-0.86146 -0.579723,-0.61765 -0.302504,-0.54496 -0.302051,-0.77115 -0.631646,-1.04341 -2.419123,-3.13385 -1.533286,-2.23672 -0.532316,-1.38203 -0.138158,-1.50394 z"
     sodipodi:nodetypes="ccccccccccccccccccccccccccccccccccccccc"
     transform="matrix(4.3258817,0,0,4.3258817,4.358568e-4,0)" />
  <path
     id="right_foot"
     style="display:inline;stroke-width:0.231167;stroke-dasharray:none;fill:none;fill-opacity:1;fill-rule:evenodd;stroke:#ff0000;stroke-linecap:butt;stroke-linejoin:miter;stroke-miterlimit:0;stroke-opacity:1"
     inkscape:label="right foot"
     d="m 31.008751,219.88247 -9.057944,4.5e-4 -0.138609,1.50394 -0.532316,1.38203 -1.532834,2.23627 -2.419124,3.1343 -0.632097,1.04296 -0.3016,0.7716 -0.302503,0.54451 -0.579723,0.6181 -0.989231,0.86146 -0.435244,0.56302 -0.212655,0.65422 0.05418,0.84114 0.208592,0.65783 0.479039,0.47091 1.030769,0.43118 2.504457,0.55308 4.22692,0.44924 1.822244,0.0641 1.216786,-0.0375 2.040769,0.0894 0.663701,-0.0244 0.702079,-0.10656 0.804117,-0.24832 0.96485,-0.50161 0.82895,-0.62126 0.446531,-0.47814 0.282186,-0.60185 0.139061,-0.69937 0.01445,-0.93008 -0.139061,-1.13281 -0.13861,-0.69892 -0.255999,-1.49942 -0.805472,-5.61076 -0.09527,-0.9048 -0.01355,-1.28045 0.07269,-0.89938 z"
     sodipodi:nodetypes="ccccccccccccccccccccccccccccccccccccccc"
     transform="matrix(4.3258817,0,0,4.3258817,4.358568e-4,0)" />
  <path
     id="right_leg"
     style="display:inline;stroke-width:0.231167;stroke-dasharray:none;fill:none;fill-opacity:1;fill-rule:evenodd;stroke:#ff0000;stroke-linecap:butt;stroke-linejoin:miter;stroke-miterlimit:0;stroke-opacity:1"
     inkscape:label="right leg"
     d="m 26.065304,99.478456 -1.535543,4.794454 -1.064179,7.31923 -0.381967,9.05704 0.484908,12.80943 1.056504,18.60712 -0.03522,2.00013 -2.343723,8.34729 -0.859652,3.79935 -0.297085,5.71235 0.07856,9.35232 1.478655,32.04549 -0.05147,1.17705 -0.358489,1.53013 -0.371582,1.19105 -0.05283,0.74542 0.06637,0.91474 9.285047,0.002 0.348104,-1.67054 0.06095,-0.73684 -0.353974,-5.36018 0.02167,-3.72982 0.846558,-7.34361 3.624623,-16.04938 0.47949,-3.18216 0.211301,-4.00117 0.146285,-5.03916 0.398672,-2.98711 1.414542,-5.53626 0.479039,-3.56819 0.392352,-4.7037 1.127389,-6.81174 2.745105,-20.13228 1.035284,-7.64521 0.450143,-1.20821 0.722859,-0.34063 v -19.3584 z"
     sodipodi:nodetypes="cccccccccccccccccccccccccccccccccccccc"
     transform="matrix(4.3258817,0,0,4.3258817,4.358568e-4,0)" />
  <path
     id="left_leg"
     style="display:inline;stroke-width:0.231167;stroke-dasharray:none;fill:none;fill-opacity:1;fill-rule:evenodd;stroke:#ff0000;stroke-linecap:butt;stroke-linejoin:miter;stroke-miterlimit:0;stroke-opacity:1"
     inkscape:label="left leg"
     d="m 46.31407,118.83686 0.722382,0.34063 0.450143,1.20821 1.035284,7.64521 2.745105,20.13228 1.127389,6.81174 0.392352,4.7037 0.479038,3.56819 1.414542,5.53626 0.398673,2.98711 0.146285,5.03916 0.211301,4.00117 0.47949,3.18216 3.624622,16.04938 0.846558,7.34361 0.02167,3.72982 -0.353974,5.36018 0.06095,0.73684 0.348105,1.67054 9.285047,-0.002 0.06637,-0.91474 -0.05282,-0.74542 -0.371582,-1.19105 -0.358489,-1.53013 -0.05147,-1.17705 1.478654,-32.04549 0.07856,-9.35232 -0.297086,-5.71235 -0.859651,-3.79935 -2.343724,-8.34729 -0.03522,-2.00013 1.056504,-18.60712 0.484908,-12.80943 -0.381967,-9.05704 -1.064179,-7.31923 -1.535544,-4.794454 -19.248226,4e-6 z"
     sodipodi:nodetypes="cccccccccccccccccccccccccccccccccccccc"
     transform="matrix(4.3258817,0,0,4.3258817,4.358568e-4,0)" />
  <path
     id="Waist"
     style="display:inline;stroke-width:0.231167;stroke-dasharray:none;fill:none;fill-opacity:1;fill-rule:evenodd;stroke:#ff0000;stroke-linecap:butt;stroke-linejoin:miter;stroke-miterlimit:0;stroke-opacity:1"
     d="m 65.118653,98.478228 -0.432464,-1.042543 -0.35274,-1.060879 -0.190963,-0.969777 -0.343649,-3.467492 H 27.828941 l -0.343649,3.467492 -0.190963,0.969777 -0.35274,1.060879 -0.432464,1.042543 z"
     sodipodi:nodetypes="ccccccccccc"
     inkscape:label="Waist"
     transform="matrix(4.3258817,0,0,4.3258817,4.358568e-4,0)" />
  <path
     id="Torso"
     style="display:inline;stroke-width:0.231167;stroke-dasharray:none;fill:none;fill-opacity:1;fill-rule:evenodd;stroke:#ff0000;stroke-linecap:butt;stroke-linejoin:miter;stroke-miterlimit:0;stroke-opacity:1"
     d="m 43.235763,47.371071 -2.475505,-0.308123 -1.766219,-0.346086 -1.439079,-0.361553 -1.917105,1.861455 -2.037032,2.199291 -1.958427,2.424038 -1.339054,1.988209 -1.109903,2.09451 -1.820082,4.516506 -1.671421,5.441868 1.839773,11.317732 0.561686,4.059674 0.09115,3.009887 -0.283438,5.669118 h 35.826624 l -0.283438,-5.669118 0.09115,-3.009887 0.561686,-4.059674 1.839773,-11.317732 -1.671421,-5.441868 -1.820082,-4.516506 -1.109903,-2.09451 -1.339054,-1.988209 -1.958427,-2.424038 -2.037032,-2.199291 -1.917105,-1.861455 -1.439079,0.361553 -1.766219,0.346086 -2.475505,0.308123 -2.588656,0.108717 z"
     sodipodi:nodetypes="cccccccccccccccccccccccccccccccc"
     inkscape:label="Torso"
     transform="matrix(4.3258817,0,0,4.3258817,4.358568e-4,0)" />
  <path
     style="display:inline;stroke-width:0.231167;stroke-dasharray:none;fill:none;fill-opacity:1;fill-rule:evenodd;stroke:#ff0000;stroke-linecap:butt;stroke-linejoin:miter;stroke-miterlimit:0;stroke-opacity:1"
     d="m 84.336599,113.406 0.48301,0.55941 0.740665,0.57231 1.067603,0.63101 0.881418,0.5003 0.51266,0.46743 0.4306,0.55601 0.591432,1.11702 0.852968,2.31698 1.063942,2.93367 0.594032,1.63793 0.073,0.26405 v 0.20923 l -0.0274,0.32258 -0.0775,0.2951 -0.142104,0.27157 v 0 0 l -0.219274,0.18791 -0.230485,0.039 -0.325726,-0.0717 -0.386099,-0.18945 -0.392358,-0.31734 -0.393038,-0.54022 -0.264775,-0.7569 -0.207245,-0.93512 -0.202654,-0.44938 -1.584953,-2.31629 -0.227255,-0.2621 -0.279416,-0.0724 -0.144493,0.1142 0.0297,0.35835 0.889589,4.85337 2.201456,9.18476 0.0334,0.68629 -0.261535,0.52091 -0.338747,0.17143 -0.744816,-0.10421 -0.453199,-0.40346 -0.325457,-0.9732 -2.583404,-8.502 -0.202695,-0.23842 -0.332107,-0.0264 -0.267205,0.1889 -0.0491,0.3382 1.149305,10.41975 -0.036,0.39635 -0.258496,0.46379 -0.382428,0.28747 -0.462969,0.0943 -0.388608,-0.1025 -0.414479,-0.38793 -0.188234,-0.50194 -1.361708,-10.25644 -0.100482,-0.31111 -0.252476,-0.10178 -0.374658,0.31574 -0.294046,10.11227 -0.344397,0.57167 -0.655144,0.30188 -0.587201,-0.06 -0.329468,-0.50108 -0.0431,-0.66977 -0.145546,-9.74485 -0.0916,-0.27436 -0.184877,-0.0515 -0.312011,0.12695 -0.11525,0.58321 -1.415043,8.01248 -0.287135,0.4655 -0.573891,0.27538 -0.502299,-0.11511 -0.322882,-0.42602 -0.09615,-0.63901 1.025798,-8.33248 -0.08673,-4.53961 0.09038,-3.83744 0.107977,-0.89286 0.394972,-1.41379 0.215133,-0.92605 0.02398,-0.67554 z"
     id="left_hand"
     inkscape:label="left hand"
     sodipodi:nodetypes="cccccccccccccccccccccccccccccccccccccccccccccccccccccccccccccccccccccccccccccccccc"
     transform="matrix(4.3258817,0,0,4.3258817,4.358568e-4,0)" />
  <path
     style="display:inline;stroke-width:0.231167;stroke-dasharray:none;fill:none;fill-opacity:1;fill-rule:evenodd;stroke:#ff0000;stroke-linecap:butt;stroke-linejoin:miter;stroke-miterlimit:0;stroke-opacity:1"
     d="m 7.291177,113.406 -0.483002,0.55941 -0.740672,0.57231 -1.067598,0.631 -0.881415,0.5003 -0.512652,0.46744 -0.430601,0.556 -0.591427,1.11702 -0.852963,2.31696 -1.06394305,2.93367 -0.594025,1.63792 -0.07301,0.26405 v 0.20924 l 0.02739,0.32257 0.07752,0.29511 0.1421,0.27156 v 0 0 l 0.219268,0.1879 0.23048305,0.0391 0.325733,-0.0717 0.386094,-0.18944 0.392359,-0.31735 0.393037,-0.54022 0.264776,-0.75689 0.207244,-0.93511 0.202649,-0.44938 1.584944,-2.31628 0.227259,-0.26211 0.279412,-0.0724 0.144493,0.1142 -0.02968,0.35835 -0.889581,4.85334 -2.201448,9.18473 -0.03338,0.68629 0.261526,0.52091 0.338753,0.17143 0.744807,-0.10421 0.4532,-0.40346 0.325454,-0.97319 2.583395,-8.50198 0.202694,-0.2384 0.332107,-0.0264 0.267201,0.18891 0.04907,0.3382 -1.149305,10.4197 0.03596,0.39636 0.258499,0.46379 0.382429,0.28746 0.462963,0.0943 0.388604,-0.1025 0.414484,-0.38793 0.188235,-0.50194 1.361698,-10.25639 0.100482,-0.31112 0.252473,-0.10178 0.374661,0.31574 0.294044,10.11223 0.344397,0.57168 0.65514,0.30187 0.587205,-0.06 0.329462,-0.50108 0.04306,-0.66976 0.145544,-9.74481 0.0916,-0.27436 0.184877,-0.0515 0.31201,0.12695 0.115249,0.58321 1.415038,8.01245 0.287134,0.46549 0.573889,0.27538 0.502298,-0.1151 0.32288,-0.42603 0.09615,-0.639 -1.025794,-8.33245 0.08673,-4.53959 -0.09038,-3.83743 -0.107977,-0.89286 -0.39497,-1.41378 -0.215133,-0.92605 -0.02398,-0.67554 z"
     id="right_hand"
     inkscape:label="right hand"
     sodipodi:nodetypes="cccccccccccccccccccccccccccccccccccccccccccccccccccccccccccccccccccccccccccccccccc"
     transform="matrix(4.3258817,0,0,4.3258817,4.358568e-4,0)" />
  <path
     style="display:inline;stroke-width:0.231167;stroke-dasharray:none;fill:none;fill-opacity:1;fill-rule:evenodd;stroke:#ff0000;stroke-linecap:butt;stroke-linejoin:miter;stroke-miterlimit:0;stroke-opacity:1"
     d="m 79.052615,66.084342 -10.567301,2.466531 0.08985,1.729236 0.349911,3.828248 1.463755,11.494676 0.242003,2.06831 0.02573,1.686795 0.03431,2.058829 0.161636,1.739169 0.443371,2.350496 1.049732,4.024649 4.01607,13.700239 7.694422,-0.79328 -0.325079,-1.43757 -0.476781,-2.86972 -0.779736,-7.41178 -0.61494,-6.090249 -0.650608,-4.324444 -0.659186,-2.761811 -0.709303,-3.127975 -0.106102,-1.171636 z"
     id="left_arm"
     inkscape:label="left arm"
     transform="matrix(4.3258817,0,0,4.3258817,4.358568e-4,0)" />
  <path
     style="display:inline;stroke-width:0.231167;stroke-dasharray:none;fill:none;fill-opacity:1;fill-rule:evenodd;stroke:#ff0000;stroke-linecap:butt;stroke-linejoin:miter;stroke-miterlimit:0;stroke-opacity:1"
     d="m 12.73846,66.084342 -0.681761,17.158713 -0.106102,1.171636 -0.709303,3.127975 -0.659186,2.761811 -0.6506084,4.324444 -0.6149396,6.090249 -0.7797363,7.41178 -0.4763299,2.86972 -0.3255297,1.43757 7.6948729,0.79328 4.015619,-13.700239 1.049732,-4.024649 0.443371,-2.350496 0.162087,-1.739169 0.03386,-2.058829 0.02619,-1.686795 0.241552,-2.06831 1.463755,-11.494676 0.34991,-3.828248 0.08985,-1.729236 z"
     id="right_arm"
     inkscape:label="right arm"
     transform="matrix(4.3258817,0,0,4.3258817,4.358568e-4,0)" />
  <path
     style="display:inline;stroke-width:0.231167;stroke-dasharray:none;fill:none;fill-opacity:1;fill-rule:evenodd;stroke:#ff0000;stroke-linecap:butt;stroke-linejoin:miter;stroke-miterlimit:0;stroke-opacity:1"
     d="m 61.764313,43.001981 -2.96047,1.623134 -3.602047,1.413639 1.916607,1.894484 1.517935,1.648869 2.2462,2.784837 1.911189,3.036772 1.039348,2.184345 1.632163,4.289679 1.280899,4.195315 0.714721,0.754452 0.494389,0.800505 10.980872,-2.561797 -0.157121,-4.554707 -0.531864,-3.969567 -0.641578,-2.90042 -0.840237,-2.270129 -1.415445,-2.255682 -1.71253,-1.755423 -1.818181,-1.28135 -1.635775,-0.829852 -2.518002,-0.837077 z"
     id="left_shoulder"
     inkscape:label="left shoulder"
     transform="matrix(4.3258817,0,0,4.3258817,4.358568e-4,0)" />
  <path
     style="display:inline;stroke-width:0.231167;stroke-dasharray:none;fill:none;fill-opacity:1;fill-rule:evenodd;stroke:#ff0000;stroke-linecap:butt;stroke-linejoin:miter;stroke-miterlimit:0;stroke-opacity:1"
     d="m 29.863302,43.001981 -5.900622,1.410027 -2.518453,0.837077 -1.635324,0.829852 -1.818632,1.28135 -1.712079,1.755423 -1.415896,2.255682 -0.839786,2.270129 -0.642029,2.90042 -0.531413,3.969567 -0.157121,4.554707 10.980872,2.561797 0.493938,-0.800505 0.715172,-0.754452 1.280447,-4.195315 1.632164,-4.289679 1.039799,-2.184345 1.910738,-3.036772 2.2462,-2.784837 1.518386,-1.648869 1.916156,-1.894484 -3.601596,-1.413639 z"
     id="right_shoulder"
     inkscape:label="right shoulder"
     transform="matrix(4.3258817,0,0,4.3258817,4.358568e-4,0)" />
  <path
     id="Neck"
     style="display:inline;stroke-width:0.231167;stroke-dasharray:none;fill:none;fill-opacity:1;fill-rule:evenodd;stroke:#ff0000;stroke-linecap:butt;stroke-linejoin:miter;stroke-miterlimit:0;stroke-opacity:1"
     d="m 46.944425,35.361386 1.635027,-0.47557 1.879489,-0.911064 1.306006,-0.865645 1.423192,-1.155502 -0.23595,2.239677 -0.04713,1.594266 0.102436,1.569317 0.181649,0.96121 0.295588,0.657329 0.573214,0.671322 0.88601,0.684276 1.36882,0.760476 1.506818,0.647144 2.632156,0.892368 -2.701125,1.377434 -1.700255,0.68562 -2.919902,0.895287 -3.500411,0.652298 -2.114294,0.190238 -1.701861,0.04798 -1.701862,-0.04798 -2.114294,-0.190238 -3.500411,-0.652298 -2.919902,-0.895287 -1.700255,-0.68562 -2.701125,-1.377434 2.632156,-0.892368 1.506818,-0.647144 1.36882,-0.760476 0.88601,-0.684276 0.573214,-0.671322 0.295588,-0.657329 0.181649,-0.96121 0.102436,-1.569317 -0.04713,-1.594266 -0.23595,-2.239677 1.423192,1.155502 1.306006,0.865645 1.879489,0.911064 1.635027,0.47557 1.130511,0.159959 z"
     sodipodi:nodetypes="ccccccccccccccccccccccccccccccccccccccccccc"
     inkscape:label="Neck"
     transform="matrix(4.3258817,0,0,4.3258817,4.358568e-4,0)" />
  <path
     style="display:inline;stroke-width:0.231167;stroke-dasharray:none;fill:none;fill-opacity:1;fill-rule:evenodd;stroke:#ff0000;stroke-linecap:butt;stroke-linejoin:miter;stroke-miterlimit:0;stroke-opacity:1"
     d="m 43.561867,34.008726 -2.103826,-1.028443 -2.207316,-1.646132 -1.592767,-1.474523 -1.127142,-1.397432 -0.801213,-1.414135 -0.658852,-1.495258 -0.488724,-1.4058 -0.361316,-1.316328 -0.392784,-2.004808 h 24.057734 l -0.392784,2.004808 -0.361316,1.316328 -0.488724,1.4058 -0.658852,1.495258 -0.801213,1.414135 -1.127142,1.397432 -1.592767,1.474523 -2.207316,1.646132 -2.103826,1.028443 -2.294932,0.513197 z"
     id="Jaw"
     sodipodi:nodetypes="cccccccccccccccccccccc"
     inkscape:label="Jaw"
     transform="matrix(4.3258817,0,0,4.3258817,4.358568e-4,0)" />
  <path
     id="Eye"
     style="display:inline;stroke-width:0.231167;stroke-dasharray:none;fill:none;fill-opacity:1;fill-rule:evenodd;stroke:#ff0000;stroke-linecap:butt;stroke-linejoin:miter;stroke-miterlimit:0;stroke-opacity:1"
     inkscape:label="Eye"
     d="m 33.839641,14.194632 -0.227555,3.048511 0.114229,2.612365 H 57.9013 l 0.114229,-2.612365 -0.227555,-3.048511 z"
     sodipodi:nodetypes="ccccccc"
     transform="matrix(4.3258817,0,0,4.3258817,4.358568e-4,0)" />
  <path
     id="left_ear"
     style="display:inline;stroke-width:0.231167;stroke-dasharray:none;fill:none;fill-opacity:1;fill-rule:evenodd;stroke:#ff0000;stroke-linecap:butt;stroke-linejoin:miter;stroke-miterlimit:0;stroke-opacity:1"
     d="m 58.605636,11.718167 0.146285,1.339594 0.190081,1.317921 0.0316,0.821726 0.02257,1.034832 0.0014,1.321082 -0.09256,1.677313 -0.08533,0.975686 -0.175181,1.293992 1.00097,-0.881323 0.848815,-1.112941 0.495745,-1.012709 0.379709,-1.419509 0.07721,-1.562181 -0.155767,-1.079531 -0.130934,-0.500259 -0.335914,-0.832562 -0.551278,-0.704336 -0.816308,-0.481748 z"
     inkscape:label="left ear"
     sodipodi:nodetypes="cccccccccccccccccccc"
     transform="matrix(4.3258817,0,0,4.3258817,4.358568e-4,0)" />
  <path
     id="right_ear"
     style="display:inline;stroke-width:0.231167;stroke-dasharray:none;fill:none;fill-opacity:1;fill-rule:evenodd;stroke:#ff0000;stroke-linecap:butt;stroke-linejoin:miter;stroke-miterlimit:0;stroke-opacity:1"
     d="m 33.021979,11.718167 -0.851073,0.195047 -0.816308,0.481748 -0.551278,0.704336 -0.335914,0.832562 -0.130935,0.500259 -0.155766,1.079531 0.07721,1.562181 0.379709,1.419509 0.495744,1.012709 0.848816,1.112941 1.00097,0.881323 -0.175181,-1.293992 -0.08533,-0.975686 -0.09256,-1.677313 0.0014,-1.321082 0.02257,-1.034832 0.0316,-0.821726 0.190081,-1.317921 z"
     inkscape:label="right ear"
     sodipodi:nodetypes="cccccccccccccccccccc"
     transform="matrix(4.3258817,0,0,4.3258817,4.358568e-4,0)" />
  <path
     style="display:inline;stroke-width:0.231167;stroke-dasharray:none;fill:none;fill-opacity:1;fill-rule:evenodd;stroke:#ff0000;stroke-linecap:butt;stroke-linejoin:miter;stroke-miterlimit:0;stroke-opacity:1"
     d="M 45.852185,0 45.272462,0.01038444 43.30619,0.2031739 41.217111,0.71065715 39.301858,1.5242557 37.908537,2.4082879 36.37796,3.8363747 l -1.112941,1.6204247 -0.721494,1.75768 -0.267286,1.2086589 -0.267738,2.0159367 -0.04786,1.312955 -0.05328,1.472333 H 57.80603 L 57.806481,11.748418 57.704898,10.439075 57.43716,8.4231383 57.169874,7.2144794 56.448381,5.4567994 55.335439,3.8363747 53.804863,2.4082879 52.411541,1.5242557 50.496289,0.71065715 48.407209,0.2031739 46.440937,0.01038444 45.861215,0 Z"
     id="Head"
     transform="matrix(4.3258817,0,0,4.3258817,4.358568e-4,0)" />
</svg>
