<?xml version="1.0" encoding="UTF-8" standalone="no"?>
<!-- Created with Inkscape (http://www.inkscape.org/) -->

<svg
   width="396.371"
   height="1024.0001"
   viewBox="0 0 396.371 1024.0001"
   version="1.1"
   id="svg1"
   inkscape:version="1.3.2 (091e20e, 2023-11-25, custom)"
   sodipodi:docname="collidersfemale.svg"
   inkscape:export-filename="..\..\..\ButtonColliders\Female.svg"
   inkscape:export-xdpi="96"
   inkscape:export-ydpi="96"
   xmlns:inkscape="http://www.inkscape.org/namespaces/inkscape"
   xmlns:sodipodi="http://sodipodi.sourceforge.net/DTD/sodipodi-0.dtd"
   xmlns="http://www.w3.org/2000/svg"
   xmlns:svg="http://www.w3.org/2000/svg"
   xmlns:rdf="http://www.w3.org/1999/02/22-rdf-syntax-ns#"
   xmlns:cc="http://creativecommons.org/ns#"
   xmlns:dc="http://purl.org/dc/elements/1.1/">
  <sodipodi:namedview
     id="base"
     pagecolor="#000000"
     bordercolor="#000000"
     borderopacity="0.3"
     inkscape:pageopacity="0.0"
     inkscape:pageshadow="2"
     inkscape:zoom="0.50000002"
     inkscape:cx="-198.99999"
     inkscape:cy="384.99998"
     inkscape:document-units="px"
     inkscape:showpageshadow="2"
     inkscape:pagecheckerboard="0"
     inkscape:deskcolor="#d1d1d1"
     inkscape:window-width="1920"
     inkscape:window-height="1027"
     inkscape:window-x="1912"
     inkscape:window-y="-8"
     inkscape:window-maximized="1"
     inkscape:export-bgcolor="#00000000"
     inkscape:clip-to-page="false"
     inkscape:current-layer="svg1" />
  <defs
     id="defs1">
    <inkscape:path-effect
       effect="fillet_chamfer"
       id="path-effect5"
       is_visible="true"
       lpeversion="1"
       nodesatellites_param="F,0,0,1,0,0,0,1 @ F,0,0,1,0,0,0,1 @ F,0,0,1,0,0,0,1 @ F,0,0,1,0,0,0,1"
       radius="0"
       unit="px"
       method="auto"
       mode="F"
       chamfer_steps="1"
       flexible="false"
       use_knot_distance="true"
       apply_no_radius="true"
       apply_with_radius="true"
       only_selected="false"
       hide_knots="false" />
  </defs>
  <metadata
     id="metadata1">
    <rdf:RDF>
      <cc:Work
         rdf:about="">
        <dc:format>image/svg+xml</dc:format>
        <dc:type
           rdf:resource="http://purl.org/dc/dcmitype/StillImage" />
      </cc:Work>
    </rdf:RDF>
  </metadata>
  <g
     inkscape:groupmode="layer"
     id="layer3"
     inkscape:label="Selected"
     transform="matrix(4.3258817,0,0,4.3258817,-255.84523,-129.80206)"
     style="display:none"
     sodipodi:insensitive="true">
    <path
       style="fill:#ffffff;fill-opacity:1;fill-rule:evenodd;stroke:none;stroke-width:0.1;stroke-linecap:butt;stroke-linejoin:round;stroke-dasharray:none;stroke-opacity:1;paint-order:markers stroke fill"
       d="m 81.093758,249.88862 c -0.0082,0.56103 -0.06192,1.05741 -0.138493,1.5043 -0.41794,2.43909 -4.709023,6.20244 -5.355745,8.38502 -0.585674,1.97652 -3.498399,1.97405 -2.318722,4.92218 0.591253,1.47762 8.861159,2.11356 11.079427,1.942 1.684863,-0.1303 3.71031,0.80769 6.339148,-1.54047 0.879004,-0.78515 0.910555,-2.33013 0.523999,-4.16254 -0.410361,-1.94529 -0.577798,-4.10357 -1.074869,-7.11119 -0.259994,-1.57316 -0.162809,-2.84096 0.0031,-3.9393 z"
       id="path29"
       inkscape:label="rightFoot"
       inkscape:export-filename="..\..\..\Textures\ChooseYourOutfit\Body\Female\Filled\right_foot.png"
       inkscape:export-xdpi="96"
       inkscape:export-ydpi="96" />
    <path
       style="fill:#ffffff;fill-opacity:1;fill-rule:evenodd;stroke:none;stroke-width:0.1;stroke-linecap:butt;stroke-linejoin:round;stroke-dasharray:none;stroke-opacity:1;paint-order:markers stroke fill"
       d="m 84.44092,129.48438 c -0.343908,0.75589 -1.170021,2.38235 -1.347781,2.99443 -1.520048,5.23407 -2.275187,9.25585 -2.275187,15.90164 0,10.78404 4.30613,33.14722 3.923672,36.13787 -0.40899,3.19809 -3.563086,10.65606 -3.786416,15.27642 -0.603658,12.48809 3.371284,29.2513 1.275635,43.53339 -0.339712,2.31517 -1.435025,3.59189 -1.275635,4.64365 0.052,0.34305 0.04397,0.61065 0.06637,0.91699 h 9.285047 c 0.20623,-0.98981 0.430087,-1.80352 0.409057,-2.40783 -0.0352,-1.01243 -0.08207,-2.03494 0,-3.15281 0.965877,-13.15676 3.070843,-23.00754 3.781239,-32.36826 0.183848,-2.42252 0.611477,-8.86861 0.769422,-10.18455 0.319463,-2.66165 0.496713,-3.1221 1.479479,-6.14564 1.232158,-3.79081 1.129289,-7.34428 1.630419,-10.11136 0.06253,-0.7263 0.37891,-3.21055 0.464209,-4.44713 0.290709,-4.2144 0.924666,-8.90201 1.97014,-15.93166 0.63751,-4.28661 1.10337,-9.00689 1.10337,-9.00689 0.32433,-1.71706 0,-6.1877 2.54305,-6.28986 v -19.3584 z"
       id="path12"
       inkscape:export-filename="..\..\..\Textures\ChooseYourOutfit\Body\Male\Filled\right_leg.png"
       inkscape:export-xdpi="96"
       inkscape:export-ydpi="96"
       inkscape:label="right femur"
       sodipodi:nodetypes="ccsssssccssssscsscccc" />
    <path
       style="fill:#ffffff;fill-opacity:1;fill-rule:evenodd;stroke:none;stroke-width:0.1;stroke-linecap:butt;stroke-linejoin:round;stroke-dasharray:none;stroke-opacity:1;paint-order:markers stroke fill"
       d="m 66.882074,143.36858 c -0.512496,0.80083 -2.177411,1.52405 -3.223427,2.05925 -0.917719,0.46953 -1.621921,1.49822 -2.102198,2.82255 l -2.340425,6.45336 c -0.202145,0.55733 0.01854,1.64416 0.623734,1.58956 0.675378,-0.0609 1.336641,-0.69155 1.538924,-1.21491 0.379456,-0.98169 0.386805,-1.53057 0.462505,-1.70584 0.355921,-0.82411 1.631941,-2.46962 1.631941,-2.46962 0.232378,-0.35171 0.37348,-0.60002 0.710034,-0.50332 0.15239,0.0438 0.01633,0.52081 -0.05219,0.88573 l -0.802535,4.42299 -2.18643,9.12605 c -0.15214,0.55811 -0.08359,1.2916 0.551905,1.43712 0.451025,0.10328 1.126252,-0.1494 1.295011,-0.72915 l 2.808097,-9.24078 c 0.06405,-0.23417 0.281001,-0.3307 0.538469,-0.2775 0.258352,0.0535 0.35085,0.27838 0.31626,0.5271 l -1.149284,10.41952 c -0.063,0.57136 0.392511,1.14136 0.939994,1.22886 0.62372,0.0998 1.094122,-0.38538 1.191142,-0.97927 l 1.361674,-10.25622 c 0.04369,-0.2689 0.113037,-0.43199 0.35295,-0.41289 0.296769,0.0236 0.374654,0.31574 0.374654,0.31574 l 0.294039,10.11205 c 0.01188,0.40854 0.582888,0.88258 1.22008,0.89658 0.609318,0.0135 0.738139,-0.54713 0.734839,-0.96583 l 0.148828,-9.94565 c 0.0039,-0.25838 -0.01417,-0.38329 0.277503,-0.41289 0.29167,-0.0296 0.315388,0.0874 0.359668,0.31574 0,0 0.993627,5.81386 1.482597,8.40672 0.07784,0.41275 0.611633,0.80648 1.080037,0.74208 0.489126,-0.0672 0.769863,-0.72823 0.702284,-1.18133 -0.375977,-2.52057 -1.025777,-8.3323 -1.025777,-8.3323 0,0 0.258126,-7.41001 -0.111621,-9.26972 -0.137842,-0.69332 -1.177472,-2.18073 -1.217715,-3.16269 z"
       id="path28"
       inkscape:label="rightHand"
       inkscape:export-filename="..\..\..\Textures\ChooseYourOutfit\Body\Female\Filled\right_hand.png"
       inkscape:export-xdpi="96"
       inkscape:export-ydpi="96"
       sodipodi:nodetypes="cccccsscscccsccccccccccscccscscccscc" />
    <path
       style="fill:#ffffff;fill-opacity:1;fill-rule:evenodd;stroke:none;stroke-width:0.1;stroke-linecap:butt;stroke-linejoin:round;stroke-dasharray:none;stroke-opacity:1;paint-order:markers stroke fill"
       d="m 73.96694,96.561417 -1.336809,18.526413 c -0.192855,2.67272 -0.799908,3.62653 -1.944119,8.18682 -1.792195,7.14285 -2.19986,14.13412 -3.480923,19.16937 l 6.550403,0.75237 c 4.45298,-14.99943 5.307298,-16.46047 5.754111,-19.38055 0.338758,-2.21391 0.592199,-4.31027 0.785113,-5.76549 1.10777,-8.3563 2.599263,-13.53774 3.574133,-17.24842 0.20377,-0.77562 0.384969,-1.48698 0.535374,-2.149643 z"
       id="path25"
       inkscape:label="rightArm"
       sodipodi:nodetypes="cssccssscc"
       inkscape:export-filename="..\..\..\Textures\ChooseYourOutfit\Body\Female\Filled\right_arm.png"
       inkscape:export-xdpi="96"
       inkscape:export-ydpi="96" />
    <path
       style="fill:#ffffff;fill-opacity:1;fill-rule:evenodd;stroke:none;stroke-width:0.1;stroke-linecap:butt;stroke-linejoin:round;stroke-dasharray:none;stroke-opacity:1;paint-order:markers stroke fill"
       d="m 89.006453,73.007947 c -1.904791,0.521417 -2.926602,0.794545 -4.615563,1.155226 -3.301851,0.705108 -5.68013,2.120919 -7.042717,5.439633 -0.69295,1.687747 -1.838172,3.733647 -2.562095,10.741291 l -0.69731,5.115712 10.633975,2.174025 c 0.388262,-0.707639 0.756747,-1.897595 1.167564,-2.174025 0.09499,-2.327458 0.331224,-6.956378 2.408696,-10.641214 2.121556,-3.763018 5.811704,-7.406535 7.269841,-8.774141 -2.690803,-0.857047 -4.892751,-1.979153 -6.562391,-3.036507 z"
       id="path23"
       inkscape:label="rightShoulder"
       inkscape:export-filename="..\..\..\Textures\ChooseYourOutfit\Body\Female\Filled\right_shoulder.png"
       inkscape:export-xdpi="96"
       inkscape:export-ydpi="96"
       sodipodi:nodetypes="cssccccscc" />
    <path
       id="path36"
       style="fill:#ffffff;fill-opacity:1;fill-rule:evenodd;stroke:none;stroke-width:0.1;stroke-linecap:butt;stroke-linejoin:round;stroke-dasharray:none;stroke-opacity:1;paint-order:markers stroke fill"
       inkscape:label="utility"
       d="m 87.052231,121.94346 c -0.365263,1.13883 -1.071123,1.95398 -1.400094,3.044 -0.250435,0.82979 -0.702036,2.3195 -0.924667,3.49685 h 40.4587 c -0.22263,-1.17735 -0.67423,-2.66706 -0.92467,-3.49685 -0.32897,-1.09002 -1.03484,-1.90517 -1.4001,-3.044 z"
       sodipodi:nodetypes="csccscc"
       inkscape:export-filename="..\..\..\Textures\ChooseYourOutfit\Body\Female\Filled\Waist.png"
       inkscape:export-xdpi="96"
       inkscape:export-ydpi="96" />
    <path
       id="path37"
       style="fill:#ffffff;fill-opacity:1;fill-rule:evenodd;stroke:none;stroke-width:0.1;stroke-linecap:butt;stroke-linejoin:round;stroke-dasharray:none;stroke-opacity:1;paint-order:markers stroke fill"
       inkscape:label="torso"
       d="m 96.698024,76.361174 c -0.863983,0.790543 -5.245161,4.897761 -7.52827,8.947327 -2.258887,4.006609 -2.159061,8.646336 -2.159061,10.189396 0.0075,0.717226 0.285328,2.751181 0.680858,4.651333 0.35735,1.71672 0.959772,3.22956 1.478203,4.9615 0.316351,1.05684 0.827025,6.06058 0.623067,7.87322 -0.302753,2.69063 -1.825163,6.09337 -2.449826,7.95945 h 35.227645 c -0.62467,-1.86608 -2.14708,-5.26882 -2.44983,-7.95945 -0.20396,-1.81264 0.30672,-6.81638 0.62307,-7.87322 0.51843,-1.73194 1.12085,-3.24478 1.4782,-4.9615 0.39553,-1.900152 0.67286,-3.934107 0.68086,-4.651333 0,-1.54306 0.0998,-6.182787 -2.15906,-10.189396 -2.28311,-4.049566 -6.66429,-8.156784 -7.52827,-8.947327 -5.36519,1.482446 -11.06717,1.505998 -16.517586,0 z"
       sodipodi:nodetypes="cscsssccssscscc"
       inkscape:export-filename="..\..\..\Textures\ChooseYourOutfit\Body\Female\Filled\Torso.png"
       inkscape:export-xdpi="96"
       inkscape:export-ydpi="96" />
    <path
       id="path3"
       style="display:inline;fill:#ffffff;fill-opacity:1;fill-rule:evenodd;stroke-width:0.270643;stroke-dasharray:none"
       inkscape:label="jaws"
       d="m 93.391708,51.682769 c 0.715344,4.718563 2.285,6.911741 3.395261,8.086773 1.34306,1.42141 5.021721,4.051876 8.169851,4.4924 3.14812,-0.440524 6.82679,-3.07099 8.16985,-4.4924 1.11025,-1.175032 2.67991,-3.36821 3.39526,-8.086773 z"
       sodipodi:nodetypes="cscscc"
       inkscape:export-filename="..\..\..\Textures\ChooseYourOutfit\Body\Female\Filled\Jaw.png"
       inkscape:export-xdpi="96"
       inkscape:export-ydpi="96" />
    <path
       id="path19"
       style="display:inline;fill:#ffffff;fill-opacity:1;fill-rule:evenodd;stroke-width:0.270643;stroke-dasharray:none"
       inkscape:label="eyes"
       d="m 92.941565,44.585679 0.04109,3.128878 c 0.01216,0.930603 0.128451,2.134294 0.227103,2.857979 h 23.494122 c 0.0987,-0.723685 0.2149,-1.927376 0.2271,-2.857979 l 0.0411,-3.128878 z"
       sodipodi:nodetypes="ccccccc"
       inkscape:export-filename="..\..\..\Textures\ChooseYourOutfit\Body\Female\Filled\Eye.png"
       inkscape:export-xdpi="96"
       inkscape:export-ydpi="96" />
    <path
       style="display:inline;fill:#ffffff;fill-opacity:1;fill-rule:evenodd;stroke-width:0.242182"
       d="m 92.164989,42.18642 c -1.756833,0.269691 -2.282629,1.34105 -2.599723,2.712598 -0.364684,1.577378 -0.121615,3.295657 0.563018,4.653133 0.522292,1.035601 1.455559,1.857877 2.206468,2.392937 -0.05655,-0.353242 -0.123343,-0.692599 -0.169763,-1.070952 l -0.208187,-3.38149 c 0.01614,-3.149402 0.06358,-3.443806 0.208187,-5.306226 z"
       id="path18"
       inkscape:export-filename="..\..\..\Textures\ChooseYourOutfit\Body\Female\Filled\right_ear.png"
       inkscape:export-xdpi="96"
       inkscape:export-ydpi="96"
       inkscape:label="right ear"
       sodipodi:nodetypes="cssccccc" />
    <path
       id="path7"
       style="display:inline;fill:#ffffff;fill-opacity:1;fill-rule:evenodd;stroke-width:0.245959;stroke-dasharray:none"
       inkscape:label="head"
       d="m 104.95682,30.005017 c -5.34703,0.01375 -10.193387,2.526602 -11.212492,7.242924 -0.30841,1.42729 -0.650793,4.721335 -0.761677,6.227531 h 11.974169 z"
       sodipodi:nodetypes="csccc" />
    <path
       id="path9"
       style="display:inline;fill:#ffffff;fill-opacity:1;fill-rule:evenodd;stroke-width:0.245959;stroke-dasharray:none"
       inkscape:label="head"
       d="m 93.744327,37.247941 c -0.308409,1.427288 -0.650792,4.721311 -0.761676,6.227505 h 23.948329 c -0.11089,-1.506194 -0.45326,-4.800217 -0.76167,-6.227505 -2.08843,-9.665082 -20.336542,-9.66511 -22.424983,0 z"
       sodipodi:nodetypes="sccss"
       inkscape:export-filename="..\..\..\Textures\ChooseYourOutfit\Body\Female\Filled\Head.png"
       inkscape:export-xdpi="96"
       inkscape:export-ydpi="96" />
    <path
       style="fill:#ffffff;fill-opacity:1;fill-rule:evenodd;stroke:none;stroke-width:0.1;stroke-linecap:butt;stroke-linejoin:round;stroke-dasharray:none;stroke-opacity:1;paint-order:markers stroke fill"
       d="m 128.81988,249.88862 c 0.008,0.56103 0.0619,1.05741 0.13849,1.5043 0.41794,2.43909 4.70903,6.20244 5.35575,8.38502 0.58567,1.97652 3.4984,1.97405 2.31872,4.92218 -0.59125,1.47762 -8.86116,2.11356 -11.07942,1.942 -1.68487,-0.1303 -3.71032,0.80769 -6.33915,-1.54047 -0.87901,-0.78515 -0.91056,-2.33013 -0.524,-4.16254 0.41036,-1.94529 0.5778,-4.10357 1.07487,-7.11119 0.25999,-1.57316 0.16281,-2.84096 -0.003,-3.9393 z"
       id="path13"
       inkscape:label="rightFoot"
       inkscape:export-filename="..\..\..\Textures\ChooseYourOutfit\Body\Male\Filled\left_foot.png"
       inkscape:export-xdpi="96"
       inkscape:export-ydpi="96" />
    <path
       style="fill:#ffffff;fill-opacity:1;fill-rule:evenodd;stroke:none;stroke-width:0.1;stroke-linecap:butt;stroke-linejoin:round;stroke-dasharray:none;stroke-opacity:1;paint-order:markers stroke fill"
       d="m 143.03157,143.36858 c 0.51249,0.80083 2.17741,1.52405 3.22342,2.05925 0.91772,0.46953 1.62193,1.49822 2.1022,2.82255 l 2.34043,6.45336 c 0.20214,0.55733 -0.0185,1.64416 -0.62374,1.58956 -0.67537,-0.0609 -1.33664,-0.69155 -1.53892,-1.21491 -0.37946,-0.98169 -0.38681,-1.53057 -0.46251,-1.70584 -0.35592,-0.82411 -1.63194,-2.46962 -1.63194,-2.46962 -0.23237,-0.35171 -0.37348,-0.60002 -0.71003,-0.50332 -0.15239,0.0438 -0.0163,0.52081 0.0522,0.88573 l 0.80253,4.42299 2.18643,9.12605 c 0.15214,0.55811 0.0836,1.2916 -0.5519,1.43712 -0.45103,0.10328 -1.12625,-0.1494 -1.29501,-0.72915 l -2.8081,-9.24078 c -0.0641,-0.23417 -0.281,-0.3307 -0.53847,-0.2775 -0.25835,0.0535 -0.35085,0.27838 -0.31626,0.5271 l 1.14928,10.41952 c 0.063,0.57136 -0.39251,1.14136 -0.93999,1.22886 -0.62372,0.0998 -1.09412,-0.38538 -1.19114,-0.97927 l -1.36168,-10.25622 c -0.0437,-0.2689 -0.11303,-0.43199 -0.35295,-0.41289 -0.29676,0.0236 -0.37465,0.31574 -0.37465,0.31574 l -0.29404,10.11205 c -0.0119,0.40854 -0.58289,0.88258 -1.22008,0.89658 -0.60932,0.0135 -0.73814,-0.54713 -0.73484,-0.96583 l -0.14882,-9.94565 c -0.004,-0.25838 0.0142,-0.38329 -0.27751,-0.41289 -0.29167,-0.0296 -0.31539,0.0874 -0.35967,0.31574 0,0 -0.99362,5.81386 -1.48259,8.40672 -0.0778,0.41275 -0.61164,0.80648 -1.08004,0.74208 -0.48913,-0.0672 -0.76986,-0.72823 -0.70228,-1.18133 0.37597,-2.52057 1.02577,-8.3323 1.02577,-8.3323 0,0 -0.25812,-7.41001 0.11162,-9.26972 0.13785,-0.69332 1.17748,-2.18073 1.21772,-3.16269 z"
       id="path15"
       inkscape:label="rightHand"
       inkscape:export-filename="..\..\..\Textures\ChooseYourOutfit\Body\Female\Filled\left_hand.png"
       inkscape:export-xdpi="96"
       inkscape:export-ydpi="96"
       sodipodi:nodetypes="cccccsscscccsccccccccccscccscscccscc" />
    <path
       style="fill:#ffffff;fill-opacity:1;fill-rule:evenodd;stroke:none;stroke-width:0.1;stroke-linecap:butt;stroke-linejoin:round;stroke-dasharray:none;stroke-opacity:1;paint-order:markers stroke fill"
       d="m 135.9467,96.561417 1.33681,18.526413 c 0.19285,2.67272 0.79991,3.62653 1.94412,8.18682 1.79219,7.14285 2.19986,14.13412 3.48092,19.16937 l -6.5504,0.75237 c -4.45298,-14.99943 -5.3073,-16.46047 -5.75411,-19.38055 -0.33876,-2.21391 -0.5922,-4.31027 -0.78512,-5.76549 -1.10777,-8.3563 -2.59926,-13.53774 -3.57413,-17.24842 -0.20377,-0.77562 -0.38497,-1.48698 -0.53537,-2.149643 z"
       id="path31"
       inkscape:label="rightArm"
       sodipodi:nodetypes="cssccssscc"
       inkscape:export-filename="..\..\..\Textures\ChooseYourOutfit\Body\Female\Filled\left_arm.png"
       inkscape:export-xdpi="96"
       inkscape:export-ydpi="96" />
    <path
       id="path35"
       style="opacity:1;fill:#ffffff;fill-opacity:1;fill-rule:evenodd;stroke:none;stroke-width:0.100095;stroke-linecap:butt;stroke-linejoin:round;stroke-dasharray:none;stroke-opacity:1;paint-order:markers stroke fill"
       inkscape:label="neck"
       d="m 98.159522,62.234267 c 0.253622,1.785545 0.71912,4.546494 0.231167,6.436549 -0.468101,1.813011 -4.454363,2.877861 -8.071422,3.965954 8.770103,5.12086 20.507973,5.119125 29.275103,0 -3.61706,-1.088093 -7.60332,-2.152943 -8.07142,-3.965954 -0.48795,-1.890055 -0.0225,-4.651004 0.23116,-6.436549 -0.4193,0.370794 -0.36289,0.234688 -0.8917,0.623518 -0.48713,0.358189 -1.11601,0.763776 -1.70125,1.065534 -1.31901,0.680103 -2.4211,1.124164 -4.20434,1.337787 -1.78324,-0.213623 -2.88534,-0.657684 -4.20435,-1.337787 -0.58524,-0.301758 -1.214108,-0.707345 -1.70124,-1.065534 -0.528807,-0.38883 -0.472406,-0.252724 -0.891708,-0.623518 z"
       sodipodi:nodetypes="ccccccsscssc"
       inkscape:export-filename="..\..\..\Textures\ChooseYourOutfit\Body\Female\Filled\Neck.png"
       inkscape:export-xdpi="96"
       inkscape:export-ydpi="96" />
    <path
       style="display:inline;fill:#ffffff;fill-opacity:1;fill-rule:evenodd;stroke-width:0.242182"
       d="m 117.74865,42.18642 c 1.75683,0.269691 2.28263,1.34105 2.59972,2.712598 0.36469,1.577378 0.12162,3.295657 -0.56301,4.653133 -0.5223,1.035601 -1.45556,1.857877 -2.20647,2.392937 0.0566,-0.353242 0.12334,-0.692599 0.16976,-1.070952 l 0.20819,-3.38149 c -0.0161,-3.149402 -0.0636,-3.443806 -0.20819,-5.306226 z"
       id="path42"
       inkscape:export-filename="..\..\..\Textures\ChooseYourOutfit\Body\Female\Filled\left_ear.png"
       inkscape:export-xdpi="96"
       inkscape:export-ydpi="96"
       inkscape:label="right ear"
       sodipodi:nodetypes="cssccccc" />
    <path
       style="fill:#ffffff;fill-opacity:1;fill-rule:evenodd;stroke:none;stroke-width:0.1;stroke-linecap:butt;stroke-linejoin:round;stroke-dasharray:none;stroke-opacity:1;paint-order:markers stroke fill"
       d="m 125.47272,129.48438 c 0.34391,0.75589 1.17002,2.38235 1.34778,2.99443 1.52005,5.23407 2.27519,9.25585 2.27519,15.90164 0,10.78404 -4.30613,33.14722 -3.92367,36.13787 0.40899,3.19809 3.56308,10.65606 3.78641,15.27642 0.60366,12.48809 -3.37128,29.2513 -1.27563,43.53339 0.33971,2.31517 1.43502,3.59189 1.27563,4.64365 -0.052,0.34305 -0.044,0.61065 -0.0664,0.91699 h -9.28504 c -0.20623,-0.98981 -0.43009,-1.80352 -0.40906,-2.40783 0.0352,-1.01243 0.0821,-2.03494 0,-3.15281 -0.96588,-13.15676 -3.07084,-23.00754 -3.78124,-32.36826 -0.18385,-2.42252 -0.61148,-8.86861 -0.76942,-10.18455 -0.31946,-2.66165 -0.49671,-3.1221 -1.47948,-6.14564 -1.23216,-3.79081 -1.12929,-7.34428 -1.63042,-10.11136 -0.0625,-0.7263 -0.37891,-3.21055 -0.46421,-4.44713 -0.29071,-4.2144 -0.92466,-8.90201 -1.97014,-15.93166 -0.63751,-4.28661 -1.10337,-9.00689 -1.10337,-9.00689 -0.32433,-1.71706 0,-6.1877 -2.54305,-6.28986 v -19.3584 z"
       id="path44"
       inkscape:export-filename="..\..\..\Textures\ChooseYourOutfit\Body\Male\Filled\left_leg.png"
       inkscape:export-xdpi="96"
       inkscape:export-ydpi="96"
       inkscape:label="right femur"
       sodipodi:nodetypes="ccsssssccssssscsscccc" />
    <path
       style="fill:#ffffff;fill-opacity:1;fill-rule:evenodd;stroke:none;stroke-width:0.1;stroke-linecap:butt;stroke-linejoin:round;stroke-dasharray:none;stroke-opacity:1;paint-order:markers stroke fill"
       d="m 120.90718,73.007947 c 1.90479,0.521417 2.9266,0.794545 4.61557,1.155226 3.30185,0.705108 5.68013,2.120919 7.04271,5.439633 0.69295,1.687747 1.83817,3.733647 2.5621,10.741291 l 0.69731,5.115712 -10.63398,2.174025 c -0.38826,-0.707639 -0.75674,-1.897595 -1.16756,-2.174025 -0.095,-2.327458 -0.33123,-6.956378 -2.4087,-10.641214 -2.12155,-3.763018 -5.8117,-7.406535 -7.26984,-8.774141 2.6908,-0.857047 4.89275,-1.979153 6.56239,-3.036507 z"
       id="path45"
       inkscape:label="rightShoulder"
       inkscape:export-filename="..\..\..\Textures\ChooseYourOutfit\Body\Female\Filled\left_shoulder.png"
       inkscape:export-xdpi="96"
       inkscape:export-ydpi="96"
       sodipodi:nodetypes="cssccccscc" />
  </g>
  <g
     inkscape:groupmode="layer"
     id="layer2"
     inkscape:label="UnSelected"
     sodipodi:insensitive="true"
     style="display:none">
    <path
       id="path47"
       style="display:inline;fill:#ffffff;fill-opacity:1;fill-rule:evenodd;stroke:none;stroke-width:0.432588;stroke-linecap:butt;stroke-linejoin:round;stroke-dasharray:none;stroke-opacity:1;paint-order:markers stroke fill"
       inkscape:label="rightFoot"
       d="m 99.201172,956.08594 c -0.859987,6.50576 -4.312868,12.31224 -8.270363,17.41343 -4.785381,6.5142 -10.352411,12.48735 -14.394461,19.52361 -1.17567,2.12713 -1.843343,4.51157 -3.147676,6.56491 -2.299184,3.33221 -6.113084,5.22821 -8.42582,8.54051 -0.886614,1.7357 -0.5987,4.0824 0.797785,5.4616 1.49718,0.8422 3.247264,1.0227 4.846718,1.604 6.773763,1.9263 13.894397,2.8255 20.93066,3.36 5.354481,0.4084 10.713755,0.6851 16.097075,0.6595 4.26506,0.01 8.53224,0.069 12.79341,0.2046 5.24559,-0.2209 10.4342,-2.6775 13.73255,-6.792 1.30806,-2.264 1.1205,-4.9326 0.99782,-7.4815 -0.4854,-5.16547 -2.01705,-10.23919 -2.47528,-15.44092 -1.06167,-8.77684 -2.82453,-17.50935 -3.53408,-26.34731 -0.18286,-2.5515 -0.23824,-5.11893 -0.0304,-7.67082 -9.95703,0 -19.91406,0 -29.871093,0 -0.01563,0.13346 -0.03125,0.26692 -0.04687,0.40039 z" />
    <path
       id="path48"
       style="display:inline;fill:#ffffff;fill-opacity:1;fill-rule:evenodd;stroke:none;stroke-width:0.432588;stroke-linecap:butt;stroke-linejoin:round;stroke-dasharray:none;stroke-opacity:1;paint-order:markers stroke fill"
       inkscape:label="right femur"
       d="m 110.3418,438.90625 c -3.84535,8.25899 -5.53307,17.24109 -7.59201,26.03855 -4.729143,21.57197 -5.163342,43.99137 -3.695529,66.02031 1.324399,18.99019 3.748799,37.86184 6.287519,56.72551 3.30942,24.28171 7.00356,48.5158 9.76989,72.86779 0.49941,5.19099 0.0149,10.44877 -1.29539,15.49148 -1.33401,5.35213 -3.02358,10.60703 -4.6138,15.88675 -3.66166,11.81487 -7.53303,23.6058 -9.518886,35.85242 -1.258241,7.87746 -1.0498,15.98281 -0.9872,23.97514 0.447979,27.07519 3.833636,53.97467 5.944206,80.9527 2.02558,26.78261 3.73361,53.77396 0.88284,80.56435 -0.71724,6.00571 -1.20359,12.10438 -3.01351,17.90689 -1.26145,3.71522 -3.211461,7.29276 -3.681805,11.2103 3.666025,-0.0868 7.347005,-0.0116 11.018745,-0.0365 7.13438,4.4e-4 14.26875,8.7e-4 21.40313,10e-4 0.95064,-4.31512 0.9051,-8.74699 0.68378,-13.17061 0.41903,-16.46768 2.56503,-32.81946 4.32934,-49.17952 4.42945,-37.2839 11.04466,-74.3358 13.255,-111.85344 0.78667,-9.98413 1.2404,-19.99699 2.28332,-29.95922 0.87726,-7.69153 2.4942,-15.31324 5.07517,-22.61876 2.82985,-8.86663 5.22555,-17.94253 5.96822,-27.23155 1.76548,-16.68075 4.05657,-33.28849 5.29725,-50.01796 0.92908,-10.1795 2.27213,-20.31602 3.62317,-30.44715 3.12098,-22.86294 6.7253,-45.67581 8.99824,-68.63396 0.88066,-6.85316 0.68803,-13.99899 3.39637,-20.48303 1.39288,-3.47548 3.82725,-6.78173 7.37334,-8.25636 -0.039,-7.89132 -0.002,-15.78564 -0.0135,-23.67813 0.002,-17.3345 0.004,-34.66901 0.006,-52.00351 -26.41471,0 -52.82943,0 -79.24414,0 -0.64648,1.35872 -1.29297,2.71745 -1.93945,4.07617 z"
       inkscape:export-filename="..\..\..\Textures\ChooseYourOutfit\Body\Female\Filled\right_leg.png"
       inkscape:export-xdpi="96"
       inkscape:export-ydpi="96" />
    <path
       id="path49"
       style="display:inline;fill:#ffffff;fill-opacity:1;fill-rule:evenodd;stroke:none;stroke-width:0.432588;stroke-linecap:butt;stroke-linejoin:round;stroke-dasharray:none;stroke-opacity:1;paint-order:markers stroke fill"
       inkscape:label="rightHand"
       d="m 35.308594,495.12695 c -4.388157,4.26496 -10.508595,5.89188 -15.393157,9.43124 -2.136212,1.68691 -3.388975,4.17716 -4.379821,6.65238 -2.66076,5.98033 -4.603275,12.2838 -6.8110066,18.48279 2.7568376,-4.49308 5.6211846,-9.02298 9.4643486,-12.67614 3.010081,-2.06257 7.834108,-0.0212 8.307905,3.63587 0.430272,2.67643 -0.795272,5.22014 -1.029863,7.85205 -2.20106,12.69482 -4.944703,25.29139 -8.108473,37.77993 -0.822906,3.44278 -1.681826,6.87691 -2.501105,10.3204 3.521952,-11.04568 6.496488,-22.27035 10.404297,-33.18945 1.855347,-3.17004 6.602251,-3.65595 9.368412,-1.4314 2.153661,1.59346 2.832669,4.54374 2.243258,7.06395 -1.652194,14.44589 -3.302193,28.88727 -4.709327,43.35963 -0.06503,0.76721 0.199415,-0.77344 0.259092,-1.04135 0.975678,-6.11878 1.613818,-12.28668 2.493127,-18.4201 1.268392,-8.80675 2.13267,-17.6756 3.784891,-26.42331 1.235829,-3.54278 6.277371,-4.67486 9.084317,-2.31456 2.144063,1.58462 2.996541,4.4401 2.558261,7.00596 0.283066,9.63478 0.540713,19.2703 0.849609,28.9043 0.17173,-11.06373 0.155887,-22.13774 0.726563,-33.18945 0.796619,-3.16651 4.648053,-4.75671 7.601562,-3.70899 1.965368,0.65591 3.396875,2.42731 3.819599,4.43292 0.308256,1.42456 0.357736,2.8889 0.678715,4.31443 0.597379,3.48871 1.196295,6.97708 1.806374,10.46359 -1.085851,-8.03729 -1.980757,-16.14894 -1.552487,-24.27101 0.201465,-10.04287 0.517005,-20.13276 -0.611576,-30.11961 -1.247386,-3.57313 -3.416873,-6.80078 -4.515625,-10.46485 -7.943559,-0.80969 -15.906254,-1.67308 -23.83789,-2.44922 z M 6.7695312,534.9668 c -0.7229893,1.75224 -1.5330014,3.48866 -1.9394531,5.34961 1.221162,-1.65305 1.4756684,-3.51971 1.9921875,-5.48047 l -0.037378,0.0927 z" />
    <path
       id="path50"
       style="display:inline;fill:#ffffff;fill-opacity:1;fill-rule:evenodd;stroke:none;stroke-width:0.432588;stroke-linecap:butt;stroke-linejoin:round;stroke-dasharray:none;stroke-opacity:1;paint-order:markers stroke fill"
       inkscape:label="rightArm"
       d="m 62.830078,368.36914 c -0.908584,11.83686 -5.217933,23.00804 -8.125,34.42578 -3.227226,12.93821 -5.644075,26.05319 -7.576417,39.23559 -2.084727,13.51599 -3.946368,27.07884 -6.784911,40.46363 4.689456,0.40259 9.333627,1.15214 14.003081,1.60974 1.874624,0.21538 3.749248,0.43075 5.623872,0.64612 7.117691,-24.09889 14.933386,-47.97699 22.078067,-72.06643 3.489792,-15.34457 4.34561,-31.10113 7.05991,-46.58288 3.508712,-22.1647 8.809837,-44.00188 14.73507,-65.63194 -11.865251,-2.39685 -23.737474,-4.76322 -35.605469,-7.14844 -1.802734,25.01628 -3.605468,50.03255 -5.408203,75.04883 z" />
    <path
       id="path51"
       style="display:inline;fill:#ffffff;fill-opacity:1;fill-rule:evenodd;stroke:none;stroke-width:0.432588;stroke-linecap:butt;stroke-linejoin:round;stroke-dasharray:none;stroke-opacity:1;paint-order:markers stroke fill"
       inkscape:label="rightShoulder"
       d="m 120.00781,193.125 c -7.52661,1.85254 -15.28678,3.06712 -22.321759,6.50391 -2.272086,1.10224 -4.259148,2.45288 -6.179839,4.14944 -2.84546,2.52539 -5.173321,5.63957 -6.887333,8.93797 -2.671509,5.07931 -4.627044,10.56855 -6.461562,16.03252 -1.664951,5.13075 -2.720984,10.38048 -3.680786,15.72182 -1.981635,11.41554 -2.948134,22.98231 -4.673797,34.44536 -0.275165,0.73579 0.244654,0.73823 0.861868,0.80992 2.94961,0.58718 5.867714,1.32296 8.828671,1.85667 9.530237,1.95098 19.060474,3.90196 28.590707,5.85294 0.98685,-2.10898 1.96553,-4.23092 3.20118,-6.20899 0.60788,-13.91578 2.57809,-28.01921 8.21679,-40.86523 4.33761,-9.78725 11.00694,-18.28479 17.80526,-26.46419 3.79764,-4.47329 7.81462,-8.75719 11.96427,-12.90495 -7.22396,-2.72668 -14.19003,-6.13142 -20.79296,-10.13281 -2.82357,0.7552 -5.64714,1.51041 -8.47071,2.26562 z" />
    <path
       id="path52"
       style="display:inline;fill:#ffffff;fill-opacity:1;fill-rule:evenodd;stroke:none;stroke-width:0.432588;stroke-linecap:butt;stroke-linejoin:round;stroke-dasharray:none;stroke-opacity:1;paint-order:markers stroke fill"
       inkscape:label="utility"
       d="m 272.30078,402.15625 c -5.40887,0.11703 -10.81988,0.007 -16.22969,0.0527 -44.122,0 -88.24401,0 -132.36601,0 -2.36235,4.97712 -5.20472,9.83202 -6.30328,15.29394 -0.3566,1.33894 -0.70257,2.66438 -1.04828,4.00489 54.55403,0 109.10807,0 163.6621,0 -1.52783,-6.46779 -3.61871,-12.85207 -7.10546,-18.5332 -0.20241,-0.29557 -0.07,-1.02842 -0.60938,-0.81836 z" />
    <path
       id="path53"
       style="display:inline;fill:#ffffff;fill-opacity:1;fill-rule:evenodd;stroke:none;stroke-width:0.432588;stroke-linecap:butt;stroke-linejoin:round;stroke-dasharray:none;stroke-opacity:1;paint-order:markers stroke fill"
       inkscape:label="torso"
       d="m 163.55273,205.66211 c -8.1015,7.96915 -16.04463,16.11048 -22.80468,25.26953 -4.52609,6.17015 -8.62891,12.76613 -11.18719,20.06193 -1.62276,4.64501 -2.69064,9.40664 -3.44379,14.26368 -1.01856,7.00965 -1.27213,14.19022 -0.73519,21.29745 0.67202,7.71046 2.31842,15.34685 4.32104,22.81589 1.33682,4.83631 3.09085,9.54793 4.40492,14.38913 2.42664,9.71531 2.69182,19.78056 3.18186,29.73169 0.0485,9.84495 -2.92143,19.38337 -6.33752,28.51456 -0.84734,2.29358 -1.69468,4.58716 -2.54202,6.88075 46.51692,0 93.03385,0 139.55078,0 -3.62724,-9.84546 -7.6114,-19.74908 -8.66753,-30.27748 -0.63715,-7.123 0.30797,-14.24856 0.77487,-21.3511 0.73512,-7.86935 2.29257,-15.70051 5.1075,-23.10189 2.4718,-7.43656 4.29335,-15.28552 5.28581,-23.10152 0.64133,-4.96492 1.00354,-9.91961 0.76959,-14.93039 -0.30212,-8.31465 -1.60053,-16.62242 -4.24227,-24.54759 -2.1518,-6.36734 -5.28179,-12.33841 -9.30046,-17.74024 -7.29108,-10.32511 -15.94073,-19.61431 -25.06931,-28.3287 -22.48048,5.77524 -46.41426,5.76457 -68.89453,-0.006 -0.0573,0.0534 -0.11458,0.10677 -0.17188,0.16016 z" />
    <path
       id="path54"
       style="display:inline;fill:#ffffff;fill-opacity:1;fill-rule:evenodd;stroke-width:1.17077;stroke-dasharray:none"
       inkscape:label="jaws"
       d="m 153.84375,99.847656 c 1.65411,7.424964 4.21308,14.791334 8.54687,21.134764 2.78044,4.14902 6.4989,7.71816 10.6325,10.56501 6.22753,4.58562 13.04436,8.60937 20.4925,10.91546 2.04001,0.52907 4.33631,1.54897 6.49682,0.75834 9.36925,-2.29206 17.86054,-7.27365 25.35545,-13.26767 4.46897,-3.40808 8.28381,-7.70376 10.91644,-12.6837 3.24924,-5.90164 5.20252,-12.41879 6.53012,-18.996422 -29.76692,0 -59.53385,-10e-7 -89.30078,0 0.11003,0.524739 0.22005,1.049479 0.33008,1.574218 z" />
    <path
       id="path55"
       style="display:inline;fill:#ffffff;fill-opacity:1;fill-rule:evenodd;stroke-width:1.17077;stroke-dasharray:none"
       inkscape:label="eyes"
       d="m 150.88477,76.443359 c 0.10433,2.696269 0.2584,5.342834 0.52734,8.025391 31.18815,0 62.3763,0 93.56445,0 0.54873,-5.605278 0.55313,-11.253295 0.62891,-16.898438 -31.61328,10e-7 -63.22656,0 -94.83985,0 0.0397,2.957683 0.0794,5.915365 0.11915,8.873047 z" />
    <path
       id="path56"
       style="display:inline;fill:#ffffff;fill-opacity:1;fill-rule:evenodd;stroke-width:1.04765"
       inkscape:label="right ear"
       d="m 137.46484,61.078125 c -1.4149,2.564245 -1.79019,5.465973 -2.03477,8.315351 -0.25694,4.236804 0.53098,8.549395 2.35899,12.385821 -0.35555,-7.06922 -0.3816,-14.157518 -0.008,-21.226563 -0.10547,0.175131 -0.21094,0.350261 -0.31641,0.525391 z" />
    <path
       id="path57"
       style="display:inline;fill:#ffffff;fill-opacity:1;fill-rule:evenodd;stroke-width:1.06399;stroke-dasharray:none"
       inkscape:label="head"
       d="m 192.64648,4.7441406 c -5.20443,0.4621483 -10.36628,1.5069039 -15.26953,3.2871094 -7.03167,2.54988 -13.66089,6.795433 -18.16027,12.887098 -2.54293,3.387454 -4.18394,7.371066 -5.11525,11.447067 -1.37664,5.976204 -1.69779,12.089954 -2.43435,18.158987 -0.11722,1.089574 -0.24458,2.17798 -0.3702,3.266614 14.13015,-0.04763 28.26041,-0.01634 42.39062,-0.02539 0,-16.36849 0,-32.736979 0,-49.1054688 -0.34701,0.027995 -0.69401,0.05599 -1.04102,0.083983 z" />
    <path
       id="path58"
       style="display:inline;fill:#ffffff;fill-opacity:1;fill-rule:evenodd;stroke-width:1.06399;stroke-dasharray:none"
       inkscape:label="head"
       d="m 196.31641,4.5195312 c -7.977,0.2869183 -15.89262,1.8601725 -23.09954,5.2993951 -6.46408,3.0683387 -12.30689,7.7894417 -15.89265,14.0560737 -1.10835,1.92162 -1.98573,4.044172 -2.57951,6.134212 -1.90692,6.299779 -2.16485,12.9018 -2.96346,19.438054 -0.15111,1.435276 -0.31194,2.890879 -0.4668,4.333984 31.23697,-0.02886 62.47396,-0.01341 93.71094,-0.01563 -0.88348,-8.746101 -1.41441,-17.615647 -4.11313,-26.049952 C 237.83983,19.794387 231.20024,13.739815 223.66387,10.05543 215.20878,5.8892713 205.70014,4.3564034 196.31641,4.5195312 Z" />
    <path
       id="path59"
       style="display:inline;fill:#ffffff;fill-opacity:1;fill-rule:evenodd;stroke:none;stroke-width:0.432588;stroke-linecap:butt;stroke-linejoin:round;stroke-dasharray:none;stroke-opacity:1;paint-order:markers stroke fill"
       inkscape:label="rightFoot"
       d="m 267.31055,956.27344 c 0.5679,10.04073 -1.98359,19.87043 -3.11343,29.77985 -0.47403,4.75219 -1.32633,9.45466 -2.28826,14.12911 -0.64807,3.6866 -1.20371,7.55 -0.27153,11.2644 0.40837,1.2907 1.32318,2.3425 2.24583,3.1352 2.47765,2.0046 5.43977,3.5336 8.47103,4.3301 3.19806,0.8509 6.53968,0.4876 9.80313,0.3886 3.12884,-0.1786 6.26491,-0.2724 9.3958,-0.1177 7.09511,-0.023 14.14786,-0.5519 21.19273,-1.4371 5.87276,-0.7792 11.72158,-1.8923 17.32984,-3.8717 1.00824,-0.4157 1.68966,-1.4134 1.71851,-2.4985 0.4623,-1.852 -0.3209,-3.8378 -1.76414,-5.0429 -1.89599,-1.7612 -4.16822,-3.1268 -5.7598,-5.2302 -1.96786,-2.28583 -3.2773,-5.04353 -4.33354,-7.84224 -3.8341,-7.09807 -9.53842,-12.90153 -14.25759,-19.38492 -3.27955,-4.43885 -6.37887,-9.18212 -7.86366,-14.55232 -0.30147,-1.19214 -0.50464,-2.40939 -0.6182,-3.63367 -9.97526,0 -19.95053,0 -29.92579,0 0.013,0.19466 0.026,0.38933 0.0391,0.58399 z"
       inkscape:export-filename="..\..\..\Textures\ChooseYourOutfit\Body\Female\Filled\left_foot.png"
       inkscape:export-xdpi="96"
       inkscape:export-ydpi="96" />
    <path
       id="path60"
       style="display:inline;fill:#ffffff;fill-opacity:1;fill-rule:evenodd;stroke:none;stroke-width:0.432588;stroke-linecap:butt;stroke-linejoin:round;stroke-dasharray:none;stroke-opacity:1;paint-order:markers stroke fill"
       inkscape:label="rightHand"
       d="m 355.20898,495.71875 c -5.9909,0.61939 -11.98176,1.23965 -17.97265,1.85937 -1.34146,4.5219 -4.57246,8.4089 -4.97161,13.21544 -0.53727,10.45708 -0.3041,20.93051 -0.12662,31.39353 0.064,4.8083 -0.19719,9.62143 -0.89282,14.38097 -0.23129,1.91736 -0.4592,3.83516 -0.69255,5.75225 0.93532,-5.44864 1.84003,-10.91573 3.19095,-16.27779 1.09301,-2.82147 4.75812,-3.80796 7.40101,-2.69269 2.41483,0.93497 3.96785,3.57874 3.65236,6.14388 -0.0502,6.33912 0.17154,12.67697 0.21998,19.01582 0.0594,3.91611 0.10302,7.83247 0.18024,11.74828 0.32228,-10.59631 0.47033,-21.20285 1.11804,-31.78551 -0.0996,-2.35431 1.67548,-4.42959 3.85685,-5.11562 2.50182,-0.91621 5.61336,-0.0842 7.06787,2.21715 1.36277,2.19722 1.01423,4.90639 1.556,7.3412 1.78891,13.2135 3.37965,26.45271 5.38561,39.62989 0.11795,-3.78198 -0.90857,-7.56822 -1.11328,-11.26953 -1.13768,-11.78173 -2.81344,-23.53763 -3.63086,-35.36133 0.43279,-4.03894 5.43675,-6.52579 9.00311,-4.74982 2.50787,0.99386 3.8068,3.67692 4.17241,6.2088 2.98444,9.81267 5.93677,19.64881 8.95729,29.44141 -1.09931,-4.2105 -2.06462,-8.4529 -3.06879,-12.68627 -2.99502,-12.36682 -5.91794,-24.76901 -7.86902,-37.35032 -0.68274,-2.67526 -1.33247,-5.71084 0.0804,-8.272 1.79611,-2.63049 5.82618,-2.81764 8.23539,-0.94864 1.32871,1.10364 2.19853,2.64576 3.24499,4.00008 1.94622,2.82281 4.18611,5.46978 5.67196,8.58332 -2.6713,-7.47152 -5.11823,-15.04324 -8.5421,-22.18646 -1.97196,-3.48194 -5.66073,-5.43402 -9.17658,-7.03229 -3.23792,-1.57664 -6.46321,-3.32242 -9.08405,-5.83203 -1.95117,0.20964 -3.90234,0.41927 -5.85352,0.62891 z m 34.75391,40.33594 c 0.2062,1.53175 0.57497,3.10553 1.60742,4.31054 0.0711,-0.10441 -0.24145,-0.88281 -0.35417,-1.21147 -0.46399,-1.15907 -0.94002,-2.31338 -1.34309,-3.49556 0.0299,0.13216 0.0599,0.26433 0.0898,0.39649 z" />
    <path
       id="path61"
       style="display:inline;fill:#ffffff;fill-opacity:1;fill-rule:evenodd;stroke:none;stroke-width:0.432588;stroke-linecap:butt;stroke-linejoin:round;stroke-dasharray:none;stroke-opacity:1;paint-order:markers stroke fill"
       inkscape:label="rightArm"
       d="m 292.625,300.43945 c 5.33545,20.74082 10.82324,41.49461 14.16716,62.66794 2.77189,16.21617 3.99921,32.65513 7.3385,48.77254 5.85287,20.90209 13.03867,41.397 19.06493,62.25162 1.06501,3.54274 2.13002,7.08548 3.19503,10.62822 6.54558,-0.75456 13.09115,-1.50912 19.63672,-2.26368 -5.69476,-27.07082 -7.62108,-54.84045 -14.87109,-81.58398 -2.53242,-9.35254 -5.69829,-18.63434 -7.08036,-28.27482 -1.70063,-16.06062 -2.36361,-32.20605 -3.70445,-48.29681 -0.74556,-10.34006 -1.49112,-20.68011 -2.23667,-31.02017 -11.83659,2.37305 -23.67318,4.7461 -35.50977,7.11914 z" />
    <path
       id="path62"
       style="display:inline;opacity:1;fill:#ffffff;fill-opacity:1;fill-rule:evenodd;stroke:none;stroke-width:0.432999;stroke-linecap:butt;stroke-linejoin:round;stroke-dasharray:none;stroke-opacity:1;paint-order:markers stroke fill"
       inkscape:label="neck"
       d="m 174.75391,150.79492 c 0.6273,6.24081 0.88947,12.72788 -1.12543,18.75846 -1.51183,3.97872 -5.05326,6.71192 -8.61016,8.79856 -5.3063,2.99228 -11.17229,4.76079 -16.90745,6.72398 -0.30488,0.2015 -1.76016,0.31417 -0.93327,0.58006 10.88607,4.95258 22.53659,8.20963 34.46223,9.77923 17.37312,2.27486 35.26352,0.95675 52.09472,-4.01997 5.40675,-1.59736 10.69477,-3.56729 15.84162,-5.92891 -7.86056,-2.38678 -15.82451,-5.09462 -22.50325,-10.01698 -2.93706,-2.33178 -4.84177,-5.83274 -5.35245,-9.53553 -0.84815,-4.71603 -0.47011,-9.53428 -0.20567,-14.28565 0.0791,-0.96784 0.19524,-1.93177 0.30747,-2.89622 -6.97377,4.17014 -14.70698,7.43621 -22.87575,8.10543 -5.13038,0.14407 -10.08723,-1.51839 -14.82903,-3.29736 -3.32521,-1.33306 -6.51812,-2.98146 -9.58819,-4.82369 0.0749,0.6862 0.14974,1.37239 0.22461,2.05859 z" />
    <path
       id="path63"
       style="display:inline;fill:#ffffff;fill-opacity:1;fill-rule:evenodd;stroke-width:1.04765"
       inkscape:label="right ear"
       d="m 258.67188,62.582031 c 0.27149,6.394769 0.28487,12.803662 -0.0723,19.195313 1.94657,-3.996027 2.67364,-8.528915 2.24609,-12.94336 -0.29611,-2.726541 -0.69883,-5.845378 -2.27734,-8.30664 0.0345,0.684896 0.069,1.369791 0.10352,2.054687 z" />
    <path
       id="path64"
       style="display:inline;fill:#ffffff;fill-opacity:1;fill-rule:evenodd;stroke:none;stroke-width:0.432588;stroke-linecap:butt;stroke-linejoin:round;stroke-dasharray:none;stroke-opacity:1;paint-order:markers stroke fill"
       inkscape:label="right femur"
       d="m 204.84766,510.54883 c 4.29837,1.87723 7.06232,6.15628 8.23166,10.56801 1.63546,5.63288 1.64147,11.54967 2.46285,17.32098 1.92535,17.82075 4.07813,35.61212 6.81874,53.3182 3.1301,21.32733 5.80762,42.73146 7.4628,64.22782 1.47669,12.83419 3.00599,25.66545 4.42546,38.50295 1.40054,10.19866 5.08944,19.8657 7.8315,29.75076 1.8329,7.16712 2.62954,14.55135 3.23044,21.90991 0.56127,7.5731 0.98986,15.15548 1.58075,22.72651 0.90099,12.90405 2.02598,25.79462 3.63669,38.61528 3.9854,33.2424 9.57476,66.29405 12.465,99.66459 0.9655,10.06421 1.80566,20.17955 1.33653,30.29733 0.17876,1.65456 0.52497,3.2849 0.86523,4.91211 10.77474,-0.004 21.54948,-0.008 32.32422,-0.0117 -0.0912,-2.53258 -1.17598,-4.86433 -2.19717,-7.13312 -3.66276,-9.18755 -4.3391,-19.16986 -5.0988,-28.92838 -2.45225,-32.85944 0.80334,-65.76336 3.73285,-98.47817 1.98287,-22.18557 3.95167,-44.40538 3.80321,-66.69996 -0.1753,-8.61277 -1.28253,-17.20366 -3.59843,-25.51344 -3.76221,-14.77502 -9.35565,-29.03706 -12.45221,-43.99069 -0.93959,-4.75289 -0.55281,-9.63391 -0.10583,-14.41913 0.6726,-6.10166 1.52558,-12.1822 2.28508,-18.2736 2.43045,-18.15318 5.16435,-36.2596 7.59098,-54.41312 2.61467,-19.40707 4.86798,-38.84793 6.14579,-58.39257 1.43812,-23.9348 -0.24329,-48.18371 -6.35156,-71.40626 -1.33861,-4.9205 -2.48595,-9.95541 -4.69117,-14.55362 -0.79618,-1.78782 -1.64682,-3.55074 -2.48461,-5.31942 -26.41667,0 -52.83334,0 -79.25,0 0,25.23958 0,50.47916 0,75.71875 z"
       inkscape:export-filename="..\..\..\Textures\ChooseYourOutfit\Body\Female\Filled\left_leg.png"
       inkscape:export-xdpi="96"
       inkscape:export-ydpi="96" />
    <path
       id="path65"
       style="display:inline;fill:#ffffff;fill-opacity:1;fill-rule:evenodd;stroke:none;stroke-width:0.432588;stroke-linecap:butt;stroke-linejoin:round;stroke-dasharray:none;stroke-opacity:1;paint-order:markers stroke fill"
       inkscape:label="rightShoulder"
       d="m 266.72266,191.57422 c -6.26757,3.69137 -12.84412,6.86075 -19.64844,9.43359 10.61049,10.66429 20.67991,22.13262 27.84527,35.44643 5.63053,10.54985 8.16864,22.4404 9.3953,34.24993 0.35525,3.5532 0.58704,7.11744 0.77896,10.68255 1.38525,1.82855 2.26725,3.96334 3.18359,6.04883 12.79167,-2.61784 25.58334,-5.23568 38.375,-7.85352 -2.11638,-14.55893 -3.29213,-29.25249 -6.44531,-43.64062 -1.3728,-5.69666 -3.18525,-11.46006 -5.53477,-16.91368 -1.58046,-3.63999 -3.38677,-7.30527 -5.57421,-10.6642 -3.55302,-4.86368 -8.84132,-8.37667 -14.46328,-10.53736 -4.5081,-1.71054 -9.31469,-2.53663 -14.02696,-3.675 -4.27116,-0.97881 -8.48958,-2.16749 -12.725,-3.28789 -0.38672,0.23698 -0.77344,0.47396 -1.16015,0.71094 z" />
  </g>
  <path
     style="display:inline;fill:none;fill-opacity:1;fill-rule:evenodd;stroke:#ff0000;stroke-width:0.23116675;stroke-linecap:butt;stroke-linejoin:round;stroke-dasharray:none;stroke-opacity:1;paint-order:markers stroke fill"
     d="M 81.0938 249.889 L 80.9553 251.393 L 75.5995 259.778 L 73.7782 261.875 L 73.2808 264.7 L 84.3602 266.642 L 87.1758 266.704 L 90.6994 265.102 L 91.2234 260.939 L 90.1485 253.828 L 90.1516 249.889 Z"
     id="right_foot"
     inkscape:label="rightFoot"
     inkscape:export-filename="..\..\..\Textures\ChooseYourOutfit\Body\Female\Filled\right_foot.png"
     inkscape:export-xdpi="96"
     inkscape:export-ydpi="96"
     transform="matrix(4.3258817,0,0,4.3258817,-255.84523,-129.80206)" />
  <path
     style="display:inline;fill:none;fill-opacity:1;fill-rule:evenodd;stroke:#ff0000;stroke-width:0.23116675;stroke-linecap:butt;stroke-linejoin:round;stroke-dasharray:none;stroke-opacity:1;paint-order:markers stroke fill"
     d="M 84.4409 129.484 L 83.0931 132.479 L 80.818 148.38 L 84.7416 184.518 L 80.9552 199.795 L 82.1525 220.889 L 82.2308 243.328 L 80.9552 247.972 L 81.0216 248.889 L 90.3066 248.889 L 90.7157 246.481 L 90.7157 243.328 L 94.4969 210.96 L 95.2663 200.775 L 96.7458 194.63 L 98.3762 184.518 L 98.8405 180.071 L 100.811 164.14 L 101.914 155.133 L 102.353 151.382 L 104.457 148.843 L 104.457 129.484 Z"
     id="right_leg"
     inkscape:export-filename="..\..\..\Textures\ChooseYourOutfit\Body\Male\Filled\right_leg.png"
     inkscape:export-xdpi="96"
     inkscape:export-ydpi="96"
     inkscape:label="right femur"
     sodipodi:nodetypes="ccsssssccssssscsscccc"
     transform="matrix(4.3258817,0,0,4.3258817,-255.84523,-129.80206)" />
  <path
     style="display:inline;fill:none;fill-opacity:1;fill-rule:evenodd;stroke:#ff0000;stroke-width:0.23116675;stroke-linecap:butt;stroke-linejoin:round;stroke-dasharray:none;stroke-opacity:1;paint-order:markers stroke fill"
     d="M 66.8821 143.369 L 63.6586 145.428 L 61.5564 148.25 L 59.216 154.704 L 59.8398 156.293 L 61.3787 155.078 L 61.8412 153.373 L 63.4731 150.903 L 64.1832 150.4 L 64.131 151.285 L 63.3284 155.708 L 61.142 164.834 L 61.6939 166.272 L 62.9889 165.542 L 65.797 156.302 L 66.3355 156.024 L 66.6517 156.551 L 65.5025 166.971 L 66.4425 168.2 L 67.6336 167.22 L 68.9953 156.964 L 69.3482 156.551 L 69.7229 156.867 L 70.0169 166.979 L 71.237 167.876 L 71.9718 166.91 L 72.1207 156.964 L 72.3982 156.551 L 72.7578 156.867 L 74.2404 165.274 L 75.3205 166.016 L 76.0228 164.834 L 74.997 156.502 L 74.8854 147.232 L 73.6676 144.07 Z"
     id="right_hand"
     inkscape:label="rightHand"
     inkscape:export-filename="..\..\..\Textures\ChooseYourOutfit\Body\Female\Filled\right_hand.png"
     inkscape:export-xdpi="96"
     inkscape:export-ydpi="96"
     sodipodi:nodetypes="cccccsscscccsccccccccccscccscscccscc"
     transform="matrix(4.3258817,0,0,4.3258817,-255.84523,-129.80206)" />
  <path
     style="display:inline;fill:none;fill-opacity:1;fill-rule:evenodd;stroke:#ff0000;stroke-width:0.23116675;stroke-linecap:butt;stroke-linejoin:round;stroke-dasharray:none;stroke-opacity:1;paint-order:markers stroke fill"
     d="M 73.9669 96.5614 L 72.6301 115.088 L 70.686 123.275 L 67.2051 142.444 L 73.7555 143.196 L 79.5096 123.816 L 80.2947 118.05 L 83.8688 100.802 L 84.4042 98.6523 Z"
     id="right_arm"
     inkscape:label="rightArm"
     sodipodi:nodetypes="cssccssscc"
     inkscape:export-filename="..\..\..\Textures\ChooseYourOutfit\Body\Female\Filled\right_arm.png"
     inkscape:export-xdpi="96"
     inkscape:export-ydpi="96"
     transform="matrix(4.3258817,0,0,4.3258817,-255.84523,-129.80206)" />
  <path
     style="display:inline;fill:none;fill-opacity:1;fill-rule:evenodd;stroke:#ff0000;stroke-width:0.23116675;stroke-linecap:butt;stroke-linejoin:round;stroke-dasharray:none;stroke-opacity:1;paint-order:markers stroke fill"
     d="M 89.0065 73.0079 L 84.3909 74.1632 L 80.1423 75.9029 L 77.3482 79.6028 L 74.7861 90.3441 L 74.0888 95.4598 L 84.7227 97.6338 L 85.8903 95.4598 L 88.299 84.8186 L 95.5688 76.0445 L 89.0065 73.0079 Z"
     id="right_shoulder"
     inkscape:label="rightShoulder"
     inkscape:export-filename="..\..\..\Textures\ChooseYourOutfit\Body\Female\Filled\right_shoulder.png"
     inkscape:export-xdpi="96"
     inkscape:export-ydpi="96"
     sodipodi:nodetypes="cssccccscc"
     transform="matrix(4.3258817,0,0,4.3258817,-255.84523,-129.80206)" />
  <path
     id="Waist"
     style="display:inline;fill:none;fill-opacity:1;fill-rule:evenodd;stroke:#ff0000;stroke-width:0.23116675;stroke-linecap:butt;stroke-linejoin:round;stroke-dasharray:none;stroke-opacity:1;paint-order:markers stroke fill"
     inkscape:label="utility"
     d="M 87.0522 121.943 L 85.6521 124.987 L 84.7275 128.484 L 125.186 128.484 L 124.261 124.987 L 122.861 121.943 Z"
     sodipodi:nodetypes="csccscc"
     inkscape:export-filename="..\..\..\Textures\ChooseYourOutfit\Body\Female\Filled\Waist.png"
     inkscape:export-xdpi="96"
     inkscape:export-ydpi="96"
     transform="matrix(4.3258817,0,0,4.3258817,-255.84523,-129.80206)" />
  <path
     id="Torso"
     style="display:inline;fill:none;fill-opacity:1;fill-rule:evenodd;stroke:#ff0000;stroke-width:0.23116675;stroke-linecap:butt;stroke-linejoin:round;stroke-dasharray:none;stroke-opacity:1;paint-order:markers stroke fill"
     inkscape:label="torso"
     d="M 96.698 76.3612 L 89.1698 85.3085 L 87.0107 95.4979 L 87.6916 100.149 L 89.1698 105.111 L 89.7928 112.984 L 87.343 120.943 L 122.571 120.943 L 120.121 112.984 L 120.744 105.111 L 122.222 100.149 L 122.903 95.4979 L 120.744 85.3085 L 113.216 76.3612 L 104.989 77.4818 L 96.698 76.3612 Z"
     sodipodi:nodetypes="cscsssccssscscc"
     inkscape:export-filename="..\..\..\Textures\ChooseYourOutfit\Body\Female\Filled\Torso.png"
     inkscape:export-xdpi="96"
     inkscape:export-ydpi="96"
     transform="matrix(4.3258817,0,0,4.3258817,-255.84523,-129.80206)" />
  <path
     id="Jaw"
     style="display:inline;fill:none;fill-opacity:1;fill-rule:evenodd;stroke-width:0.23116675;stroke-dasharray:none;stroke:#ff0000;stroke-opacity:1"
     inkscape:label="jaws"
     d="M 93.3917 51.6828 L 96.787 59.7695 L 104.957 64.2619 L 113.127 59.7695 L 116.522 51.6828 Z"
     sodipodi:nodetypes="cscscc"
     inkscape:export-filename="..\..\..\Textures\ChooseYourOutfit\Body\Female\Filled\Jaw.png"
     inkscape:export-xdpi="96"
     inkscape:export-ydpi="96"
     transform="matrix(4.3258817,0,0,4.3258817,-255.84523,-129.80206)" />
  <path
     id="Eye"
     style="display:inline;fill:none;fill-opacity:1;fill-rule:evenodd;stroke-width:0.23116675;stroke-dasharray:none;stroke:#ff0000;stroke-opacity:1"
     inkscape:label="eyes"
     d="M 92.9416 44.5857 L 92.9827 47.7146 L 93.2098 50.5725 L 116.704 50.5725 L 116.931 47.7146 L 116.972 44.5857 Z"
     sodipodi:nodetypes="ccccccc"
     inkscape:export-filename="..\..\..\Textures\ChooseYourOutfit\Body\Female\Filled\Eye.png"
     inkscape:export-xdpi="96"
     inkscape:export-ydpi="96"
     transform="matrix(4.3258817,0,0,4.3258817,-255.84523,-129.80206)" />
  <path
     style="display:inline;fill:none;fill-opacity:1;fill-rule:evenodd;stroke-width:0.23116675;stroke:#ff0000;stroke-opacity:1;stroke-dasharray:none"
     d="M 92.165 42.1864 L 89.5653 44.899 L 90.1283 49.5522 L 92.3348 51.9451 L 92.165 50.8741 L 91.9568 47.4926 L 92.165 42.1864 Z"
     id="right_ear"
     inkscape:export-filename="..\..\..\Textures\ChooseYourOutfit\Body\Female\Filled\right_ear.png"
     inkscape:export-xdpi="96"
     inkscape:export-ydpi="96"
     inkscape:label="right ear"
     sodipodi:nodetypes="cssccccc"
     transform="matrix(4.3258817,0,0,4.3258817,-255.84523,-129.80206)" />
  <path
     id="Head"
     style="display:inline;fill:none;fill-opacity:1;fill-rule:evenodd;stroke-width:0.23116675;stroke-dasharray:none;stroke:#ff0000;stroke-opacity:1"
     inkscape:label="head"
     d="M 93.7443 37.2479 L 92.9827 43.4754 L 116.931 43.4754 L 116.169 37.2479 L 112.078 31.8113 L 104.957 29.9991 L 97.8356 31.8113 L 93.7443 37.2479 Z"
     sodipodi:nodetypes="sccss"
     inkscape:export-filename="..\..\..\Textures\ChooseYourOutfit\Body\Female\Filled\Head.png"
     inkscape:export-xdpi="96"
     inkscape:export-ydpi="96"
     transform="matrix(4.3258817,0,0,4.3258817,-255.84523,-129.80206)" />
  <path
     style="display:inline;fill:none;fill-opacity:1;fill-rule:evenodd;stroke:#ff0000;stroke-width:0.23116675;stroke-linecap:butt;stroke-linejoin:round;stroke-dasharray:none;stroke-opacity:1;paint-order:markers stroke fill"
     d="M 128.82 249.889 L 128.958 251.393 L 134.314 259.778 L 136.135 261.875 L 136.633 264.7 L 125.553 266.642 L 122.738 266.704 L 119.214 265.102 L 118.69 260.939 L 119.765 253.828 L 119.762 249.889 Z"
     id="left_foot"
     inkscape:label="rightFoot"
     inkscape:export-filename="..\..\..\Textures\ChooseYourOutfit\Body\Male\Filled\left_foot.png"
     inkscape:export-xdpi="96"
     inkscape:export-ydpi="96"
     transform="matrix(4.3258817,0,0,4.3258817,-255.84523,-129.80206)" />
  <path
     style="display:inline;fill:none;fill-opacity:1;fill-rule:evenodd;stroke:#ff0000;stroke-width:0.23116675;stroke-linecap:butt;stroke-linejoin:round;stroke-dasharray:none;stroke-opacity:1;paint-order:markers stroke fill"
     d="M 143.032 143.369 L 146.255 145.428 L 148.357 148.25 L 150.698 154.704 L 150.074 156.293 L 148.535 155.078 L 148.072 153.373 L 146.441 150.903 L 145.73 150.4 L 145.783 151.285 L 146.585 155.708 L 148.772 164.834 L 148.22 166.272 L 146.925 165.542 L 144.117 156.302 L 143.578 156.024 L 143.262 156.551 L 144.411 166.971 L 143.471 168.2 L 142.28 167.22 L 140.918 156.964 L 140.565 156.551 L 140.191 156.867 L 139.897 166.979 L 138.677 167.876 L 137.942 166.91 L 137.793 156.964 L 137.515 156.551 L 137.156 156.867 L 135.673 165.274 L 134.593 166.016 L 133.891 164.834 L 134.917 156.502 L 135.028 147.232 L 136.246 144.07 Z"
     id="left_hand"
     inkscape:label="rightHand"
     inkscape:export-filename="..\..\..\Textures\ChooseYourOutfit\Body\Female\Filled\left_hand.png"
     inkscape:export-xdpi="96"
     inkscape:export-ydpi="96"
     sodipodi:nodetypes="cccccsscscccsccccccccccscccscscccscc"
     transform="matrix(4.3258817,0,0,4.3258817,-255.84523,-129.80206)" />
  <path
     style="display:inline;fill:none;fill-opacity:1;fill-rule:evenodd;stroke:#ff0000;stroke-width:0.23116675;stroke-linecap:butt;stroke-linejoin:round;stroke-dasharray:none;stroke-opacity:1;paint-order:markers stroke fill"
     d="M 135.947 96.5614 L 137.284 115.088 L 139.228 123.275 L 142.709 142.444 L 136.158 143.196 L 130.404 123.816 L 129.619 118.05 L 126.045 100.802 L 125.509 98.6523 Z"
     id="left_arm"
     inkscape:label="rightArm"
     sodipodi:nodetypes="cssccssscc"
     inkscape:export-filename="..\..\..\Textures\ChooseYourOutfit\Body\Female\Filled\left_arm.png"
     inkscape:export-xdpi="96"
     inkscape:export-ydpi="96"
     transform="matrix(4.3258817,0,0,4.3258817,-255.84523,-129.80206)" />
  <path
     id="Neck"
     style="display:inline;opacity:1;fill:none;fill-opacity:1;fill-rule:evenodd;stroke:#ff0000;stroke-width:0.23116675;stroke-linecap:butt;stroke-linejoin:round;stroke-dasharray:none;stroke-opacity:1;paint-order:markers stroke fill"
     inkscape:label="neck"
     d="M 98.1595 62.2343 L 98.3907 68.6708 L 90.3193 72.6368 L 104.958 76.4768 L 119.594 72.6368 L 111.523 68.6708 L 111.754 62.2343 L 110.862 62.8578 L 109.161 63.9233 L 104.957 65.2611 L 100.752 63.9233 L 99.0512 62.8578 L 98.1595 62.2343 Z"
     sodipodi:nodetypes="ccccccsscssc"
     inkscape:export-filename="..\..\..\Textures\ChooseYourOutfit\Body\Female\Filled\Neck.png"
     inkscape:export-xdpi="96"
     inkscape:export-ydpi="96"
     transform="matrix(4.3258817,0,0,4.3258817,-255.84523,-129.80206)" />
  <path
     style="display:inline;fill:none;fill-opacity:1;fill-rule:evenodd;stroke-width:0.23116675;stroke:#ff0000;stroke-opacity:1;stroke-dasharray:none"
     d="M 117.749 42.1864 L 120.348 44.899 L 119.785 49.5522 L 117.579 51.9451 L 117.749 50.8741 L 117.957 47.4926 L 117.749 42.1864 Z"
     id="left_ear"
     inkscape:export-filename="..\..\..\Textures\ChooseYourOutfit\Body\Female\Filled\left_ear.png"
     inkscape:export-xdpi="96"
     inkscape:export-ydpi="96"
     inkscape:label="right ear"
     sodipodi:nodetypes="cssccccc"
     transform="matrix(4.3258817,0,0,4.3258817,-255.84523,-129.80206)" />
  <path
     style="display:inline;fill:none;fill-opacity:1;fill-rule:evenodd;stroke:#ff0000;stroke-width:0.23116675;stroke-linecap:butt;stroke-linejoin:round;stroke-dasharray:none;stroke-opacity:1;paint-order:markers stroke fill"
     d="M 125.473 129.484 L 126.82 132.479 L 129.096 148.38 L 125.172 184.518 L 128.958 199.795 L 127.761 220.889 L 127.683 243.328 L 128.958 247.972 L 128.892 248.889 L 119.607 248.889 L 119.198 246.481 L 119.198 243.328 L 115.417 210.96 L 114.647 200.775 L 113.168 194.63 L 111.537 184.518 L 111.073 180.071 L 109.103 164.14 L 108 155.133 L 107.56 151.382 L 105.457 148.843 L 105.457 129.484 Z"
     id="left_leg"
     inkscape:export-filename="..\..\..\Textures\ChooseYourOutfit\Body\Male\Filled\left_leg.png"
     inkscape:export-xdpi="96"
     inkscape:export-ydpi="96"
     inkscape:label="right femur"
     sodipodi:nodetypes="ccsssssccssssscsscccc"
     transform="matrix(4.3258817,0,0,4.3258817,-255.84523,-129.80206)" />
  <path
     style="display:inline;fill:none;fill-opacity:1;fill-rule:evenodd;stroke:#ff0000;stroke-width:0.23116675;stroke-linecap:butt;stroke-linejoin:round;stroke-dasharray:none;stroke-opacity:1;paint-order:markers stroke fill"
     d="M 120.907 73.0079 L 125.523 74.1632 L 129.771 75.9029 L 132.565 79.6028 L 135.128 90.3441 L 135.825 95.4598 L 125.191 97.6338 L 124.023 95.4598 L 121.615 84.8186 L 114.345 76.0445 L 120.907 73.0079 Z"
     id="left_shoulder"
     inkscape:label="rightShoulder"
     inkscape:export-filename="..\..\..\Textures\ChooseYourOutfit\Body\Female\Filled\left_shoulder.png"
     inkscape:export-xdpi="96"
     inkscape:export-ydpi="96"
     sodipodi:nodetypes="cssccccscc"
     transform="matrix(4.3258817,0,0,4.3258817,-255.84523,-129.80206)" />
</svg>
